/* XPM */
static char *result[] = {
/* columns rows colors chars-per-pixel */
"64 64 14 1 ",
"  c gray16",
". c #2A2A2A",
"X c #444444",
"o c #515151",
"O c #5F5F5F",
"+ c gray58",
"@ c gray63",
"# c #BCBCBC",
"$ c gray79",
"% c #D7D7D7",
"& c #E4E4E4",
"* c #F1F1F1",
"= c white",
"- c None",
/* pixels */
"----------------------------------------------------------------",
"-.            .....................  -----   .............   ..-",
"-................................................XOOOOO........-",
"-..$$$$$$$$$$$====================%$@+++++$$$%==========$$$$$..-",
"-..==========================================================..-",
"-..==========================================================..-",
"-..$=========================================================..-",
"- .@=========================================================..-",
"--.+=========================================================..-",
"- .+=========================================================..-",
"- .$=========================================================..-",
"- .$=========================================================..-",
"- .$=========================================================..-",
"- .$=========================================================..-",
"- .$=========================================================..-",
"- .#=========================================================..-",
"--.+========================================================*..-",
"--.+========================================================@. -",
"--.+========================================================+.--",
"- .+========================================================@.--",
"-..$==&$$$&==========================#$$$$==================$. -",
"-...........XOOOOO....oOOOOOOO........................oOOOOOo. -",
"-.....    ...........................     .................... -",
"----------------------------------------------------------------",
"----------------------------------------------------------------",
"----------------------------------------------------------------",
"----------------------------------------------------------------",
"----------------------------------------------------------------",
"----------------------------------------------------------------",
"----------------------------------------------------------------",
"----------------------------------------------------------------",
"----------------------------------------------------------------",
"----------------------------------------------------------------",
"----------------------------------------------------------------",
"----------------------------------------------------------------",
"----------------------------------------------------------------",
"----------------------------------------------------------------",
"----------------------------------------------------------------",
"----------------------------------------------------------------",
"----------------------------------------------------------------",
"----------------------------------------------------------------",
"----------------------------------------------------------------",
"----------------------------------------------------------------",
"----------------------------------------------------------------",
"----------------------------------------------------------------",
"----------------------------------------------------------------",
"----------------------------------------------------------------",
"----------------------------------------------------------------",
"----------------------------------------------------------------",
"----------------------------------------------------------------",
"----------------------------------------------------------------",
"----------------------------------------------------------------",
"----------------------------------------------------------------",
"----------------------------------------------------------------",
"----------------------------------------------------------------",
"----------------------------------------------------------------",
"----------------------------------------------------------------",
"----------------------------------------------------------------",
"----------------------------------------------------------------",
"----------------------------------------------------------------",
"----------------------------------------------------------------",
"----------------------------------------------------------------",
"----------------------------------------------------------------",
"----------------------------------------------------------------"
};
