/* XPM */
static char *result[] = {
/* columns rows colors chars-per-pixel */
"64 64 36 1 ",
"  c gray16",
". c #2A2A2A",
"X c #373737",
"o c #444444",
"O c #515151",
"+ c #5F5F5F",
"@ c #5D5E60",
"# c #6C6C6C",
"$ c #797979",
"% c gray53",
"& c #909396",
"* c gray58",
"= c #94989B",
"- c gray63",
"; c #AFAFAF",
": c #B2B7BB",
"> c #B6BBBF",
", c #BCBCBC",
"< c #C0C4C7",
"1 c #C4C5C5",
"2 c #C5C9CC",
"3 c gray79",
"4 c #CACDD0",
"5 c #CED2D4",
"6 c #D7D7D7",
"7 c #DDDFE1",
"8 c #E2E4E5",
"9 c #E4E4E4",
"0 c #E6E8E9",
"q c #EBEDEE",
"w c #F1F1F1",
"e c #F0F1F2",
"r c #F5F6F6",
"t c gray98",
"y c white",
"u c None",
/* pixels */
"uuuuuuuuuuuuuuuuuuuuuuuuuuuuuuuuuuuuuuuuuuuuuuuuuuuuuuuuuuuuuuuu",
"u.            .....................  uuuuu   .............   ..u",
"u................................................o+++++........u",
"u..&=133333333yyyyyyyyyyyyyyyyyyyy63-*****3336yyyyyyyyyy33333..u",
"u..>:<tyyyyyyyyyyyyyyyyyyyyyyyyyyyyyyyyyyyyyyyyyyyyyyyyyyyyyy..u",
"u.Xe>:<tyyyyyyyyyyyyyyyyyyyyyyyyyyyyyyyyyyyyyyyyyyyyyyyyyyyyy..u",
"u.+ye>:<tyyyyyyyyyyyyyyyyyyyyyyyyyyyyyyyyyyyyyyyyyyyyyyyyyyyy..u",
"..*yyr<:>eyyyyyyyyyyyyyyyyyyyyyyyyyyyyyyyyyyyyyyyyyyyyyyyyyyy..u",
" .3yyyt2:>qyyyyyyyyyyyyyyyyyyyyyyyyyyyyyyyyyyyyyyyyyyyyyyyyyy..u",
" .,yyyyt<:>ryyyyyyyyyyyyyyyyyyyyyyyyyyyyyyyyyyyyyyyyyyyyyyyyy..u",
" .$yyyyyy<:2yyyyyyyyyyyyyyyyyyyyyyyyyyyyyyyyyyyyyyyyyyyyyyyyy..u",
"u.+yyyyyyy4:5yyyyyyyyyyyyyyyyyyyyyyyyyyyyyyyyyyyyyyyyyyyyyyyy..u",
"u.+yyyyyyyt<:2eyyyyyyyyyyyyyyyyyyyyyyyyyyyyyyyyyyyyyyyyyyyyyy..u",
"u.+yyyyyyyyt2:>qyyyyyyyyyyyyyyyyyyyyyyyyyyyyyyyyyyyyyyyyyyyyy..u",
"u.+yyyyyyyyyt<:>ryyyyyyyyyyyyyyyyyyyyyyyyyyyyyyyyyyyyyyyyyyyy..u",
"u.+yyyyyyyyyyt<:2yyyyyyyyyyyyyyyyyyyyyyyyyyyyyyyyyyyyyyyyyyyy..u",
"u.%yyyyyyyyyyyt<:5yyyyyyyyyyyyyyyyyyyyyyyyyyyyyyyyyyyyyyyyyyw..u",
"u.#yyyyyyyyyyyye>:8yyyyyyyyyyyyyyyyyyyyyyyyyyyyyyyyyyyyyyyyy-. u",
"u.+yyyyyyyyyyyyy0::8yyyyyyyyyyyyyyyyyyyyyyyyyyyyyyyyyyyyyyyy*.uu",
"u..yyyyyyyyyyyyyy5::5tyyyyyyyyyyyyyyyyyyyyyyyyyyyyyyyyyyyyyy-.uu",
"u..6yyyyyyyyyyyyyy7::>0yyy93339yyyyyyyyyyyyyyyyyyyyyyyyy-*%*-. u",
"u .-yyyyyyyyyyyyyyy8>@..........o+++++....O+++++++............ u",
"uu.*yyyyyyyyyyyyyyyyr.....    ...........................uu... u",
"uu.*yyyyyyyyyyyyyyyyy..uuuuuuuuuuuuuuuuuuuuuuuuuuuuuuuuuuuuuuuuu",
"uu.*yyyyyyyyyyyyyyyyy..uuuuuuuuuuuuuuuuuuuuuuuuuuuuuuuuuuuuuuuuu",
"uu.*yyyyyyyyyyyyyyyyy..uuuuuuuuuuuuuuuuuuuuuuuuuuuuuuuuuuuuuuuuu",
"u..*yyyyyyyyyyyyyyyyy..uuuuuuuuuuuuuuuuuuuuuuuuuuuuuuuuuuuuuuuuu",
"u .3yyyyyyyyyyyyyyyyy+.uuuuuuuuuuuuuuuuuuuuuuuuuuuuuuuuuuuuuuuuu",
"u .3yyyyyyyyyyyyyyyyy+.uuuuuuuuuuuuuuuuuuuuuuuuuuuuuuuuuuuuuuuuu",
"u .3yyyyyyyyyyyyyyyyy+.uuuuuuuuuuuuuuuuuuuuuuuuuuuuuuuuuuuuuuuuu",
"u .3yyyyyyyyyyyyyyyywX.uuuuuuuuuuuuuuuuuuuuuuuuuuuuuuuuuuuuuuuuu",
"u..3yyyyyyyyyyyyyyyy-. uuuuuuuuuuuuuuuuuuuuuuuuuuuuuuuuuuuuuuuuu",
"u..wyyyyyyyyyyyyyyyy+.uuuuuuuuuuuuuuuuuuuuuuuuuuuuuuuuuuuuuuuuuu",
"u.Xyyyyyyyyyyyyyyyyy+.uuuuuuuuuuuuuuuuuuuuuuuuuuuuuuuuuuuuuuuuuu",
"..$yyyyyyyyyyyyyyyyy+.uuuuuuuuuuuuuuuuuuuuuuuuuuuuuuuuuuuuuuuuuu",
" .,yyyyyyyyyyyyyyyyy+.uuuuuuuuuuuuuuuuuuuuuuuuuuuuuuuuuuuuuuuuuu",
" .3yyyyyyyyyyyyyyyyy%.uuuuuuuuuuuuuuuuuuuuuuuuuuuuuuuuuuuuuuuuuu",
" .3yyyyyyyyyyyyyyyyy*.uuuuuuuuuuuuuuuuuuuuuuuuuuuuuuuuuuuuuuuuuu",
" .-yyyyyyyyyyyyyyyyy*.uuuuuuuuuuuuuuuuuuuuuuuuuuuuuuuuuuuuuuuuuu",
"u.$yyyyyyyyyyyyyyyyy*. uuuuuuuuuuuuuuuuuuuuuuuuuuuuuuuuuuuuuuuuu",
"u.Oyyyyyyyyyyyyyyyyy*.uuuuuuuuuuuuuuuuuuuuuuuuuuuuuuuuuuuuuuuuuu",
"u..yyyyyyyyyyyyyyyyy*.uuuuuuuuuuuuuuuuuuuuuuuuuuuuuuuuuuuuuuuuuu",
"u..6yyyyyyyyyyyyyyyy*.uuuuuuuuuuuuuuuuuuuuuuuuuuuuuuuuuuuuuuuuuu",
"u .3yyyyyyyyyyyyyyyy*.uuuuuuuuuuuuuuuuuuuuuuuuuuuuuuuuuuuuuuuuuu",
"u .3yyyyyyyyyyyyyyyy,. uuuuuuuuuuuuuuuuuuuuuuuuuuuuuuuuuuuuuuuuu",
"u .3yyyyyyyyyyyyyyyy3. uuuuuuuuuuuuuuuuuuuuuuuuuuuuuuuuuuuuuuuuu",
"u .3yyyyyyyyyyyyyyyy3. uuuuuuuuuuuuuuuuuuuuuuuuuuuuuuuuuuuuuuuuu",
"u .3yyyyyyyyyyyyyyyy9..uuuuuuuuuuuuuuuuuuuuuuuuuuuuuuuuuuuuuuuuu",
"u .3yyyyyyyyyyyyyyyyy..uuuuuuuuuuuuuuuuuuuuuuuuuuuuuuuuuuuuuuuuu",
"u .,yyyyyyyyyyyyyyyyy..uuuuuuuuuuuuuuuuuuuuuuuuuuuuuuuuuuuuuuuuu",
"u .%yyyyyyyyyyyyyyyy;..uuuuuuuuuuuuuuuuuuuuuuuuuuuuuuuuuuuuuuuuu",
"uu.+yyyyyyyyyyyyyyyy*..uuuuuuuuuuuuuuuuuuuuuuuuuuuuuuuuuuuuuuuuu",
"uu.+yyyyyyyyyyyyyyyy3..uuuuuuuuuuuuuuuuuuuuuuuuuuuuuuuuuuuuuuuuu",
"uu.$yyyyyyyyyyyyyyyywX.uuuuuuuuuuuuuuuuuuuuuuuuuuuuuuuuuuuuuuuuu",
"u .*yyyyyyyyyyyyyyyyy%..uuuuuuuuuuuuuuuuuuuuuuuuuuuuuuuuuuuuuuuu",
"u .*yyyyyyyyyyyyyyyyy3..uuuuuuuuuuuuuuuuuuuuuuuuuuuuuuuuuuuuuuuu",
"uu.*yyyyyyyyyyyyyyyyyw..uuuuuuuuuuuuuuuuuuuuuuuuuuuuuuuuuuuuuuuu",
"uu.*yyyyyyyyyyyyyyyyyy..uuuuuuuuuuuuuuuuuuuuuuuuuuuuuuuuuuuuuuuu",
"uu.#yyyyyyyyyyyyyyyyyy..uuuuuuuuuuuuuuuuuuuuuuuuuuuuuuuuuuuuuuuu",
"uu.+yyyyyyyyyyyyyyyyy6. uuuuuuuuuuuuuuuuuuuuuuuuuuuuuuuuuuuuuuuu",
"uu.%yyyyyyy93333333yy%. uuuuuuuuuuuuuuuuuuuuuuuuuuuuuuuuuuuuuuuu",
"u .o+++$*#.............uuuuuuuuuuuuuuuuuuuuuuuuuuuuuuuuuuuuuuuuu",
"u............      ... uuuuuuuuuuuuuuuuuuuuuuuuuuuuuuuuuuuuuuuuu",
"uuuuuuu   uuuuuuuuuuuuuuuuuuuuuuuuuuuuuuuuuuuuuuuuuuuuuuuuuuuuuu"
};
