/* XPM */
static char *result[] = {
/* columns rows colors chars-per-pixel */
"64 64 24 1 ",
"  c gray16",
". c #2A2A2A",
"X c #373227",
"o c #3D3626",
"O c #3F3825",
"+ c #443B24",
"@ c #483E23",
"# c #5F4D1F",
"$ c #70581C",
"% c #795E1A",
"& c #514422",
"* c #534522",
"= c #876717",
"- c #886717",
"; c #947015",
": c #A17812",
"> c #AF810F",
", c #BC8A0D",
"< c #C9930A",
"1 c #D79B07",
"2 c #E4A405",
"3 c #F1AD02",
"4 c #FFB600",
"5 c None",
/* pixels */
"5555555555555555555555555555555555555555555555555555555555555555",
"5555555555555555555555555555555555555555555555555555555555555555",
"5555555555555555555555555555555555555555555555555555555555555555",
"5555555555555555555555555555555555555555555555555555555555555555",
"5555555555555555555555555555555555555555555555555555555555555555",
"5555555555555555555555555555555555555555555555555555555555555555",
"5555555555555555555555555555555555555555555555555555555555555555",
"5555555555555555555555555555555555555555555555555555555555555555",
"5555555555555555555555555555555555555555555555555555555555555555",
"5555555555555555555555555555555555555555555555555555555555555555",
"5555555555555555555555555555555555555555555555555555555555555555",
"5555555555555555555555555555555555555555555555555555555555555555",
"5555555555555555555555555555555555555555555555555555555555555555",
"5555555555555555555555555555555555555555555555555555555555555555",
"5555555555555555555555555555555555555555555555555555555555555555",
"5555555555555555555555555555555555555555555555555555555555555555",
"5555555555555555555555555555555555555555555555555555555555555555",
"5555555555555555555555555555555555555555555555555555555555555555",
"5555555555555555555555555555555555555555555555555555555555555555",
"5555555555555555555555555555555555555555555555555555555555555555",
"5555555555555555555555555555555555555555555555555555555555555555",
"5555555555555555555555555555555555555555555555555555555555555555",
"5555555555555555555555555555555555555555555555555555555555555555",
"5555555555555555555555555555555555555555555555555555555555555555",
"555555555555555555555555555555$$$$-55555555555555555555555555555",
"5555555555555555555555555555#.......o555555555555555555555555555",
"55555555555555555555555555O..+%;;=+....5555555555555555555555555",
"55555555555555555555555555.X,4444441%...555555555555555555555555",
"5555555555555555555555555..=444444444:..555555555555555555555555",
"555555555555555555555555*.+34444444444#.555555555555555555555555",
"555555555555555555555555@.>44444444444;..55555555555555555555555",
"555555555555555555555555#.<444444444441..55555555555555555555555",
"555555555555555555555555#.<44444444444>..55555555555555555555555",
"555555555555555555555555@.<44444444444+.555555555555555555555555",
"555555555555555555555555 .>4444444444:..555555555555555555555555",
"5555555555555555555555555.;4444444442..5555555555555555555555555",
"5555555555555555555555555.&444444444%..5555555555555555555555555",
"5555555555555555555555555 .>4444444:..55555555555555555555555555",
"55555555555555555555555555..&;:<<<%...55555555555555555555555555",
"555555555555555555555555555......... 555555555555555555555555555",
"55555555555555555555555555555.     55555555555555555555555555555",
"5555555555555555555555555555555555555555555555555555555555555555",
"5555555555555555555555555555555555555555555555555555555555555555",
"5555555555555555555555555555555555555555555555555555555555555555",
"5555555555555555555555555555555555555555555555555555555555555555",
"5555555555555555555555555555555555555555555555555555555555555555",
"5555555555555555555555555555555555555555555555555555555555555555",
"5555555555555555555555555555555555555555555555555555555555555555",
"5555555555555555555555555555555555555555555555555555555555555555",
"5555555555555555555555555555555555555555555555555555555555555555",
"5555555555555555555555555555555555555555555555555555555555555555",
"5555555555555555555555555555555555555555555555555555555555555555",
"5555555555555555555555555555555555555555555555555555555555555555",
"5555555555555555555555555555555555555555555555555555555555555555",
"5555555555555555555555555555555555555555555555555555555555555555",
"5555555555555555555555555555555555555555555555555555555555555555",
"5555555555555555555555555555555555555555555555555555555555555555",
"5555555555555555555555555555555555555555555555555555555555555555",
"5555555555555555555555555555555555555555555555555555555555555555",
"5555555555555555555555555555555555555555555555555555555555555555",
"5555555555555555555555555555555555555555555555555555555555555555",
"5555555555555555555555555555555555555555555555555555555555555555",
"5555555555555555555555555555555555555555555555555555555555555555",
"5555555555555555555555555555555555555555555555555555555555555555"
};
