/* XPM */
static char *result[] = {
/* columns rows colors chars-per-pixel */
"64 64 35 1 ",
"  c gray16",
". c #2A2A2A",
"X c #373737",
"o c #444444",
"O c #515151",
"+ c #5F5F5F",
"@ c #6C6C6C",
"# c #797979",
"$ c #FFB600",
"% c #FFBA0F",
"& c #FFBF1F",
"* c #FFC32F",
"= c #FFC83F",
"- c #FFCC4F",
"; c #FFD15F",
": c #FFD56F",
"> c #FFDA7F",
", c gray53",
"< c gray58",
"1 c gray63",
"2 c #AFAFAF",
"3 c #BCBCBC",
"4 c #FFDF8F",
"5 c #FFE39F",
"6 c #FFE8AF",
"7 c #FFECBF",
"8 c gray79",
"9 c #D7D7D7",
"0 c #FFF1CF",
"q c #FFF5DF",
"w c #E4E4E4",
"e c #FFFAEF",
"r c #F1F1F1",
"t c white",
"y c None",
/* pixels */
"yyyyyyyyyyyyyyyyyyyyyyyyyyyyyyyyyyyyyyyyyyyyyyyyyyyyyyyyyyyyyyyy",
"yyyyyyyyyyyyyyyyyyyyyyyyyyyyyyyyyyyyyyyyyyyyyyyyyyyyyyyyyyyyyyyy",
"yyyyyyyyyyyyyyyyyyyyyyyyyyyyyyyyyyyyyyyyyyyyyyyyyyyyyyyyyyyyyyyy",
"yyyyyyyyyyyyyyyyyyyyyyyyyyyyyyyyyyyyyyyyyyyyyyyyyyyyyyyyyyyyyyyy",
"yyyyyyyyyyyyyyyyyyyyyyyyyyyyyyyyyyyyyyyyyyyyyyyyyyyyyyyyyyyyyyyy",
"yyyyyyyyyyyyyyyyyyyyyyyyyyyyyyyyyyyyyyyyyyyyyyyyyyyyyyyyyyyyyyyy",
"yyyyyyyyyyyyyyyyyyyyyyyyyyyyyyyyyyyyyyyyyyyyyyyyyyyyyyyyyyyyyyyy",
"yyyyyyyyyyyyyyyyyyyyyyyyyyyyyyyyyyyyyyyyyyyyyyyyyyyyyyyyyyyyyyyy",
"yyyyyyyyyyyyyyyyyyyyyyyyyyyyyyyyyyyyyyyyyyyyyyyyyyyyyyyyyyyyyyyy",
"yyyyyyyyyyyyyyyyyyyyyyyyyyyyyyyyyyyyyyyyyyyyyyyyyyyyyyyyyyyyyyyy",
"yyyyyyyyyyyyyyyyyyyyyyyyyyyyyyyyyyyyyyyyyyyyyyyyyyyyyyyyyyyyyyyy",
"yyyyyyyyyyyyyyyyyyyyyyyyyyyyyy   .   yyyyyyyyyyyyyyyyyyyyyyyyyyy",
"yyyyyyyyyyyyyyyyyyyyyyyyy...............yyyyyyyyyyyyyyyyyyyyyyyy",
"yyyyyyyyyyyyyyyyyyyyyyyy..+,<<8888881+... yyyyyyyyyyyyyyyyyyyyyy",
"yyyyyyyyyyyyyyyyyyyy  ...,rttttttttttt3#... yyyyyyyyyyyyyyyyyyyy",
"yyyyyyyyyyyyyyyyyy.....@9tttttttttttttttw,...yyyyyyyyyyyyyyyyyyy",
"yyyyyyyyyyyyyyyyy .o2wttttttttttttttttttttw@..yyyyyyyyyyyyyyyyyy",
"yyyyyyyyyyyyyyyyy.ortttttttttttttttttttttttt#..yyyyyyyyyyyyyyyyy",
"yyyyyyyyyyyyyyyy..9ttttttt6>>>>>57qtttttttttt@..yyyyyyyyyyyyyyyy",
"yyyyyyyyyyyyyyy..<ttttttt;$$$$$$$$$$&-0ttttttrO..yyyyyyyyyyyyyyy",
"yyyyyyyyyyyyyy .@tttttte*$$$$$$$$$$$$$$0ttttttr@..yyyyyyyyyyyyyy",
"yyyyyyyyyyyyyy.Xrttttt0%$$$$$$$$$$$$$$$$5ttttttro.yyyyyyyyyyyyyy",
"yyyyyyyyyyyyy .<tttttt*$$$$$$$$$$$$$$$$$$4tttttt3..yyyyyyyyyyyyy",
"yyyyyyyyyyyy .Xrttttt:$$$$$$$$$$$$$$$$$$$$;ettttr..yyyyyyyyyyyyy",
"yyyyyyyyyyyy..1ttttt6$$$$$$$$$$$$$$$$$$$$$$*etttt@..yyyyyyyyyyyy",
"yyyyyyyyyyyy.otttttq$$$$$$$$$$$$$$$$$$$$$$$$;tttt2..yyyyyyyyyyyy",
"yyyyyyyyyyy .<ttttt;$$$$$$$$$$$$$$$$$$$$$$$$%ettttX.yyyyyyyyyyyy",
"yyyyyyyyyyy .8tttte$$$$$$$$$$$$$$$$$$$$$$$$$$4tttt<..yyyyyyyyyyy",
"yyyyyyyyyyy .8tttt7$$$$$$$$$$$$$$$$$$$$$$$$$$*ttttr..yyyyyyyyyyy",
"yyyyyyyyyyy..ttttt>$$$$$$$$$$$$$$$$$$$$$$$$$$$ttttt..yyyyyyyyyyy",
"yyyyyyyyyyy..ttttt;$$$$$$$$$$$$$$$$$$$$$$$$$$$ttttt..yyyyyyyyyyy",
"yyyyyyyyyyy..ttttt=$$$$$$$$$$$$$$$$$$$$$$$$$$$ttttt..yyyyyyyyyyy",
"yyyyyyyyyyy..9tttt=$$$$$$$$$$$$$$$$$$$$$$$$$$&ttttt..yyyyyyyyyyy",
"yyyyyyyyyyy .8tttt=$$$$$$$$$$$$$$$$$$$$$$$$$$;ttttt..yyyyyyyyyyy",
"yyyyyyyyyyy .3tttt:$$$$$$$$$$$$$$$$$$$$$$$$$$4ttttt..yyyyyyyyyyy",
"yyyyyyyyyyy .,tttt0$$$$$$$$$$$$$$$$$$$$$$$$$$qtttt9. yyyyyyyyyyy",
"yyyyyyyyyyyy.+ttttt$$$$$$$$$$$$$$$$$$$$$$$$$$ttttt#..yyyyyyyyyyy",
"yyyyyyyyyyyy..ttttt=$$$$$$$$$$$$$$$$$$$$$$$$=ttttw..yyyyyyyyyyyy",
"yyyyyyyyyyyy .8tttt>$$$$$$$$$$$$$$$$$$$$$$$$5tttt#. yyyyyyyyyyyy",
"yyyyyyyyyyyy..#tttt5$$$$$$$$$$$$$$$$$$$$$$$;ttttrX.yyyyyyyyyyyyy",
"yyyyyyyyyyyyy..rtttt&$$$$$$$$$$$$$$$$$$$$$;ttttt<. yyyyyyyyyyyyy",
"yyyyyyyyyyyyy .<tttte*$$$$$$$$$$$$$$$$$$$*etttt3..yyyyyyyyyyyyyy",
"yyyyyyyyyyyyyy.X9ttttt>$$$$$$$$$$$$$$$$$&ettttwX.yyyyyyyyyyyyyyy",
"yyyyyyyyyyyyyyy.o9ttttt0;$$$$$$$$$$$$$$*0ttttt+. yyyyyyyyyyyyyyy",
"yyyyyyyyyyyyyyy .Ortttttt5;=%$$$$$$$$&5tttttt<. yyyyyyyyyyyyyyyy",
"yyyyyyyyyyyyyyyy..Ortttttttttte777770ttttttt8..yyyyyyyyyyyyyyyyy",
"yyyyyyyyyyyyyyyyy..OrttttttttttttttttttttttrO.yyyyyyyyyyyyyyyyyy",
"yyyyyyyyyyyyyyyyyy .O9tttttttttttttttttttt8X..yyyyyyyyyyyyyyyyyy",
"yyyyyyyyyyyyyyyyyyy .X2tttttttttttttttttw@.. yyyyyyyyyyyyyyyyyyy",
"yyyyyyyyyyyyyyyyyyyy ..,tttttttttttttt91X..yyyyyyyyyyyyyyyyyyyyy",
"yyyyyyyyyyyyyyyyyyyyyy..o18rtttttw83<@...yyyyyyyyyyyyyyyyyyyyyyy",
"yyyyyyyyyyyyyyyyyyyyyyy ............... yyyyyyyyyyyyyyyyyyyyyyyy",
"yyyyyyyyyyyyyyyyyyyyyyyyy. ......   yyyyyyyyyyyyyyyyyyyyyyyyyyyy",
"yyyyyyyyyyyyyyyyyyyyyyyyyyyyyyyyyyyyyyyyyyyyyyyyyyyyyyyyyyyyyyyy",
"yyyyyyyyyyyyyyyyyyyyyyyyyyyyyyyyyyyyyyyyyyyyyyyyyyyyyyyyyyyyyyyy",
"yyyyyyyyyyyyyyyyyyyyyyyyyyyyyyyyyyyyyyyyyyyyyyyyyyyyyyyyyyyyyyyy",
"yyyyyyyyyyyyyyyyyyyyyyyyyyyyyyyyyyyyyyyyyyyyyyyyyyyyyyyyyyyyyyyy",
"yyyyyyyyyyyyyyyyyyyyyyyyyyyyyyyyyyyyyyyyyyyyyyyyyyyyyyyyyyyyyyyy",
"yyyyyyyyyyyyyyyyyyyyyyyyyyyyyyyyyyyyyyyyyyyyyyyyyyyyyyyyyyyyyyyy",
"yyyyyyyyyyyyyyyyyyyyyyyyyyyyyyyyyyyyyyyyyyyyyyyyyyyyyyyyyyyyyyyy",
"yyyyyyyyyyyyyyyyyyyyyyyyyyyyyyyyyyyyyyyyyyyyyyyyyyyyyyyyyyyyyyyy",
"yyyyyyyyyyyyyyyyyyyyyyyyyyyyyyyyyyyyyyyyyyyyyyyyyyyyyyyyyyyyyyyy",
"yyyyyyyyyyyyyyyyyyyyyyyyyyyyyyyyyyyyyyyyyyyyyyyyyyyyyyyyyyyyyyyy",
"yyyyyyyyyyyyyyyyyyyyyyyyyyyyyyyyyyyyyyyyyyyyyyyyyyyyyyyyyyyyyyyy"
};
