/* XPM */
static char *result[] = {
/* columns rows colors chars-per-pixel */
"64 64 50 1 ",
"  c gray16",
". c #2A2A2A",
"X c #353535",
"o c #373737",
"O c #3D3E3E",
"+ c #444444",
"@ c #454547",
"# c #4C4D4E",
"$ c #515151",
"% c #505152",
"& c #555656",
"* c #575859",
"= c #5F5F5F",
"- c #6C6C6C",
"; c #6E7072",
": c #77797B",
"> c gray53",
", c #8F9090",
"< c #909396",
"1 c gray58",
"2 c #94989B",
"3 c #999C9F",
"4 c gray63",
"5 c #A3A5A7",
"6 c #AFAFAF",
"7 c #B2B7BB",
"8 c #B6B7B8",
"9 c #B7B7B8",
"0 c #B6BBBF",
"q c #BCBCBC",
"w c #BBC0C3",
"e c #C0C4C7",
"r c #C4C5C5",
"t c #C5C9CC",
"y c gray79",
"u c #CACDD0",
"i c #CED2D4",
"p c #D3D6D8",
"a c #D8DBDD",
"s c #DDDFE1",
"d c #E2E4E5",
"f c #E4E4E4",
"g c #E6E8E9",
"h c #EBEDEE",
"j c #F1F1F1",
"k c #F0F1F2",
"l c #F5F6F6",
"z c gray98",
"x c white",
"c c None",
/* pixels */
"cccccccccccccccccccccccccccccccccccccccccccccccccccccccccccccccc",
"c.....................             cccc@*X                .....c",
"c.....$>1-o....................................................c",
"c..xxxxxxxxxxxxxxxxxxxyyy8<3yyyyy9:;;;;,1qyyyyyyyyyyyyyy5<axx..c",
"c..xxxxxxxxxxxxxxxxxxxxxxxw7sxxka0777uhxxxxxxxxxxxxxxxxl77kxx..c",
"c..xxxxxxxxxxxxxxxxxxxxxxxa70sw7770alxxxxxxxxxxxxxxxxxxi7txxx..c",
"c..yxxxxxxxxxxxxxxxxxxxxxxxe7777udxxxxxxxxxxxxxxxxxxxxxw7dxxx..c",
"c .4xxxxxxxxxxxxxxxxxxxxxxk070dzxxxxxxxxxxxxxxxxxxxxxxk70xxxx..c",
"cc.1xxxxxxxxxxxxxxxxxxxxxzw7wlxxxxxxxxxxxxxxxxxxxxxxxxd7uxxxx..c",
"c .1xxxxxxxxxxxxxxxxxxxxze7ezxxxxxxxxxxxxxxxxxxxxxxxxxa7axxxx..c",
"c .yxxxxxxxxxxxxxxxxxxxze7wzxxxxxxxxxxxxxxxxxxxxxxxxxxa7axxxx..c",
"cO.rxxxxxxxxxxxxxxxxxxze70kxxxxxxxxxxxxxxxxxxxxxxxxxxxa7axxxx..c",
"cO.<pxxxxxxxxxxxxxxxxze70kxxxxxxxxxxxxxxxxxxxxxxxxxxxxa7axxxx..c",
"c .<7elxxxxxxxxxxxxxze70kxxxxxxxxxxxxxxxxxxxxxxxxxxxxxi7axxxx..c",
"c .ru77ughxxxxkhhgapw70kxxxxxxxxxxxxxxxxxxxxxxxxxxxxxz07kxxxx..c",
"c .qxdw7777ew777777777ezxxxxxxxxxxxxxxxxxxxxxxxxxxxxxs7exxxxx..c",
"cc.1xxzsuw77770ttuaag07ezxxxxxxxxxxxxxxxxxxxxxxxxxxxxw7dxxxxj..c",
"cc.1xxxxxxkhhlxxxxxxxk07whxxxxxxxxxxxxxxxxxxxxxxxxxht77xxxxx4. c",
"cc.1xxxxxxxxxxxxxxxxxxkw77egxxxxxxxxxxxxxxxxxxxxzse7777tzxxx1.cc",
"c .1xxxxxxxxxxxxxxxxxxxzi777pxxxxxxxxxxxxxxxxxxg0770aht70gxx4.cc",
"c..4yyy11111114yjxxxxxxxxlu77pxxxxxxxxxxxxxxzdw777pxxfy5<2yy4. c",
"c................+-16yyyy>=%##$=111111-===o...###&====........ c",
"c..   .ccccccc ..........................................      c",
"ccccccccccccccccccc       cccccccccccccccccccccccccccccccccccccc",
"cccccccccccccccccccccccccccccccccccccccccccccccccccccccccccccccc",
"cccccccccccccccccccccccccccccccccccccccccccccccccccccccccccccccc",
"cccccccccccccccccccccccccccccccccccccccccccccccccccccccccccccccc",
"cccccccccccccccccccccccccccccccccccccccccccccccccccccccccccccccc",
"cccccccccccccccccccccccccccccccccccccccccccccccccccccccccccccccc",
"cccccccccccccccccccccccccccccccccccccccccccccccccccccccccccccccc",
"cccccccccccccccccccccccccccccccccccccccccccccccccccccccccccccccc",
"cccccccccccccccccccccccccccccccccccccccccccccccccccccccccccccccc",
"cccccccccccccccccccccccccccccccccccccccccccccccccccccccccccccccc",
"cccccccccccccccccccccccccccccccccccccccccccccccccccccccccccccccc",
"cccccccccccccccccccccccccccccccccccccccccccccccccccccccccccccccc",
"cccccccccccccccccccccccccccccccccccccccccccccccccccccccccccccccc",
"cccccccccccccccccccccccccccccccccccccccccccccccccccccccccccccccc",
"cccccccccccccccccccccccccccccccccccccccccccccccccccccccccccccccc",
"cccccccccccccccccccccccccccccccccccccccccccccccccccccccccccccccc",
"cccccccccccccccccccccccccccccccccccccccccccccccccccccccccccccccc",
"cccccccccccccccccccccccccccccccccccccccccccccccccccccccccccccccc",
"cccccccccccccccccccccccccccccccccccccccccccccccccccccccccccccccc",
"cccccccccccccccccccccccccccccccccccccccccccccccccccccccccccccccc",
"cccccccccccccccccccccccccccccccccccccccccccccccccccccccccccccccc",
"cccccccccccccccccccccccccccccccccccccccccccccccccccccccccccccccc",
"cccccccccccccccccccccccccccccccccccccccccccccccccccccccccccccccc",
"cccccccccccccccccccccccccccccccccccccccccccccccccccccccccccccccc",
"cccccccccccccccccccccccccccccccccccccccccccccccccccccccccccccccc",
"cccccccccccccccccccccccccccccccccccccccccccccccccccccccccccccccc",
"cccccccccccccccccccccccccccccccccccccccccccccccccccccccccccccccc",
"cccccccccccccccccccccccccccccccccccccccccccccccccccccccccccccccc",
"cccccccccccccccccccccccccccccccccccccccccccccccccccccccccccccccc",
"cccccccccccccccccccccccccccccccccccccccccccccccccccccccccccccccc",
"cccccccccccccccccccccccccccccccccccccccccccccccccccccccccccccccc",
"cccccccccccccccccccccccccccccccccccccccccccccccccccccccccccccccc",
"cccccccccccccccccccccccccccccccccccccccccccccccccccccccccccccccc",
"cccccccccccccccccccccccccccccccccccccccccccccccccccccccccccccccc",
"cccccccccccccccccccccccccccccccccccccccccccccccccccccccccccccccc",
"cccccccccccccccccccccccccccccccccccccccccccccccccccccccccccccccc",
"cccccccccccccccccccccccccccccccccccccccccccccccccccccccccccccccc",
"cccccccccccccccccccccccccccccccccccccccccccccccccccccccccccccccc",
"cccccccccccccccccccccccccccccccccccccccccccccccccccccccccccccccc",
"cccccccccccccccccccccccccccccccccccccccccccccccccccccccccccccccc",
"cccccccccccccccccccccccccccccccccccccccccccccccccccccccccccccccc"
};
