/* XPM */
static char *result[] = {
/* columns rows colors chars-per-pixel */
"64 64 43 1 ",
"  c gray16",
". c #2A2A2A",
"X c #373737",
"o c #444444",
"O c #4C4D4E",
"+ c #515151",
"@ c #505152",
"# c #555656",
"$ c #5F5F5F",
"% c #5D5E60",
"& c #656769",
"* c #6C6C6C",
"= c #797979",
"- c gray53",
"; c #909396",
": c gray58",
"> c gray63",
", c #A3A5A7",
"< c #AFAFAF",
"1 c #B1B3B4",
"2 c #B2B7BB",
"3 c #B6BBBF",
"4 c #BCBCBC",
"5 c #BBC0C3",
"6 c #C0C4C7",
"7 c #C5C9CC",
"8 c gray79",
"9 c #CACDD0",
"0 c #CED2D4",
"q c #D7D7D7",
"w c #D3D6D8",
"e c #D8DBDD",
"r c #DDDFE1",
"t c #E2E4E5",
"y c #E4E4E4",
"u c #E6E8E9",
"i c #EBEDEE",
"p c #F1F1F1",
"a c #F0F1F2",
"s c #F5F6F6",
"d c gray98",
"f c white",
"g c None",
/* pixels */
"gggggggggggggggggggggggggggggggggggggggggggggggggggggggggggggggg",
"g.            .....................  ggggg   .............   ..g",
"g................................................o$@O#$........g",
"g..88888881;,8ffffffffffffffffffffq8>:::::888qfffffe29ff88888..g",
"g..fffffffe2effffffffffffffffffffffffffffffffffffffs23fffffff..g",
"g.Xfffffffr29fffffffffffffffffffffffffffffffffffffff22fffffff..g",
"g.$fffffffi27fffffffffffffffffffffffffffffffffffffff22fffffff..g",
"..:fffffffs23ffffffffffffffffffffffffffffffffffffffa26fffffff..g",
" .8ffffffff22ffffffffffffffffffffffffffffffffffffff72efffffff..g",
" .4ffffffff22fffffffffffffffffffffffffffffffffffffd25ffffffff..g",
" .=ffffffff72sfffdffffffffffffffffffffffffffffffffi27ffffffff..g",
"g.$ffffffff222222277777722222277weeeeee77777weee77625ffffffff..g",
"g.$ffffffff222222222222222222222222222222222222222222ffffffff..g",
"g.$ffffffff22ffffiiiiiiiffffffiueeeeeeeuiiiueeeeuii32dfffffff..g",
"g.$ffffffff22ffffffffffffffffffffffffffffffffffffff62afffffff..g",
"g.$ffffffff22ffffffffffffffffffffffffffffffffffffff22ffffffff..g",
"g.-ffffffff22ffffffffffffffffffffffffffffffffffffff22ffffffff..g",
"g.*ffffffff22ffffffffffffffffffffffffffffffffffffff22fffffff8. g",
"g.$ffffffff22ffffffffffffffffffffffffffffffffffffff22fffffff4. g",
"g..ffffffff22ffffffffffffffffffffffffffffffffffffff32fffffff:.gg",
"g..qfffffff22ffffdffffffdffffffffffffffffffffffffff72fffffff*.gg",
"g .>fffffff2222222222222259eeee0777777777777777732222fffffff$.gg",
"gg.:fffffff222222222222222222222222222222222222222222fffffff$.gg",
"gg.:fffffff72ffffffffffffireeeeeiiiiiiiiiiiiiiiiaff22fffffff$.gg",
"gg.:fffffft52ffffffffffffffffffffffffffffffffffffff62iffffff=.gg",
"gg.:ffffff725ffffffffffffffffffffffffffffffffffffff92tffffff:.gg",
"g..:ffffffw2uffffffffffffffffffffffffffffffffffffffe2effffff:.gg",
"g .8ffffffi23dfffffffffffffffffffffffffffffffffffffe2effffff>..g",
"g .8fffffff32rfffffffffffffffffffffffffffffffffffff02rffffff8. g",
"g .8fffffff020fffffffffffffffffffffffffffffffffffft23dffffffy..g",
"g .8fffffff029ffdteiffffffffffffffffffffffffffffdfe2wffffffff..g",
"g..8fffffff52222222222222222222222227euiiu02222222226dfffffffo.g",
"g..pfffffff222225775222222222222222222222222677722222tfffffff$.g",
"g.Xffffffff22ffffffffffffffffffffffste7777wrdffffff02efffffff=.g",
"..=ffffffff52ifffffffffffffffffffffffffffffffffffffe2efffffff:.g",
" .4ffffffff92rffffffffffffffffffffffffffffffffffffd62ifffffff:.g",
" .8ffffffffe2effffffffffffffffffffffffffffffffffffr29ffffffff:.g",
" .8ffffffffe2effffffffffffffffffffffffffffffffffff92effffffff*.g",
" .>ffffffffe2effffffffffffffffffffffffffffffffffff029ffffffff$.g",
"g.=ffffffff72effffffffffffffffffffffffffffffffffffu23ffffffff$.g",
"g.+ffffffff62ifffffffffffffffffffffffffffffsiiiiiii22ffffffff..g",
"g..ffffffff22677777767eeeeee9777322277777777222222222ffffffff..g",
"g..qfffffff222222222222222222222222222222222226777732afffffff..g",
"g .8fffffff22iiiiiiaiieeeeeetiiidfffiiiiiiiifffffff72ifffffff..g",
"g .8fffffff22ffffffffffffffffffffffffffffffffffffff72ifffffff..g",
"g .8fffffff22ffffffffffffffffffffffffffffffffffffff72ifffffff..g",
"g .8fffffff22ffffffffffffffffffffffffffffffffffffff72ifffffff..g",
"g .8fffffff22ffffffffffffffffffffffffffffffffffffff32dfffffff..g",
"g .8fffffff22ffffffffffffffffffffffffffffffffffffff22fffffffq..g",
"g .4fffffff22ffffffffffffffffffffffffffffffffffffff22fffffff8. g",
"g .-fffffff22fffffffffffffffffffffffffffffffffffffi25fffffff8. g",
"gg.$fffffff&O$*:>8888888888<$X......+$$$$$$o........%fffffff4. g",
"gg.$ffffffy..........................................fffffff:.gg",
"gg.=ffffff8..ggg             gggggggggggggggggggggg.+fffffff:.gg",
"g .:ffffff8..gggggggggggggggggggggggggggggggggggggg.$fffffff:.gg",
"g .:ffffffpX.gggggggggggggggggggggggggggggggggggggg.:fffffff:.gg",
"gg.:fffffff$.gggggggggggggggggggggggggggggggggggggg.:fffffff<. g",
"gg.:fffffff$.gggggggggggggggggggggggggggggggggggggg.:fffffffp..g",
"gg.*fffffffX.gggggggggggggggggggggggggggggggggggggg.:ffffffff..g",
"gg.$fffffff..gggggggggggggggggggggggggggggggggggggg.=ffffffff..g",
"gg.-fffffff..gggggggggggggggggggggggggggggggggggggg.$ff88888f..g",
"g .o$$$$.....gggggggggggggggggggggggggggggggggggggg............g",
"g........... gggggggggggggggggggggggggggggggggggggg ...     ...g",
"gggggggggggggggggggggggggggggggggggggggggggggggggggggggggggggggg"
};
