/* XPM */
static char *bd199a70acc34a50aa7473ec9003e19dpET8p19WSMzrP2ZW[] = {
/* columns rows colors chars-per-pixel */
"64 64 134 2 ",
"   c #1A1B1E",
".  c #1B1D20",
"X  c #1E2024",
"o  c #212327",
"O  c #2D2220",
"+  c #2B2822",
"@  c #26282A",
"#  c #28292A",
"$  c #3D2624",
"%  c #3E2C2A",
"&  c #32332F",
"*  c #36383B",
"=  c #4F2327",
"-  c #482626",
";  c #412828",
":  c #5C2E2F",
">  c #5D3433",
",  c #6B2C32",
"<  c #663839",
"1  c #703238",
"2  c #763F42",
"3  c #7D3D43",
"4  c #474645",
"5  c #504E4A",
"6  c #5E4F4D",
"7  c #4D4F52",
"8  c #525256",
"9  c #58595D",
"0  c #6F4A49",
"q  c #7B4143",
"w  c #7B4648",
"e  c #6F5554",
"r  c #725453",
"t  c #77585B",
"y  c #7E5F5F",
"u  c #6A6C6C",
"i  c #796C6A",
"p  c #78797A",
"a  c #824549",
"s  c #8F4449",
"d  c #93454B",
"f  c #8F4E56",
"g  c #955058",
"h  c #A64F59",
"j  c #B64E59",
"k  c #A15358",
"l  c #B4555D",
"z  c #B55661",
"x  c #BD5B65",
"c  c #816161",
"v  c #8B7B7A",
"b  c #F65E5E",
"n  c #F95C5E",
"m  c #F3615C",
"M  c #C75661",
"N  c #C65860",
"B  c #D45C6B",
"V  c #DC5C6C",
"C  c #FE5765",
"Z  c #F55D63",
"A  c #FB5A63",
"S  c #FD5768",
"D  c #F45D6D",
"F  c #FB596A",
"G  c #F25D71",
"H  c #D1646D",
"J  c #EF646B",
"K  c #F1636C",
"L  c #E56472",
"P  c #EF6371",
"I  c #E26C7C",
"U  c #F26573",
"Y  c #898786",
"T  c #958688",
"R  c #949494",
"E  c #9A9695",
"W  c #9F9E9C",
"Q  c #A38182",
"!  c #B69F9E",
"~  c #AFA19E",
"^  c #A7A6A5",
"/  c #ACA9A7",
"(  c #A7A8A9",
")  c #A8ABAF",
"_  c #B8A6A8",
"`  c #B8B0AE",
"'  c #B3B3B3",
"]  c #BCB5B3",
"[  c #B6BABD",
"{  c #B9BBBE",
"}  c #C7BABB",
"|  c #C0C1BE",
" . c #BDBFC1",
".. c #BDC1C3",
"X. c #C1C3C5",
"o. c #CBC2C0",
"O. c #C5C7C8",
"+. c #CBCCCC",
"@. c #D6CDCC",
"#. c #D3D1CF",
"$. c #CDCFD1",
"%. c #CED2D3",
"&. c #D3D4D6",
"*. c #D3D6D9",
"=. c #D6D9DC",
"-. c #DADBDD",
";. c #D7DCE0",
":. c #DBDEE0",
">. c #DEE1E3",
",. c #E2E3E5",
"<. c #E9E2E2",
"1. c #EFEAE7",
"2. c #E4E6E9",
"3. c #E6E9EB",
"4. c #EAEBEC",
"5. c #EEF0EF",
"6. c #F3F1EE",
"7. c #ECEEF1",
"8. c #EEF0F3",
"9. c #EEF2F4",
"0. c #F1F2F2",
"q. c #F3F3F3",
"w. c #F1F2F4",
"e. c #F2F4F6",
"r. c #F4F4F5",
"t. c #F6F7F7",
"y. c #F5F7F9",
"u. c #F7F8F9",
"i. c #F9F9FA",
"p. c #FBFBFB",
"a. c #F8FBFD",
"s. c #FAFBFC",
"d. c #FBFDFE",
"f. c gray99",
/* pixels */
"f.i.t.i.i.i.i.i.i.i.i.i.i.i.i.i.i.i.i.i.i.i.i.i.i.i.i.i.t.2.t.i.i.i.i.i.i.i.i.i.i.i.i.u.u.u.u.t.0.:.*.*.*.*.*.=.4.0.e.t.e.t.&.@ ",
"u.>.=.=.:.*.-.=.=.=.-.-.-.-.-.-.-.-.-.-.-.-.-.-.=.>.=.=.-.-.-.-.:.-.=.-.-.=.=.-.-.-.-.-.-.-.=.=.=.=.=.=.*.=.*.*.=.=.=.=.=.=.{ X ",
"i.=.=.:.=.:.=.=.-.-.-.-.-.-.-.-.-.-.-.-.-.-.-.-.-.-.-.-.-.-.-.=.-.-.=.=.=.=.=.=.=.=.-.-.-.=.-.:.:.=.>.,.>.>.,.-.-.-.=.-.-.%.... ",
"i.=.*.7.9.9.7.e.e.9.w.w.0.w.t.i.i.i.i.i.i.i.i.i.i.y.i.i.t.i.i.i.i.u.e.9.7.4.3.3.3.4.7.9.e.e.u.u.u.u.u.u.u.e.i.y.8.e.e.8.9.=.[   ",
"e.=.:.u.d.d.d.d.f.f.f.f.f.f.f.f.f.f.f.f.f.f.f.f.f.f.f.d.f.f.f.f.f.f.f.d.d.d.f.d.d.d.f.f.d.d.d.d.d.d.d.f.d.f.f.f.f.f.f.u.y.:.{   ",
":.=.-.u.d.d.d.d.f.f.f.f.f.f.f.f.f.f.f.f.f.f.f.f.f.f.f.f.f.f.f.f.f.i.s.f.f.f.f.f.f.f.f.f.f.f.f.f.f.f.d.d.s.f.f.f.f.f.f.f.u.-.[   ",
"*.=.>.u.d.f.f.d.s.f.f.f.f.f.f.f.f.f.f.f.f.f.f.f.f.f.i.i.f.i.f.f.u.4.4.f.f.f.f.f.f.f.f.f.f.f.f.f.f.f.d.f.f.f.i.f.f.f.f.s.i.-.{   ",
"*.=.4.s.d.d.s.7.4.u.f.f.f.f.f.f.f.f.f.f.f.f.f.f.f.f.f.f.i.f.f.f.t.-.,.f.f.f.f.f.f.f.f.f.f.f.f.f.f.d.s.d.d.f.f.f.f.i.f.f.i.-.{   ",
"*.-.8.d.f.f.u.-.-.y.d.f.f.f.f.f.f.f.f.f.f.f.f.f.f.f.f.f.f.f.f.f.t.-.,.i.f.f.f.f.f.f.f.f.f.f.f.f.s.3.,.i.f.f.f.f.f.f.f.f.i.-.{   ",
"*.=.4.d.f.f.w.=.:.i.f.f.f.f.f.f.f.f.f.f.f.f.f.f.f.f.f.f.f.f.f.f.t.,.,.i.f.f.f.f.f.f.f.f.f.f.f.f.i.,.-.e.f.f.f.f.f.f.f.f.i.-.{   ",
"*.=.3.d.f.f.8.*.-.i.f.f.f.f.f.f.f.f.f.f.f.f.f.f.f.f.f.f.f.f.f.f.f.t.t.f.f.f.f.f.f.f.f.f.f.f.f.f.i.,.-.0.f.f.f.f.f.f.f.f.i.-.{   ",
"*.*.,.i.f.f.w.-.-.e.f.f.f.f.f.f.f.f.f.f.f.f.f.f.f.f.f.f.f.f.f.f.f.f.f.f.f.f.f.f.f.f.f.f.f.i.i.f.i.>.-.0.f.f.f.f.f.f.f.f.i.-.{   ",
"*.*.,.i.f.f.u.3.,.t.f.f.f.f.f.f.f.f.f.f.f.f.f.f.f.f.f.f.f.f.f.f.f.f.f.f.f.f.f.f.f.f.f.f.i.4.4.f.i.=.=.u.f.f.f.f.f.f.f.f.i.-.{ # ",
"*.*.,.i.f.f.f.t.0.i.f.f.f.f.f.f.f.f.f.f.f.f.f.f.f.f.f.f.f.f.f.f.f.f.f.f.f.f.f.f.f.f.f.f.y.:.,.u.u.>.,.i.f.f.f.f.f.f.f.f.i.-.X.4 ",
"*.=.,.i.f.f.f.f.f.f.f.f.f.f.f.f.f.f.f.f.f.s.f.f.f.f.f.f.f.f.f.f.f.f.f.f.f.f.f.f.f.f.f.f.u.:.-.e.d.e.e.d.d.f.f.f.f.f.f.f.i.-.O.u ",
"=.=.,.i.f.f.f.f.f.f.f.f.f.f.f.f.f.f.f.s.7.7.i.f.f.f.f.f.f.f.f.f.f.f.f.f.f.f.f.f.f.f.f.f.i.>.-.0.f.d.d.f.f.f.f.f.f.f.f.f.i.-.+.R ",
"*.-.4.s.f.f.f.f.f.f.f.f.f.f.f.f.f.f.f.i.>.:.w.f.f.f.f.f.f.f.f.f.f.f.f.f.f.f.f.f.f.f.f.f.i.,.-.w.f.f.f.f.f.f.f.f.f.f.f.f.y.-.%.' ",
"*.=.,.s.f.f.f.f.f.f.f.f.f.f.f.f.f.f.f.s.:.=.4.d.f.f.f.f.f.f.f.f.f.f.f.f.f.f.f.f.f.f.f.f.i.,.-.t.f.f.f.f.f.f.f.f.f.f.f.f.e.-.&.$.",
"-.=.,.i.f.f.f.f.f.f.f.f.f.f.f.f.f.f.f.u.:.-.4.d.f.f.f.f.f.f.f.f.f.f.f.f.f.f.f.f.f.f.f.f.i.4.4.f.f.f.f.f.f.f.f.f.f.f.f.f.8.-.*.,.",
"=.*.-.i.f.f.f.f.f.f.f.f.f.f.f.i.i.d.d.9.-.:.e.f.f.i.f.f.f.f.f.f.f.f.f.f.f.f.f.f.f.f.f.f.f.f.f.f.f.f.f.f.f.f.f.f.f.f.f.s.4.*.=.4.",
"t.-.-.8.f.f.f.f.f.f.f.f.f.f.f.t.3.e.s.3.=.>.u.d.e.4.e.f.f.f.f.f.f.f.f.f.f.f.f.f.f.f.f.f.f.f.f.f.f.f.f.f.f.f.f.f.f.f.f.s.2.*.=.0.",
"i.-.*.7.f.f.f.f.f.f.f.f.f.f.i.0.-.3.u.4.-.>.u.d.4.-.4.d.f.f.f.f.f.f.f.f.f.f.f.f.f.f.f.f.f.f.f.f.f.f.f.f.f.f.f.f.f.f.f.i.,.&.-.t.",
"i.-.-.4.i.f.f.f.f.f.f.f.f.f.f.0.=.2.u.8.-.>.u.d.3.-.4.f.f.f.f.f.f.f.f.f.f.f.f.f.f.f.f.f.f.f.f.f.f.f.f.f.f.f.f.f.f.f.f.i.,.*.-.t.",
"i.-.=.4.f.i.f.f.f.f.f.f.f.f.f.8.-.3.u.8.-.:.u.s.3.=.4.f.f.f.f.f.f.f.f.f.f.f.f.f.f.f.f.f.f.f.f.f.f.f.f.f.f.f.f.f.f.f.f.i.,.*.-.t.",
"i.=.=.4.d.f.f.f.f.f.f.f.f.f.i.>.=.8.d.u.3.3.i.d.4.=.4.i.f.f.f.f.f.f.f.f.f.f.f.f.f.f.f.f.f.f.f.f.f.f.f.f.f.f.f.f.f.f.f.d.4.*.=.e.",
"i.=.=.4.d.f.f.f.f.f.f.f.f.f.t.-.-.e.d.d.s.u.d.d.4.-.4.i.f.f.f.f.f.f.t.t.f.f.f.f.f.f.f.f.f.f.f.f.f.f.f.f.f.f.f.f.f.f.f.i.4.-.=.0.",
"i.=.=.4.f.f.f.f.f.f.f.f.f.f.i.4.7.s.d.f.f.f.f.f.0.4.0.f.i.<.@.o.} _ T Y +.t.f.f.f.f.f.f.f.f.f.f.f.f.f.f.f.f.f.f.f.f.f.s.4.=.*.4.",
"i.=.=.8.f.f.f.f.f.f.f.f.f.f.f.i.d.f.f.f.f.f.f.f.d.i.f.i.1.Q 2 q 3 , = % 4 R 5.f.f.f.f.f.f.f.f.f.f.f.f.f.f.f.f.f.f.f.f.f.4.-.=.7.",
"i.-.-.w.f.f.f.f.f.f.f.f.f.f.f.f.f.f.f.f.f.f.f.f.f.f.f.6.! s l N M j d : % & ' f.f.f.f.f.f.f.f.f.f.f.f.f.f.f.f.f.f.f.f.f.w.=.=.8.",
"i.-.-.w.f.f.f.f.f.f.f.f.f.f.f.f.f.f.f.f.f.f.f.f.f.f.t.~ q H U K J P L z < + ^ i.f.f.f.f.f.f.f.f.f.f.f.f.f.f.f.f.f.i.f.f.w.-.*.%.",
"i.-.-.e.f.f.f.f.f.f.f.f.f.f.f.f.f.f.f.f.f.f.f.f.f.f.#.0 l U Z Z Z Z D L d $ W i.f.f.f.f.f.f.f.f.f.f.f.f.f.f.f.f.f.f.i.f.y.=.*.*.",
"t.-.-.t.f.f.f.f.f.f.f.f.f.f.f.f.f.f.f.f.f.f.f.f.f.f.] w V F A m b A S G z = W t.f.f.f.f.f.f.f.f.f.f.f.f.f.f.f.f.f.f.f.f.y.>.*.*.",
":.=.=.u.f.f.f.f.f.f.f.f.f.f.f.f.f.f.f.f.f.f.f.f.f.f.` a V S A m m A C G k ; ~ t.f.f.f.f.f.f.f.f.f.f.f.f.f.f.f.f.f.f.f.f.i.2.=.*.",
"=.=.:.u.f.f.f.f.f.f.f.f.f.f.f.f.f.f.f.f.f.f.f.f.f.f.] w B F A b n A D B 1 O ^ i.f.f.f.f.f.f.f.f.f.f.f.f.f.f.f.f.f.f.f.f.d.2.=.*.",
"*.*.2.d.f.f.f.f.f.f.f.f.f.f.f.f.f.f.f.f.f.f.f.f.f.f.+.r x G F C C F L d - 5 &.f.f.f.f.f.i.i.f.f.f.f.f.f.f.f.f.f.f.f.f.f.d.3.=.*.",
"*.=.8.d.f.f.f.f.f.f.f.f.f.f.f.f.f.f.f.f.f.f.f.f.f.f.0.v g I P D D L l > 4 W i.f.f.f.f.d.4.4.t.f.f.f.f.f.f.f.f.f.f.f.f.f.d.3.=.*.",
"*.=.e.d.f.f.f.f.f.f.f.f.f.f.f.f.f.f.f.f.f.f.f.f.f.f.t./ t f h l x k < 6 Y 4.f.f.f.f.f.i.,.-.8.f.f.f.f.f.f.i.t.f.f.f.f.f.d.3.=.*.",
"=.=.9.d.f.f.f.f.f.f.f.f.f.f.f.f.f.f.f.f.f.f.f.f.f.f.f.-./ v e y c r i E -.f.f.f.f.f.f.i.3.-.4.d.f.f.f.f.f.4.,.t.f.f.f.f.d.3.=.*.",
"*.=.4.d.f.f.f.f.f.f.f.f.f.f.f.f.f.f.f.f.f.f.f.f.f.f.f.f.5.&.+.-.#.' | ,.f.f.f.f.f.f.f.d.4.-.4.d.f.f.f.f.i.,.-.4.f.f.f.f.s.2.=.*.",
"*.=.2.u.f.f.f.f.f.f.f.f.f.f.f.f.f.f.f.f.f.f.f.f.f.f.f.f.f.f.i.f.i.0.t.f.f.f.f.f.f.f.f.i.4.-.4.d.f.s.i.i.i.4.-.4.f.f.f.f.s.,.=.=.",
"=.=.,.u.f.f.f.f.f.f.f.f.f.f.f.f.f.f.f.f.f.f.f.f.f.f.f.f.f.f.f.f.f.f.f.f.f.f.f.f.f.f.f.d.,.-.4.d.d.4.,.7.i.,.-.4.f.f.f.d.u.:.*.-.",
">.*.=.u.d.f.f.d.f.f.f.f.f.f.f.f.f.f.f.f.f.f.f.f.f.f.f.f.f.f.f.f.f.f.f.f.f.f.f.f.f.f.f.d.4.>.5.i.d.4.-.4.i.,.-.4.i.f.f.f.i.=.%.+.",
"t.-.-.e.f.f.i.f.f.f.f.f.f.f.f.f.f.f.f.f.f.f.f.f.f.f.f.f.f.f.f.f.f.f.f.f.f.f.f.f.f.f.f.f.t.0.i.f.d.4.-.4.t.,.-.4.i.i.f.f.i.-.>.0.",
"i.=.*.e.f.f.f.f.f.f.f.f.f.f.f.f.f.f.f.f.f.f.f.f.f.f.f.f.f.f.f.f.f.f.f.f.f.f.f.f.f.f.d.f.f.d.f.f.s.4.-.4.i.4.4.t.f.i.f.f.y.-.*.4.",
"i.=.=.8.f.f.f.f.f.f.f.0.5.i.f.f.f.f.f.f.f.f.f.f.f.f.f.f.f.f.f.f.f.f.f.f.f.f.f.f.f.f.f.f.f.f.f.d.d.3.-.4.f.i.i.f.f.f.f.f.u.:.-.-.",
"i.=.-.8.f.f.f.f.f.f.i.,.>.e.f.f.f.f.f.f.f.f.f.f.f.f.f.f.f.f.f.f.f.f.f.f.f.f.f.f.f.f.f.f.f.f.f.f.d.3.-.4.f.f.f.f.f.f.f.f.i.=.&.X.",
"i.-.-.8.f.f.f.f.f.f.i.,.-.0.f.f.f.f.f.f.f.f.f.f.f.f.f.f.f.f.f.f.f.f.f.f.f.f.f.f.f.f.f.f.f.f.f.f.d.e.4.w.f.f.f.f.f.f.f.i.y.-.&. .",
"i.=.=.w.f.f.f.f.f.i.i.,.-.0.f.f.f.f.f.f.f.f.f.f.f.f.f.f.f.f.f.f.f.f.f.f.f.f.f.f.f.f.f.f.f.f.f.f.f.f.d.f.f.f.f.f.f.f.f.f.u.=.*.%.",
"i.=.-.9.d.d.f.i.4.0.i.,.-.e.f.f.f.i.s.f.f.f.f.f.f.f.f.f.f.f.f.f.f.f.f.f.f.f.f.f.f.f.f.f.f.f.f.f.f.f.f.f.f.f.f.f.f.f.f.d.e.=.*.-.",
"i.=.=.4.d.d.f.e.:.,.e.,.-.w.f.f.i.,.,.u.f.f.f.f.f.f.f.f.f.f.f.f.f.f.f.f.f.f.f.f.f.f.f.f.f.f.f.f.f.f.f.f.f.f.f.f.f.f.f.d.e.-.=.4.",
"i.=.=.2.s.f.f.8.-.,.t.4.,.w.f.f.i.-.-.i.f.f.f.f.f.f.f.f.f.f.f.f.f.f.f.i.f.f.f.f.f.f.f.f.f.f.f.f.f.f.f.f.f.f.f.f.f.f.f.f.9.=.=.e.",
"i.=.*.,.i.f.f.8.-.,.i.t.0.i.f.f.i.-.:.i.s.f.f.f.f.f.f.f.f.f.f.f.f.f.4.,.t.f.f.f.f.f.f.f.f.f.f.f.f.f.f.f.f.f.f.f.f.f.f.f.8.=.;.u.",
"i.-.=.,.i.f.f.w.-.,.i.f.f.f.f.f.i.-.-.i.f.f.f.f.f.f.f.f.f.f.f.f.f.i.4.-.4.f.f.f.f.f.f.f.f.f.f.f.f.f.f.f.f.f.f.f.f.f.f.f.4.-.-.i.",
"i.-.-.2.d.f.f.i.4.0.f.f.f.f.f.f.i.,.,.i.f.f.f.f.f.f.f.f.f.f.f.f.f.f.4.-.3.f.f.f.f.f.f.f.f.f.f.f.f.f.f.f.f.f.f.f.f.f.f.f.4.-.-.y.",
"i.-.=.3.d.f.f.f.f.f.f.f.f.f.f.f.f.t.t.f.f.f.f.f.f.f.f.f.f.f.f.f.f.f.w.-.,.i.f.f.f.f.f.f.f.f.f.f.f.f.f.f.f.f.f.f.f.f.f.d.3.-.-.t.",
"i.:.=.4.d.f.f.f.f.f.f.f.f.f.f.f.f.f.f.f.f.f.f.f.f.f.f.f.f.f.f.f.f.f.0.-.,.i.f.f.f.f.f.f.f.f.f.f.f.f.f.f.f.f.f.f.f.f.f.d.2.-.-.0.",
"i.-.=.4.s.f.f.f.f.f.f.f.f.f.f.f.f.f.f.f.f.f.f.f.f.f.f.f.f.f.f.f.f.i.,.:.4.d.f.f.f.f.f.f.f.f.f.f.f.f.f.f.f.f.f.f.f.i.f.f.7.-.=.4.",
"i.-.=.4.s.f.f.f.f.f.f.f.f.f.f.i.f.f.f.f.f.f.f.f.f.f.f.f.f.f.f.f.f.f.u.4.i.f.f.f.f.f.s.f.f.f.f.s.f.f.f.f.f.f.f.f.f.f.f.i.e.-.-.4.",
"i.=.*.3.s.d.f.f.f.d.f.f.f.f.f.f.f.f.f.f.f.f.f.f.f.f.f.f.f.f.f.f.f.f.s.s.f.f.f.s.d.f.d.f.f.f.s.f.f.f.f.f.f.i.f.f.f.d.f.f.u.*.*.4.",
"i.=.=.2.u.d.d.f.f.f.d.d.d.d.f.f.f.f.f.f.f.f.f.f.f.f.f.f.f.f.f.f.f.d.f.d.f.f.d.f.f.f.d.f.f.f.d.f.f.f.f.f.f.i.d.f.d.i.f.i.u.-.-.4.",
"i.=.=.2.e.u.u.u.u.u.e.u.i.i.s.s.f.d.d.d.d.d.d.d.d.d.s.i.u.u.u.d.s.i.u.y.u.y.y.i.i.u.i.i.i.y.u.i.d.s.u.u.u.u.8.9.8.9.e.e.9.=.-.0.",
"i.:.*.=.>.>.-.=.-.-.:.:.,.,.3.7.9.9.9.9.8.7.7.4.3.3.2.2.>.>.>.>.,.-.-.-.-.-.-.-.-.-.-.=.-.-.-.,.>.,.2.2.>.=.-.=.-.=.=.:.=.*.-.&.",
"-.=.*.*.=.=.=.=.=.*.=.=.*.*.=.=.:.:.:.:.=.=.=.=.-.-.=.=.=.=.=.*.-.&.-.-.*.-.*.*.*.=.-.-.=.&.&.*.=.=.=.*.%.%.O.%.&.&.=.*... .) 9 ",
"* X.=.*.*.*.*.;.t.i.t.:.=.&.*.*.*.*.*.*.*.*.*.*.*.*.*.*.*.*.=.*.&.=.4.4.,.-.-.,.2.4.4.,.-.+.*.*.=.*.*.*.=.$.p ( +.-.,.O.7 X o 8 "
};
