/* XPM */
static char *ad38945f939740c7a4613f2b9c12058fsAyqO8SOMfmaGCfe[] = {
/* columns rows colors chars-per-pixel */
"64 64 122 2 ",
"   c #2D2220",
".  c #2B2822",
"X  c #3D2624",
"o  c #3E2C2A",
"O  c #32332F",
"+  c #422321",
"@  c #4F2327",
"#  c #412828",
"$  c #4E292A",
"%  c #5C2E2F",
"&  c #5D3433",
"*  c #6B2C32",
"=  c #603435",
"-  c #6B3B3C",
";  c #703238",
":  c #4D433F",
">  c #763F42",
",  c #7D3D43",
"<  c #494644",
"1  c #504E4A",
"2  c #5E4F4D",
"3  c #6F4A49",
"4  c #7B4143",
"5  c #7B4648",
"6  c #6F5554",
"7  c #725453",
"8  c #77585B",
"9  c #7E5F5F",
"0  c #796C6A",
"q  c #824549",
"w  c #8F4449",
"e  c #93454B",
"r  c #8F4E56",
"t  c #955058",
"y  c #A64F59",
"u  c #B64E59",
"i  c #A15358",
"p  c #B4555D",
"a  c #B55661",
"s  c #BD5B65",
"d  c #816161",
"f  c #8B7B7A",
"g  c #F65E5E",
"h  c #F95C5E",
"j  c #F3615C",
"k  c #C75661",
"l  c #C65860",
"z  c #D45C6B",
"x  c #DC5C6C",
"c  c #FE5765",
"v  c #F55D63",
"b  c #FB5A63",
"n  c #FD5768",
"m  c #F45D6D",
"M  c #FB596A",
"N  c #F25D71",
"B  c #D1646D",
"V  c #EF646B",
"C  c #F1636C",
"Z  c #E56472",
"A  c #EF6371",
"S  c #E26C7C",
"D  c #F26573",
"F  c #858181",
"G  c #8D8C8A",
"H  c #958688",
"J  c #969595",
"K  c #9A9695",
"L  c #9F9E9C",
"P  c #A38183",
"I  c #B69F9E",
"U  c #AFA29F",
"Y  c #A2A5A3",
"T  c #ABA6A6",
"R  c #ACA9A7",
"E  c #B8A6A8",
"W  c #B8B0AE",
"Q  c #B2B2B1",
"!  c #BCB5B4",
"~  c #C6B9B9",
"^  c #C0C1BE",
"/  c #CAC1BF",
"(  c #CDCCCA",
")  c #D8CECD",
"_  c #D2D0CF",
"`  c #CED2D5",
"'  c #D3D5D6",
"]  c #D4D6D9",
"[  c #D6D9DB",
"{  c #DADCDD",
"}  c #DEE0DF",
"|  c #DCDEE1",
" . c #DEE1E3",
".. c #E2E3E5",
"X. c #E9E2E1",
"o. c #E6E8E7",
"O. c #E4E6E9",
"+. c #E6E9EB",
"@. c #EAECED",
"#. c #EEF0EF",
"$. c #F2F0EF",
"%. c #EAEEF1",
"&. c #EEEEF0",
"*. c #EDF1F2",
"=. c #EEF2F4",
"-. c #F1F1F2",
";. c #F2F3F5",
":. c #F3F4F4",
">. c #F4F5F6",
",. c #F8F7F7",
"<. c #F6F8F7",
"1. c #F3F6F8",
"2. c #F6F7F8",
"3. c #F7F8F9",
"4. c #F7FBFC",
"5. c #F8F9F9",
"6. c #FBFBFB",
"7. c #FEFDFB",
"8. c #F9FBFC",
"9. c #FDFBFC",
"0. c #F9FDFE",
"q. c #FDFFFF",
/* pixels */
"3.| ] ] [ ` ] ] ] ] ] ] ] ] ' ' ' ] ] ] ] ] ] ] ] ] [ ] ' ] [ [ ] [ [ ] ] ] ] ] ] ] ] ] ] ] ] ] ] ] ] ] [ [ [ [ [ ] ' ] ' ] ' ' ",
"5.[ [  .[  .| [ | | | { { { { |  .| | | | | | | | | { { | { { | { { | | { [ { [ [ [ [ | | | | | | |  .{  .O.O...O...{ { { { | | ",
"5.{ ' %.:.1.=.:.2.1.:.;.;.:.>.5.0.q.0.0.q.q.q.q.0.0.5.5.8.5.5.0.0.0.0.5.1.=.*.%.@.@.@.%.=.:.1.3.4.0.4.4.4.0.0.3.5.8.2.;.2.2.;.=.",
":.{ { 1.0.0.0.0.0.q.q.q.q.q.q.q.q.q.q.q.q.q.q.q.q.q.q.q.5.q.q.q.q.q.q.q.q.0.0.0.0.0.0.q.q.q.q.q.q.0.0.q.0.0.0.0.q.q.q.q.q.0.3.:.",
"{ [ [ :.0.0.0.0.0.q.q.q.q.q.q.q.q.q.q.q.q.q.q.q.q.5.q.q.q.q.q.q.q.q.5.5.q.q.q.q.q.q.q.q.q.q.q.q.q.q.q.q.0.0.8.q.q.q.q.q.q.q.q.>.",
"] ]  .1.0.q.q.0.8.8.q.q.q.q.q.q.q.q.q.q.q.q.q.q.q.q.q.5.5.q.5.q.q.5.&.o.-.q.q.q.q.q.q.q.q.q.q.q.q.q.q.q.0.0.q.q.q.5.q.q.q.q.8.2.",
"] [ +.3.0.0.0.;.@.;.q.q.q.q.q.q.q.q.q.q.q.q.q.q.q.q.q.q.q.5.q.q.q.5.+.[ @.q.q.q.q.q.q.q.q.q.q.q.q.q.q.q.8.0.8.q.q.q.q.5.5.q.q.>.",
"] [ %.0.q.q.0.O.[ @.8.q.q.q.q.q.q.q.q.q.q.q.q.q.q.q.q.q.q.q.q.q.q.5.O.[ o.q.q.q.q.q.q.q.q.q.q.q.q.q.q.@.O.-.q.q.q.q.q.q.q.q.q.>.",
"] [ @.8.q.q.5.| ] @.q.q.q.q.q.q.q.q.7.7.q.q.q.q.q.q.q.q.q.q.q.q.q.5.+.{ @.q.q.q.q.q.q.q.q.q.q.q.q.q.q.O.[ @.8.q.9.9.q.q.q.q.q.,.",
"] [ O.5.q.q.2.{ ] &.q.q.q.q.q.q.q.q.q.q.q.q.q.q.q.q.q.q.q.q.q.q.q.q.>.-.>.q.q.q.q.q.q.q.q.q.q.q.q.q.q.+.{ O.5.q.q.q.q.q.q.q.q.>.",
"] ] ..3.q.q.2.| ' +.0.q.q.q.q.q.q.q.q.q.q.q.q.q.q.q.q.q.q.q.q.q.q.q.q.q.q.q.q.q.q.q.q.q.q.q.q.5.5.q.q.+.{ o.5.q.q.q.q.q.q.q.q.>.",
"] ] ..3.q.q.5.+.{ +.5.q.q.q.q.q.q.q.q.q.q.q.q.q.q.q.q.q.q.q.q.q.q.q.q.q.q.q.q.q.q.q.q.q.q.q.q.@.&.5.q...' +.q.q.q.q.q.q.q.q.q.>.",
"] ]  .5.q.q.q.>.@.:.q.q.q.q.q.q.q.q.q.q.q.q.q.q.q.q.q.q.q.q.q.q.q.q.q.q.q.q.q.q.q.q.q.q.q.q.5.....2.q. .] #.q.q.q.7.7.7.q.q.q.>.",
"] ] | 3.q.q.q.q.5.q.q.q.q.q.q.q.q.q.q.q.q.q.q.q.q.q.q.q.q.q.q.q.q.q.q.q.q.q.q.q.q.q.q.q.q.q.5.| { -.0.*.@.>.q.q.q.q.7.7.q.q.q.>.",
"] [ | 3.q.q.q.q.q.q.q.q.q.q.q.q.q.q.q.q.5.>.>.5.q.q.q.q.q.q.q.q.q.q.q.q.q.q.q.q.q.q.q.q.q.q.8...{ &.0.0.3.0.q.q.q.7.7.7.q.q.q.>.",
"] [ ..3.q.q.q.q.q.q.q.q.q.q.q.q.q.q.q.q.5.O.O.>.q.q.q.q.q.q.q.q.q.q.q.q.q.q.q.q.q.q.q.q.q.q.q.O.[ @.q.q.q.q.q.q.q.7.q.q.q.q.q.>.",
"] ] ..2.q.q.q.q.q.q.q.q.q.q.q.q.q.q.q.q.5.{ { &.0.q.q.q.q.q.q.q.q.q.q.q.q.q.q.q.q.q.q.q.q.q.5...[ -.q.q.q.q.q.q.q.q.q.q.q.q.q.;.",
"[ ] | 2.q.q.q.q.q.q.q.q.q.q.q.q.q.q.q.q.3.| [ @.8.q.q.q.q.q.q.q.q.q.q.q.q.q.q.q.q.q.q.q.q.q.5...{ >.q.q.q.q.q.q.q.q.q.q.q.q.q.&.",
"[ ] | 2.q.q.q.q.q.q.q.q.q.q.q.q.q.q.q.q.:.{ { &.0.q.q.q.q.q.q.q.q.q.q.q.q.q.q.q.q.q.q.q.q.q.5.-.-.5.q.q.q.q.q.q.q.q.q.q.q.q.5.@.",
"..[ [ -.q.q.q.q.q.q.q.q.q.q.q.q.3.;.0.0.@.[  .>.q.5.:.3.q.q.q.q.q.q.q.q.q.q.q.q.q.q.q.q.q.q.q.q.q.q.q.q.q.q.q.q.q.q.q.q.q.q.5.O.",
"5.| ] @.q.q.q.q.q.q.q.q.q.q.q.5.#...:.3.o.[  .3.0.-...@.5.q.q.q.q.q.q.q.q.q.q.q.q.q.q.q.q.q.q.q.q.q.q.q.q.q.q.q.q.q.q.q.q.q.2...",
"5.| ] @.5.q.q.q.q.q.q.q.q.q.q.5.+.[ @.3.@.{  .3.0.@.{ O.5.q.q.q.q.q.q.q.q.q.q.q.q.q.q.q.q.q.q.q.q.q.q.q.q.q.q.q.q.q.q.q.q.q.>. .",
"5.| { O.,.7.q.q.q.7.q.q.q.q.q.5.+.] o.3.%.{  .3.0.@.[ O.5.q.q.q.q.q.q.q.q.q.q.q.q.q.q.q.q.q.q.q.q.q.q.q.q.q.q.q.q.q.q.q.q.q.2.| ",
"5.{ ] O.5.5.q.q.7.q.q.q.q.q.q.5.o.[ @.8.*.{  .3.0.@.[ O.5.q.q.q.q.q.q.q.q.q.q.q.q.q.q.q.q.q.q.q.q.q.q.q.q.q.q.q.q.q.q.q.q.q.5...",
"5.{ ] o.5.q.q.q.q.q.q.q.q.q.q.-.[ { :.0.3.@.@.3.0.#.[ O.5.q.q.q.q.q.q.q.q.q.q.q.q.q.q.q.q.q.q.q.q.q.q.q.q.q.q.q.q.q.q.q.q.q.5.O.",
"5.{ ] +.5.q.q.q.q.7.q.q.q.q.q.&.[  .2.0.q.5.3.q.0.@.{ O.3.5.q.q.q.q.>.>.q.q.q.q.q.q.q.q.q.q.q.q.q.q.q.q.q.q.q.q.q.q.q.q.q.7.,.O.",
"5.{ ] @.5.q.q.q.7.7.q.q.q.q.q.>.O.*.8.q.q.q.q.q.q.>.+.-.,.X.) / ~ E H F ( >.q.q.q.q.q.q.q.q.q.q.q.q.q.q.q.q.q.q.q.q.q.q.q.q.5.O.",
"5.{ ] @.q.q.q.q.7.7.q.q.q.q.q.7.5.q.q.0.q.q.q.q.q.q.5.5.@.P > 4 , * @ o < J @.q.q.q.q.q.q.q.q.q.q.q.q.q.q.q.q.q.q.q.q.q.q.q.5.+.",
"5.{ ] &.q.q.q.q.q.q.q.q.q.q.q.q.q.q.q.q.q.q.q.q.q.q.q.$.I w p l k u e % o O Q 5.q.q.q.q.q.q.q.q.q.q.q.q.q.q.q.q.q.q.q.q.q.q.q.&.",
"5.{ ] &.q.q.q.q.q.q.q.q.q.q.q.q.q.q.q.q.q.q.q.q.q.q.>.U 4 B D C V A Z a = . Y 5.q.q.q.q.q.q.q.q.q.q.q.q.q.q.q.q.q.q.q.7.5.q.q.&.",
"5.{ ] -.8.q.q.q.q.q.q.q.q.q.q.q.q.q.q.q.5.5.q.q.q.q.' 3 p D v v v v m Z e X L ,.q.q.q.q.q.q.q.q.q.q.q.q.q.q.q.q.q.q.q.q.q.5.8.:.",
"5.{ ] -.8.q.q.q.q.q.q.q.q.q.q.q.q.q.q.q.q.q.q.q.q.q.! 5 x M b j g b n N a $ L >.q.q.q.q.q.q.q.q.q.q.q.q.q.q.q.q.q.q.q.q.q.q.q.:.",
" .[ ' :.q.q.q.q.q.q.q.q.q.q.q.q.q.q.q.q.q.q.q.q.q.q.W q x n b j j b c N y # L >.q.q.q.q.q.q.q.q.q.q.q.q.q.q.q.q.q.q.q.q.q.q.q.3.",
"[ [ [ >.q.q.q.q.q.q.q.q.q.q.q.q.q.q.q.q.q.q.q.q.q.q.! 5 z M b g h b m z ;   Y 5.q.q.q.q.q.q.q.q.q.q.q.q.q.q.q.q.q.q.q.q.q.q.q.3.",
"] [  .3.q.q.q.q.q.q.q.q.q.q.q.q.q.q.q.q.q.q.q.q.q.q.( 7 s N M c c M Z e + 1 ' q.q.q.q.q.q.q.q.0.q.q.q.q.q.q.q.q.q.q.q.q.q.q.q.5.",
"] [ +.4.q.q.q.q.q.q.q.q.q.q.q.q.q.q.q.q.q.q.q.q.q.q.-.f t S A m m Z p & : L ,.q.q.q.q.q.q.q.-.@.<.q.q.q.q.q.q.q.q.q.q.q.q.q.q.5.",
"] [ *.0.q.q.q.q.q.q.q.q.q.q.q.q.q.q.q.q.q.q.q.q.q.q.:.T 8 r y p s i - 2 G +.q.q.q.q.q.q.q.5.+.} @.0.q.q.q.q.q.q.5.5.q.q.q.q.q.5.",
"] [ *.0.q.q.q.q.q.q.q.q.q.q.q.q.q.q.q.q.q.q.q.q.q.q.q.{ R f 6 9 d 7 0 K { q.q.q.q.q.q.q.q.5.o.[ +.5.q.q.q.q.q.5.@.-.q.q.q.q.q.5.",
"] [ @.0.q.q.q.q.q.q.q.q.q.q.q.q.q.q.q.q.q.q.q.q.q.q.q.5.&.' ( [ _ Q ^ O.q.q.q.q.q.q.q.q.q.0.+.{ +.5.q.0.q.q.q.-.....,.q.q.q.q.3.",
"] [ o.3.q.q.q.q.q.q.q.q.q.q.q.q.q.q.q.q.q.q.q.q.q.q.q.q.q.5.5.q.5.-.>.q.q.q.q.q.q.q.q.q.q.0.@.[ o.5.q.q.q.q.q.-.{ { :.q.q.q.q.3.",
"] [ ..3.q.q.q.q.q.q.q.q.q.q.q.q.q.q.q.q.q.q.q.q.q.q.q.q.q.q.q.q.q.q.q.q.q.q.q.q.q.q.q.q.q.q.+.[ o.5.q.5.-.;.5.-...{ -.q.q.q.0.2.",
"[ [ { :.5.q.q.q.q.q.q.q.q.q.q.q.q.q.q.q.q.q.q.q.q.q.q.q.q.q.q.q.q.q.q.q.q.q.q.q.q.q.q.q.q.q.O.[ +.5.q.-.| ..2.-.{ { -.q.q.q.0.>.",
"O.[ ' ;.5.q.q.5.q.7.q.q.q.q.q.q.q.q.q.q.q.q.q.q.q.q.q.q.q.q.q.q.q.q.q.q.q.q.q.q.q.q.q.q.q.5.@.O.*.5.q.-.{ ..>.@.{ { -.q.q.q.q.>.",
"5.{ [ *.0.q.5.q.q.q.q.q.q.q.q.q.q.q.q.q.q.q.q.q.q.q.q.q.q.q.q.q.q.q.q.q.q.q.q.q.q.q.q.q.q.q.5.>.0.q.q.*.{ ..>.-...O.>.q.5.q.q.>.",
"5.[ ' *.q.q.q.q.q.q.q.q.5.5.q.q.q.q.q.q.q.q.q.q.q.q.q.q.q.q.q.q.q.q.q.q.q.q.q.q.q.q.q.q.5.q.q.q.q.q.q.&.{ ..>.>.@.-.q.q.5.q.q.>.",
"5.{ [ @.5.q.q.q.q.q.q.>.@.#.5.q.q.q.q.q.q.q.q.q.q.q.q.q.q.q.q.q.q.q.q.q.q.q.q.q.q.q.q.q.q.q.q.q.q.0.0.*.{ ..>.q.5.5.q.q.q.q.q.>.",
"5.{ [ *.q.q.q.q.q.q.q.-.{ ..3.q.q.q.q.q.q.q.q.q.q.q.q.q.q.q.q.q.q.q.q.q.q.q.q.q.q.q.q.q.q.q.q.q.q.q.q.=.| ..>.q.q.q.q.q.q.q.q.>.",
"5.{ [ @.5.q.q.q.q.7.q.@.[  .<.q.q.q.q.q.q.q.q.q.q.q.q.q.q.q.q.q.q.q.q.q.q.q.q.q.q.q.q.q.q.q.q.q.q.q.q.3.@.@.5.q.q.q.q.q.q.q.5.>.",
"5.[ [ *.0.q.q.q.q.5.q.-.{ ..3.q.q.q.q.q.q.q.q.q.q.q.q.q.q.q.q.q.q.q.q.q.q.q.q.q.q.q.q.q.q.q.q.q.q.q.q.q.q.q.q.q.q.q.q.q.q.q.q.:.",
"5.[ [ *.0.0.q.0.-.&.3.&.{ ..5.q.q.q.5.5.q.q.q.q.q.q.q.q.q.q.q.q.q.q.q.q.q.q.q.q.q.q.q.q.q.q.q.q.q.q.q.q.q.q.q.q.q.q.q.q.q.q.0.=.",
"5.[ [ @.8.0.q.5.O.| -.@.{ ..3.q.q.3.....5.q.q.q.q.q.q.q.q.q.q.q.q.q.q.q.q.q.q.q.q.q.q.q.q.q.q.q.q.q.q.q.q.q.q.q.q.q.q.q.q.q.0.*.",
"5.[ ] ..5.q.q.2.| { @.-...O.2.q.q.>.] { 5.q.q.q.q.q.q.q.q.q.q.q.q.q.q.q.5.5.q.q.q.q.q.q.q.q.q.q.q.q.q.q.q.q.q.q.q.q.q.q.q.q.0.&.",
"5.[ ]  .5.q.q.2. .{ -.5.-.-.q.q.q.>.[ ..5.5.q.q.q.q.q.q.q.q.q.q.q.q.q.,.@.+.5.q.q.q.q.q.q.q.q.q.q.q.q.q.q.q.q.q.q.q.q.q.q.q.0.@.",
"5.{ ]  .3.q.q.3...{ -.q.q.7.q.q.q.>.' { 5.q.q.q.q.q.q.q.q.q.q.q.q.q.q.:...{ -.q.q.q.q.q.q.q.q.q.q.q.q.q.q.q.q.q.q.q.q.q.q.q.5.o.",
"5.{ ] ..5.q.q.0.@.+.>.q.q.q.7.7.q.>.[ { 5.q.q.q.q.q.q.q.q.q.q.q.q.q.q.>...[ @.q.q.q.q.q.q.q.q.q.q.q.q.q.q.q.q.q.q.q.q.q.q.q.5.O.",
"5.| ] ..5.q.q.q.5.5.q.q.7.7.q.7.q.5.@.-.q.q.q.q.q.q.q.q.q.q.q.q.q.q.q.5.+.{ @.q.q.q.q.q.q.q.q.q.q.q.q.q.q.q.q.q.q.q.q.q.q.q.5.O.",
"5.| ] O.5.q.q.q.q.q.q.q.q.q.7.7.q.q.5.q.q.q.q.q.q.q.q.q.q.q.q.q.q.q.q.8.+.[ +.q.q.q.q.q.q.q.q.q.q.q.q.q.q.q.q.q.q.q.q.q.q.q.5...",
"5.| ] O.5.q.q.q.q.q.q.7.7.q.7.7.q.q.q.q.q.q.q.q.q.q.q.q.q.q.q.q.q.q.q.>. .{ @.q.q.q.q.q.q.q.q.q.q.q.q.q.q.q.q.7.7.q.7.7.5.q.5.o.",
"5.{ ] O.5.q.q.q.q.q.q.7.7.7.q.7.7.q.q.q.q.q.q.q.q.q.q.q.q.q.q.q.q.q.q.5.@.o.3.q.q.q.q.q.0.q.q.q.q.q.q.q.q.q.q.q.7.7.7.7.7.q.5.&.",
"8.{ ] O.3.0.q.q.q.q.q.q.q.q.q.q.q.q.q.q.q.q.q.q.q.q.q.q.q.q.q.q.q.q.q.q.3.2.q.q.q.0.q.q.8.q.q.q.q.q.q.q.q.q.q.q.7.7.7.7.q.q.5.:.",
"5.{ ] ..1.0.q.q.q.q.q.q.0.q.q.q.q.q.q.q.q.q.q.q.q.q.q.q.q.q.q.q.q.q.q.0.0.0.q.q.q.0.q.q.q.q.q.q.8.q.q.q.q.q.q.5.5.q.q.q.0.q.0.>.",
"5.{ ] O.1.0.q.0.0.0.8.8.0.0.q.q.q.q.q.q.q.q.q.q.q.q.q.q.q.q.q.q.q.q.q.q.q.8.q.0.0.q.q.q.q.q.q.q.q.q.q.q.0.0.0.0.3.3.5.3.3.0.3.:.",
"5.| ]  .@.*.%.@.@.@.@.@.&.-.-.:.2.5.5.4.3.4.3.1.1.:.:.;.=.*.*.*.*.*.*.@.@.@.@.@.@.@.@.@.@.@.@.@.@.&.&.*.*.*.*.@.o.o.O.O.o.+.@.O.",
"5.| ] ] { { [ ] ] ] ] ] [ | | ..O.+.+.+.+.o.O.O..... . .| | { { { { { ' ' ] ' ] ] ' ' ' [ ' ' [ ' { { | | | { ] ] [ ] ] ' ] [ ] "
};
