/* XPM */
static char *_ae555ae3a664302e6810b4acd3819d5QSmSVPgk67ltMZCi[] = {
/* columns rows colors chars-per-pixel */
"64 64 73 1 ",
"  c #D1D6DB",
". c #D4D9DE",
"X c #D0D6DA",
"o c #D0D6DB",
"O c #D1D8DA",
"+ c #DDDDDD",
"@ c None",
"# c #D6D6DE",
"$ c #D0D7DA",
"% c #D1D7DC",
"& c #D2D8DB",
"* c #D0D7DA",
"= c #D1D7DB",
"- c #D0D7DB",
"; c #D2D7DB",
": c black",
"> c #B1B6B9",
", c #5E6061",
"< c #808384",
"1 c #5C5C5D",
"2 c #7D8082",
"3 c #535556",
"4 c #565758",
"5 c #8E8F90",
"6 c #F0F2F3",
"7 c #F9FAFA",
"8 c #CACDD0",
"9 c #EAEDEF",
"0 c gray99",
"q c #D6DCDF",
"w c #E6E8E9",
"e c #D9DEE1",
"r c #EDF0F1",
"t c #D3D6D8",
"y c #E5E8EA",
"u c #F6F7F8",
"i c #D3D9DD",
"p c #E2E6E8",
"a c gray53",
"s c #F5F6F6",
"d c #F0F1F2",
"f c gray63",
"g c #D7D7D7",
"h c #C0C4C7",
"j c #797979",
"k c #DDDFE1",
"l c #6C6C6C",
"z c #CED2D4",
"x c #515151",
"c c #E2E4E5",
"v c #BCBCBC",
"b c #DFE3E6",
"n c #AFAFAF",
"m c #444444",
"M c #E4E4E4",
"N c gray58",
"B c gray98",
"V c #B6BBBF",
"C c #BBC0C3",
"Z c gray79",
"A c #5F5F5F",
"S c #F1F1F1",
"D c #373737",
"F c #D8DBDD",
"G c #C5C9CC",
"H c #E8EBED",
"J c #EBEDEE",
"K c #DCE1E4",
"L c #F3F5F6",
"P c #2A2A2A",
"I c #B2B7BB",
"U c #D1D7DB",
"Y c white",
/* pixels */
":::::::::::::::::::::::::::::::::::#O===O;+:::::+&=====&;;;:::::",
":$------------UUUUUUUUUUUUUUUUUUUUUUUUUUUUU@----UUUUUUUUUUUUUU$:",
":UUUUUUUUUUUUUUUUUUUUUUUUUUUUUUUUUUUbHHHbeUUUUUUUUebHHHbKKqUUUU:",
":UULLLLLLLLLLLYYYYYYYYYYYYYYYYYpUbYYYYYYYYYuLLLL7YYYYYYYYYYYYUU:",
"#UiYYYYYYYYYYYYYYYYYYYYYYYYYYYYHUKYYYYYYYYYYYYYYYYYYYYYYYYYYYUU:",
"&UKYYYYYYYYYYYYYYYYYYYYYYYYYYYYHUbYYYYYYYYYYYYYYYYYYYYYYYYYYYUU:",
"OUyYYYYYYYYYYYYYYYYYYYYYYYYYYYYyUHYYYYYYYYYYYYYYYYYYYYYYYYYYYUU:",
";UKYYYYYYYYYYYYYYYYYYYYYYYYYYYYbUHYYYYYYYYYYYYYYYYYYYYYYYYYYYUU:",
";UKYYYYYYYYYYYYYYYYYYYYYYYYYYYYHUHYYYYYYYYYYYYYYYYYYYYYYYYYYYUU:",
"+UUYYYYYYYYYYYYYYYYYYYYYYYYYYYYHUHYYYYYYYYYYYYYYYYYYYYYYYYYYYUU:",
":UU0YYYYYYYYYYYYYYYYYYYYYYYYYYYrUKYYYYYYYYYYYYYYYYYYYYYYYYYYYUU:",
":XULYYYYYYYYYYYYYYYYYYYYYYYMvNl134NNZSYYYYYYYYYYYYYYYYYYYYYYYUU:",
":-ULYYYYYYYYYYYYYYYYYYYMnlPPPPPPPPPPPDjfSYYYYYYYYYYYYYYYYYYYYUU:",
":*UuYYYYYYYYYYYYYYYYYMlPPPPDANvZZZNAPPPPDNYYYYYYYYYYYYYYYYYYYUU:",
":UUYYYYYYYYYYYYYYYYYvDPPAfMYYYYYYYYYYZaDPPAMYYYYYYYYYYYYYYYYYUU:",
".UqYYYYYYYYYYYYYYYSlPPfYYYYYYYYYYYYYYYYYnAPDfYYYYYYYYYYYYYYYYUU:",
"%UKYYYYYYYYYYYYYYYAPxgYYYYYYFVICtcdYYYYYYYfDPxvYYYYYYYYYYYYYYUU:",
"=UHYYYYYYYYYYYYYYjPmgYYYYYJGIIIIIIIVGGksYYYMxPPZYYYYYYYYYYYYLU*:",
"=UHYYYYYYYYYYYYYNPxSYYYYcCIIhwkICGVIIIICBYYYSlPDMYYYYYYYYYYY6U-:",
"=UHYYYYYYYYYYYSaPmSYYYcCIICcYYJIGYYBJkCIVwYYYYjPAYYYYYYYYYYYHU=:",
"%UbYYYYYYYYYYYjPPZYYYhIIzJYYYYJIhYYYYYYFIIGBYYYxPvYYYYYYYYYYbU%:",
"#UiYYYYYYYYYYvPPlYYYFIIJYYYYYYYIIYYYYYYYdIIzYYYZPDSYYYYYYYYYKU;:",
":UUYYYYYYYYYYmPmSYYzIIIFYYYYYYYIIJYYYYYYYIIIJYYYjPNYYYYYYYYYKU;:",
"#UUYYYYYYYYYnPPZYYcIVGIFYYYYYYYCIJYYYYYYYIIICYYYZPDYYYYYYYYYKU;:",
"OUpYYYYYYYYYlPmYYcIVJzIkYYYYYYYGIJYYYYYYYIIhIFYYYxPnYYYYYYYYpU%:",
"-UHYYYYYYYYYmPaYsVItYCIJYYYYYYYGIJYYYYYYYIIsVIsYYvPxYYYYYYYYHU=:",
"=UpYYYYYYYYYPPnYkICYYIIYYYYYYYYGIJYYYYYYYIIYtItYYYxPZYYYYYYYHU=:",
"&Ui0YYYYYYYYAPZYFIGYYIIYYYYYYYYCIJYYYYYYdIhYJIGYYYvPlYYYYYYY9Uo:",
":@U9YYYYYYYYDPgYsIIYYIIYYYYYYYYIIYYYYYYYJIGYJIhYYYYAPSYYYYYYLU*:",
":$UpYYYYYYYZPDYYYIIYYIIYYYYYYYJICYYYYYYYJIGYYIIYYYYaPZYYYYYY0iU.",
":$UbY0LLLLYAPjYYYIIYYhIdYYYYYYFIzYYYYYYYkIGYYIIBYYMPDSYYYYYYYKU;",
":*UUUUUUUUbPPMYYJIhYYVIYYYYYYYzIkYYYYYYYwIGYYGIJYYZP,UUUUUUUUUU;",
":UUUUUiUUUUPPYYYFIzYYIIYYYYYYYGIJYYYYYYYJIGYYzIkYYMDP>UUUUUUUUU%",
":XUYYYYYY7rPPYYYFIFYYIIYYYYYYYGIJYYYYYYYJIGYYFIFYYYAPfYYYYYYYpU=",
"&UiYYYYYYYYDPgYYJIGYYIIYYYYYYYzIFYYYYYYYBIVYY8IkYYSDPZYYYYYYYHU=",
"-UHYYYYYYYYlPfYYBIIBYIIYYYYYYYFIFYYYYYYYYIIYBIIdYYxPmYYYYYYY0eU;",
"-ULYYYYYYYYnPxYYYhIcYIIYYYYYYYcIGYYYYYYYYIIYFIzYYnPDgYYYYYYY9U-:",
"-ULYYYYYYYYSPPSYYcICYIIYYYYYYYJIGYYYYYYYBIIBVIsYYAPNYYYYYYYYbU=:",
"oU9YYYYYYYYYxPnYYBIIcIhYYYYYYYsICYYYYYYYJIVFIzYYYDPMYYYYYYYYbU=:",
"=UpYYYYYYYYYfPmYYY8ICIIYYYYYYYYIIYYYYYYYFIVIVsYYYPPYYYYYYYYYHUo:",
"&UeYYYYYYYYYSDPnYYJIIIIYYYYYYYYIIYYYYYYYFIIIcYYYMPDYYYYYYYYYLU*:",
"+UUYYYYYYYYYYNPDSYYGIIIYYYYYYYYIIYYYYYYYFII8YYYYnPAYYYYYYYYYYUU:",
":@UuYYYYYYYYYYlPlYYdVIIFBYYYYYYIIYYYYYYYwIIBYYYSmPnYYYYYYYYYYUU:",
":-ULYYYYYYYYYYYmPZYYdCIIVwYYYYYVIdYYYYYJCIGYYYgmPmYYYYYYYYYYYUU:",
":-ULYYYYYYYYYYYvPmYYYsFVIIFBYYYGIJYYYBzIItBYYgDPmgYYYYYYYYYYuU*:",
":-ULYYYYYYYYYYYYxPvYYYYBtIICcJJhIkJJcVICJYYYnDPASYYYYYYYYYYY9U$:",
":-ULYYYYYYYYYYYYgPDMYYYYYFVIIIIIIIIIII8dYYYnPPjYYYYYYYYYYYYYHU=:",
":-ULYYYYYYYYYYYYYfPAMYYYYYBkGGGGGGGGFcYYYYvPPjYYYYYYYYYYYYYYHU$:",
":-ULYYYYYYYYYYYYYYAPmgYYYYYYYYYYYYYYYYYYSNPPjYYYYYYYYYYYYYYYuU@:",
":-U6YYYYYYYYYYYYYYMDPPjvSYYYYYYYYYYYYSvaDPmnYYYYYYYYYYYYYYYYYiU.",
": UyYYYYYYYYYYYYYYYSlPPPPPPAAAAaNNNNAPPPPjSYYYYYYYYYYYYYYYYYYKU;",
":;UKYYYYYYYYYYYYYYYYYZaAPPPPPPPPPPPPPPxaMYYYYYYYYYYYYYYYYYYYYKU;",
":;UKYYYYYYYYYYYYYYYYYYYYYYYZZZv<25NNnMYYYYYYYYYYYYYYYYYYYYYYYeU;",
":=UpYYYYYYYYYYYYYYYYYYYYYYYYYYYUUYYYYYYYYYYYYYYYYYYYYYYYYYYYYUU:",
": UHYYYYYYYYYYYYYYYYYYYYYYYYYYYUUYYYYYYYYYYYYYYYYYYYYYYYYYYYYUU:",
":oUHYYYYYYYYYYYYYYYYYYYYYYYYYYLUeYYYYYYYYYYYYYYYYYYYYYYYYYYYLUX:",
":=UHYYYYYYYYYYYYYYYYYYYYYYYYYYLUKYYYYYYYYYYYYYYYYYYYYYYYYYYYLU-:",
":=UHYYYYYYYYYYYYYYYYYYYYYYYYYYrUyYYYYYYYYYYYYYYYYYYYYYYYYYYYrU :",
":%UbYYYYYYYYYYYYYYYYYYYYYYYYYYrUKYYYYYYYYYYYYYYYYYYYYYYYYYYYrU-:",
":;UKYYYYYYYYYYYYYYYYYYYYYYYYYYLUqYYYYYYYYYYYYYYYYYYYYYYYYYYYLU*:",
":=UyYYYYYYYYYYYYYYYYYYYYYYYYYYuUUYYYYYYYYYYYYYYYYYYYYYLLLLLLuUU:",
":*UqKyHHHHHbKKKKKKKKKKKKKKKKUUUUUUUUUUUUUUUUUUqKKKKKUUUUUUUUUUU:",
":XUUUUUUUUUUUUUUUUUUUUUUUUUUUUUUUUUUUUUUUUUUUUUUUUUUUU*-----UU@:",
"::;;&======&;;;;;;;;;;;;;;;;::::::::::::::::::#;;;;;;+::::::::::"
};
