/* XPM */
static char *a1db6e327c67458fc3ed0b7ad6cebce2DnxTJDEYBs0W3qVt[] = {
/* columns rows colors chars-per-pixel */
"64 64 75 1 ",
"  c #353535",
". c #3D3D3D",
"X c #3F4040",
"o c #434343",
"O c #4B4B4B",
"+ c #4F4F50",
"@ c #535353",
"# c #5D5D5D",
"$ c #5D5F60",
"% c #5F6162",
"& c #646464",
"* c #676869",
"= c #6B6B6B",
"- c #737373",
"; c #7C7C7C",
": c #858585",
"> c #858789",
", c #8D8D8D",
"< c #949494",
"1 c #9C9C9C",
"2 c #A5A5A5",
"3 c #A7ABAD",
"4 c #ACACAC",
"5 c #B4B4B4",
"6 c #B2B7BB",
"7 c #B5BABE",
"8 c #BCBCBC",
"9 c #B7BCC0",
"0 c #BABEC2",
"q c #BCC1C4",
"w c #C2C3C3",
"e c #C2C6C9",
"r c #C5C9CC",
"t c #CBCCCD",
"y c #CACED1",
"u c #CDD1D4",
"i c #D3D4D5",
"p c #D2D7DA",
"a c #D5DADE",
"s c #DADCDE",
"d c #D7DCE0",
"f c #DADEE1",
"g c #DEE2E5",
"h c #DFE4E7",
"j c gray88",
"k c gray89",
"l c #E0E5E7",
"z c #E4E4E4",
"x c #E7E7E7",
"c c #E1E5E8",
"v c #E4E7E9",
"b c #E5E8EB",
"n c #E7EAED",
"m c gray92",
"M c #E8EBED",
"N c #EAECEE",
"B c #ECECEC",
"V c #E9EDF0",
"C c #ECEFF0",
"Z c #EEF0F1",
"A c #EFF1F3",
"S c #F0F3F3",
"D c #F3F3F3",
"F c #F1F3F4",
"G c #F3F5F5",
"H c #F4F6F7",
"J c #F6F7F7",
"K c #F6F7F8",
"L c #F7F8F8",
"P c #F8F8F8",
"I c #FAFBFB",
"U c #FBFBFB",
"Y c #FBFBFC",
"T c #FBFCFC",
"R c #FDFEFE",
/* pixels */
"Lsppauppppppppiippppppppppapppapppppppppppppppppppppppppppppppii",
"Jappppppppppppppppppppppppppppppppppppapppppppppppppaaappappppas",
"JppaaaaaaaaaaaasaaaassssaaaaaaapppaflnMncgdaaaaaadgcnMnclggfapaV",
"ZpaCSSSSSSSSSFIIIIIIIIIIIIIIIIKcagJIIRRRIIIGFSSFJIIIRRRYIIIIJaaZ",
"spfIRRRRRRRRRRRRRRRRRRRRRRRRRRRnalIRRRRRRRRRRRRRRRRRRRRRRRRRIaaZ",
"pplIRRRRRRRRRRRRRRRRRRRRRRRRRRRnacYRRRRRRRRRRRRRRRRRRRRRRRRRIaaS",
"ppvTRRRRRRRRRRRRRRRRRRRRRRRRRRTbaMRRRRRRRRRRRRRRRRRRRRRRRRRRIaaZ",
"pphIRRRRRRRRRRRRRRRRRRRRRRRRRRYcaMRRRRRRRRRRRRRRRRRRRRRRRRRRIaaS",
"ppgIRRRRRRRRRRRRRRRRRRRRRRRRRRRnaMRRRRRRRRRRRRRRRRRRRRRRRRRRIaaS",
"ppdIRRRRRRRRRRRRRRRRRRRRRRRRRRRManRRRRRRRRRRRRRRRRRRRRRRRRRRIaaS",
"ppaKRRRRRRRRRRRRRRRRRRRRRRRIJSmsriBSIRRRRRRRRRRRRRRRRRRRRRRRIaaS",
"ppaFRRRRRRRRRRRRRRRRRRRIJBku5<;*%*,18sBSRRRRRRRRRRRRRRRRRRRRIaaS",
"ppaFRRRRRRRRRRRRRRRRRImt2-Ooooooooo..@;2iSRRRRRRRRRRRRRRRRRRIsaS",
"ppaGRRRRRRRRRRRRRRRRSt;oooo@=<4885<=Oo..@<kIRRRRRRRRRRRRRRRRIsaZ",
"ppdIRRRRRRRRRRRRRRIz4@oO=1tzmSJIIJSmk8,@.o-tSRRRRRRRRRRRRRRRIsaZ",
"ppgIRRRRRRRRRRRRRIp;oO1smSIRIJJJIIRRRIBk4=O@1kJRRRRRRRRRRRRRIsaZ",
"pplIRRRRRRRRRRRRRk-o&8BRRRRJseqrpgMJLIIRJk1@o&5SRRRRRRRRRRRRIaaC",
"paMRRRRRRRRRRRRRz:o&wJRRIJvy0077700qtufZRRSw*.O5JRRRRRRRRRRRFafN",
"paMRRRRRRRRRRRIz<O*iJRIJgr0qtgp0qrqqq00rBIRIi;.@tIRRRRRRRRRRZagb",
"saMRRRRRRRRRRIs,o#iIRJgrqqrgJIv0rSJSbsr0elJRIk:o-zRRRRRRRRRRMavz",
"MacIRRRRRRRRRm:.o5JRJy0qivJIRRm0rIRRRIJsq0uSRRs*o4JRRRRRRRRYcaMl",
"SpfIRRRRRRRRJ4o ;mRJp70gJRRRRRGqqGRRRRRIv09iLRJ5O@iRRRRRRRRIlaNg",
"JpaIRRRRRRRRk# #iIJp079sIRRRRRJq0mRRRRRRJ06qzRRm;o<SRRRRRRRIhaNf",
"SpfIRRRRRRRJ4..5JIgqqe0sIRRRRRJe0bRRRRRRJq67rGRI8o@sRRRRRRRIhaNg",
"bacYRRRRRRRB; #kIgqqgy0fIRRRRRItqbRRRRRRJq7e0sIRz&o2JRRRRRRYcaMv",
"ganRRRRRRRRm# :BBe0pZe0bRRRRRRIyqbRRRRRRJq0lqqBRJ4o&zRRRRRRRMavl",
"cpcIRRRRRRRzO.2Sf0eFJqqGRRRRRRItqbRRRRRRJqqZp0pIRk*o8JRRRRRRMavl",
"NpfJRRRRRRRm&o8Gs0rKJqqJRRRRRRJe0mRRRRRRN0rJz0yLRJ4O;mRRRRRRNalv",
"JpaNRRRRRRRk@otIB0qJJqqJRRRRRRGqqJRRRRRRbqyJm0rJRRz*OsRRRRRRSafM",
"LapbRRRRRRJ5o@kRJ0qJJqqJRRRRRRb0rJRRRRRRvqyLGqqJRRm;OwIRRRRRKfab",
"LapgJKFSSFv-.:BRGqqJJr0BRRRRRIs0iIRRRRRIg0yLJq0SRIiO+iKIIIIIJgab",
"JpppaaaaaatootIRb0rKJeqJRRRRRIi0fIRRRRRTl0yLIt0bRIwo$eaaaaaaapab",
"gppassfsaaeXokRIs0iIJqqJRRRRRLyqvRRRRRRRbqyLIi0fIIiOo3paaaaaapab",
"apaJIIIIIJpookRIs0pIJqqJRRRRRLyqvRRRRRRRmqtLIp0sIRz&.2CIIIIIKcac",
"ppfIRRRRRRz@owIRb0yKJqqJRRRRRIi0sIRRRRRRSqqJLy0fIItOo8IRRRRRTbac",
"ppnRRRRRRRB-o1SRSqqSJqqJRRRRRIs0pIRRRRRRJqqJZqqMYk= &zRRRRRRKgdV",
"paZRRRRRRRJ4o&mRJt0gSqqJRRRRRIg0yIRRRRRRJqqSs0iLJ4oOwIRRRRRRNagG",
"paZRRRRRRRRiooiRIg0rN0qJRRRRRRbqtLRRRRRRS00veqNRm-.<BRRRRRRYcanK",
"paNRRRRRRRRm&.2JRSq0p0eJRRRRRRCqeJRRRRRRb00u0iIRz@otIRRRRRRYcanJ",
"ppcYRRRRRRRS1.#kRIu7q7qJRRRRRRJqqJRRRRRIs977eBRRkookRRRRRRRRMacG",
"ppgIRRRRRRRRi@X2SRv066qJRRRRRRJqqJRRRRRIs760gIRIto@zRRRRRRRRFafZ",
"apfIRRRRRRRRS<o@iIJy760SRRRRRRJqqJRRRRRIs77uJRRS2o-mRRRRRRRRIadZ",
"cpaJRRRRRRRRRk;o;mRme77pSIRRRRJq0JRRRRRIf9qBRRJt#o4JRRRRRRRRIaaZ",
"KaaFRRRRRRRRRRs$O5JIbr00elLRRRJq0NRRRRLle0uLRJw& &kRRRRRRRRRIaaZ",
"KpaSRRRRRRRRRRJ4o&kRYCae9qsSIRJr0vIRIZiqqpSRS8@ &wIRRRRRRRRRGafZ",
"KaaSRRRRRRRRRRRz*o4SRRIZp00rfble0pvbfe0rzLRB2@.-iIRRRRRRRRRRNacF",
"KpaSRRRRRRRRRRRI8O@tJRRRJse00q0770qqqquMIRB2o.:kIRRRRRRRRRRRMabF",
"KaaSRRRRRRRRRRRRB1o=tJRRRISfuyyyyyyyalJRIm4O.:kRRRRRRRRRRRRRNagF",
"KpaSRRRRRRRRRRRRRk-.#8mJRRRIIIIIIIIIIIJBi<Oo:kRRRRRRRRRRRRRRGafZ",
"KpaCRRRRRRRRRRRRRIt# o;5ikzmmmmBSSSSmi5:@o#2zRRRRRRRRRRRRRRRIfan",
"LapbTRRRRRRRRRRRRRIi;o.oooO*==-:<<<,=oooO:iSRRRRRRRRRRRRRRRRIgac",
"IaphIRRRRRRRRRRRRRRIm8,*Oooooooooooooo&,tBIRRRRRRRRRRRRRRRRRIgac",
"IaplIRRRRRRRRRRRRRRRRISmzzkw884>:,<<4tzSIRRRRRRRRRRRRRRRRRRRIgac",
"IaavYRRRRRRRRRRRRRRRRRRRRRRIIISuuBSSJIRRRRRRRRRRRRRRRRRRRRRRIdac",
"LaaMRRRRRRRRRRRRRRRRRRRRRRRRRRIafIRRRRRRRRRRRRRRRRRRRRRRRRRRIaal",
"LaaMRRRRRRRRRRRRRRRRRRRRRRRRRRFagIRRRRRRRRRRRRRRRRRRRRRRRRRRFafl",
"IaaMRRRRRRRRRRRRRRRRRRRRRRRRRRZalIRRRRRRRRRRRRRRRRRRRRRRRRRRZagl",
"IaanRRRRRRRRRRRRRRRRRRRRRRRRRRCavTRRRRRRRRRRRRRRRRRRRRRRRRRRCdcv",
"IapcYRRRRRRRRRRRRRRRRRRRRRRRRRCahIRRRRRRRRRRRRRRRRRRRRRRRRRRCagN",
"IaplIRRRRRRRRRRRRRRRRRRRRRRRRRSagIRRRRRRRRRRRRRRRRRRRRRRRRRRZafZ",
"LapcLTRRRRRYIIIIIIIIIIIIIIIIIIZaaJIIIIIIIIIIIIIIIIIIIIFSSSSSCaaS",
"JppdgbnMMMnchhhhllhhhhhhllhgfaappaaaaaaassaaadggllhgfaaaaaaaapaZ",
"Japppaaaaaaaaaaaaaaaaaaaaaaaappppappppppaaappppaaaaapaadaaaappac",
"Lfppapppppppaasfggllgggfffffsaaaasspppippiippipppsaaafapppppipap"
};
