/* XPM */
static char *c57ac505ccf54abcca2e3a37d051a0aap88Bl3Ms5NptcfoK[] = {
/* columns rows colors chars-per-pixel */
"64 64 38 1 ",
"  c #CED2D5",
". c #D3D5D7",
"X c #D4D6D9",
"o c #D6D9DB",
"O c #DADCDD",
"+ c #DEE0DF",
"@ c #DCDEE1",
"# c #DEE1E3",
"$ c #E2E3E5",
"% c #E6E8E7",
"& c #E4E6E9",
"* c #E6E9EB",
"= c #EAECED",
"- c #EEF0EF",
"; c #E9EDF0",
": c #EEEFF0",
"> c #ECF0F2",
", c #EEF2F4",
"< c gray94",
"1 c #F1F1F3",
"2 c #F3F3F3",
"3 c #F2F3F5",
"4 c #F3F4F4",
"5 c #F4F5F7",
"6 c gray97",
"7 c #F6F8F7",
"8 c #F3F7F8",
"9 c #F6F7F8",
"0 c #F7F8F8",
"q c #F7FBFC",
"w c #F8F8F8",
"e c #F9F9F9",
"r c #FBFBFA",
"t c #FCFCFA",
"y c #F8FBFC",
"u c #FCFBFC",
"i c #FAFDFE",
"p c #FCFFFF",
/* pixels */
"0@XXo XXXXXXXX...XXXXXXXXXoX.XooXooXXXXXXXXXXXXXXXXXooooo..X.X..",
"eoo#o#@o@@@OOOO@#@@@OO@@@@OO@OO@OO@@OoOoooo@@@@@@@#O#&&$&$OOOO@@",
"eO.;48,49833345eipiittppppeeyeeipiiy8,>;===;,480qiqqqii0eu53993,",
"4OO8iiiiipppppppppppppppppppeppppppppiiiiiippppppiipiiippppppi04",
"Ooo4iiiipppppppppppppppppeppppppppeeupppppppppppppppiiypppppppp5",
"XX#8ippiyupppppppppppppppppeepeppe2%2pppppppppppppppiipppeppppy9",
"Xo*0iii3=3pppppppppppppppppppepppe%o=pppppppppppppppyiyppppeepp5",
"Xo;ippi&o=yppppppppppppppppppppppe%o%pppppppppppppp=&2ppppppppp5",
"Xo=yppe@X=ppppppppttppppttpppppppe*O=eppppppppppppp&o*epuuppppp5",
"Xo&epp9OX:pppppppppppppppppppppppp525pppppppppppppp*O&epppppppp5",
"XX$0pp9@.*pppppppppppppppppppppppppppppppppppppeepp*o%epppppppp5",
"XX$0ppe*O*epppppppppppppppppppppppppppppppppppp::ep$.*ppppppppp5",
"XX#eppp5=2ppppppppppppppppppppppppppppppppppppe$$9p#X-ppptppppp5",
"XX@0ppppepppppppppppppppppppppppppppppppppppppe@O2i>=5pppttpppp5",
"Xo@0ppppppppppppppppe55eppppppppppppppppppppppy$O:ii0ippttttppp5",
"Xo$0ppppppppppppppppe&&5ppppppppppppppppppppppe&o=ppppppttppppp5",
"XX$eppppppppppppppppeOO:ipppppppppppppppppppppe$o2ppppppppppppp3",
"oX#eppppptpppppppppp0@o=ypppppppppppppppppppppe$O5ppppppppppppp:",
"oXO5pppppppppppppppp4OO:ipppppppppppppppppppppe22eppppppppppppe=",
"$oo2eppppppppppp03ii=o#5pe40ppppppppppppppppppppppppppppppppppe&",
"e@X=tppppppppppe-$40%o#0i2&=eppppppppppppppppppppppppppppppppp9$",
"e@X=epppptpppppe*X=0=O#0i=O&eppppppppppppppppppppppppppppppppp5#",
"e@O&5tppptpppppe*X%0;O#0i=o&eppppppppppppppppppptpppppppppppppe@",
"eOX&eepptppppppe%o=y>O#0i=o&epppppppppppppppppppppppppppppppppe$",
"eOX%eppptpppppp2oO4i0==0i-o&epppppppppppppppppppppppppppppppppe&",
"eOX*epppttppppp2o#9ipe0pi=O&0ppppppppppppppppppppppppppppppppt5&",
"eOX=epppttppppp5&>ypppppp5*2etptppppppppppppppppppppppppppppppe&",
"eOX=ppppttpppppteppipppptpeppppttpppppppppppppppppppppppppppppe*",
"eOX:ppppppppppppppppppppppppppppppppppppppppppppppppppppppppppp:",
"eOX:ppppppppppppppppppppppppptpppppppppppppppppppppppppppppeepp:",
"eOX2upppppppppppppppttpppppppppppppppppppppppppppppppppppppppeu5",
"eOX2epppptpppppppppppppppppttptpppppppppppppppppppppppppppppppp4",
"#o.4ppppppppppppppppppppppppppppppppppppppppppppppppppppppppppp0",
"ooo5ppppppppppppppppppppppppppppppppppppppppppppppppppptppppppp0",
"Xo#0pppppppppppppppppppppppppppppppppppppppppppppppppppppppppppe",
"Xo*qpppppppppppppppppppppppppppppppppppppppppp2=7ppppppppppppppe",
"Xo>ipppppppppppppppppppppppppppppppppppppppppe*+=tppppppeepppppe",
"Xo>ipppppppppppppppppppppppppppppppppppppppppe%o*epppppe=2pppppe",
"Xo=ipppppppppppppppppppppppppppppppppppppppppp*O*eppppp2$$5pppp0",
"Xo%0pppppppppppppppppppppppppppppppppppppppppp=o%eppppp2OO2pppp0",
"Xo$0pppppppppppppppppppppppppppppppppppppppppp*o%epe23e2$+2pppp9",
"ooO4tptppppppppppppppppppppppppppppppppppppppp&o*ep2@$92OO2pppp5",
"&o.3eppeptpppppppppppppppppppppppppppppppppppt=&2ep2O$5=OO2pppp5",
"eOo>ipetptppppppppppppppppppppppppppppppppppppe5ppp>O$52$&5pepp5",
"eo.>ppppptppeepppppppppppppppppppppppppppppptpppppp:O$55=2ppepp5",
"eOo=ipppppp5=-eppppppppppppppppppppppppppppppppppii>O$5peeppppp5",
"eOo>ppppptp2O$epppppppppppppppppppppppppppppppppppp,@$5pppppppp5",
"eOo=epppptp=o$7pppppppppppppppppppppppppppppppppppp0==epppppppe5",
"eoo>ippppep2O$0ppppppppppppppppppppppppppppppppppppppppppppptpp5",
"eoo>iipi2:0:O$epppeeppppppppppppppppppppppppppppppppppppppppppi,",
"eoo=yipe&@2=O$0pp0$$epppppppppppppppppppppppppppppppppppppppppi>",
"eoX$epp9@O=2$&9pp5XOepppppppppppppppeeppppppppppppppppppppppppi:",
"eoX#0pp9$O2e22ppp5o$eeppppppppppppp5=*5pppppppppppppppppppppppi=",
"eOX#0pp0$O2pppppp5.Oepppppppppppppp2+O2pppppppppppppppppppppppe%",
"eOX$eppi=*5pppttp5oOepppppppppppppp5$o=pppppppppppppppppppppppe&",
"e@X$epppeetpppptpe=2pppppppppppppppe*O=pppppppppppppppppppppppe&",
"e@X&epppppppppttppeepppppppppppppppy*o*pppppppppppppppppppppppe$",
"e@X&eppppppttpttppppppppppppppppppp5#O=ppppppppppppppppttpttepe%",
"eOX&epppppptttpttppppppppppppppppppe=%0pppppippppppppppptttttpe:",
"yOX&0ipppppppppppppppppppppppppppppp09ppppppypppppppppppttttppe4",
"eOX$8ippppppyppppppppppppppppppppppiiippppppipppyppppppeepppipi5",
"eOX&8ipippyeiipppppppppppppppppppppppypyppppppppppppiiiieee00i04",
"e@X#=>;=====:2249eey00088443,>>>>2>==============::>>>>=*%&&%*=&",
"e@XXOOoXXXXXo@@$&****%&&$$##@@OOOOO..X.XX...o..o.OOO@@OXXoXX.XoX"
};
