/* XPM */
static char *_a684ba64f2a486099295bac928be3fakcNUUkFgub5TI77h[] = {
/* columns rows colors chars-per-pixel */
"64 64 153 2 ",
"   c #353535",
".  c #3D3D3D",
"X  c #3F4040",
"o  c #434343",
"O  c #4B4B4B",
"+  c #4F4F50",
"@  c #535353",
"#  c #5D5D5D",
"$  c #57605E",
"%  c #5B5E60",
"&  c #5F6162",
"*  c #646464",
"=  c #646867",
"-  c #656668",
";  c #676969",
":  c #6B6B6B",
">  c #716E72",
",  c #737373",
"<  c #77797A",
"1  c #7B7B7C",
"2  c #FD5C5F",
"3  c #E65C65",
"4  c #EC5B66",
"5  c #EC5E6A",
"6  c #FD5767",
"7  c #F65D65",
"8  c #FB5B64",
"9  c #FF5769",
"0  c #F55D69",
"q  c #FA5B69",
"w  c #E6646E",
"e  c #EB616C",
"r  c #F0616A",
"t  c #E96672",
"y  c #E66B75",
"u  c #EA6D7B",
"i  c #E5747D",
"p  c #E97D83",
"a  c #E77E88",
"s  c #EE7D8B",
"d  c #F17282",
"f  c #F17F8C",
"g  c #7E8183",
"h  c #848485",
"j  c #848689",
"k  c #86888A",
"l  c #8B8C8C",
"z  c #8B8E90",
"x  c #8D9093",
"c  c #939494",
"v  c #959798",
"b  c #96999C",
"n  c #9B9C9D",
"m  c #9C9FA3",
"M  c #A39EA1",
"N  c #9EA1A4",
"B  c #A4A4A5",
"V  c #A5A7A8",
"C  c #A6A9AB",
"Z  c #ABABAB",
"A  c #AEB0AF",
"S  c #ACAFB1",
"D  c #B0AFB1",
"F  c #AEB2B5",
"G  c #AFB4B8",
"H  c #B4B4B4",
"J  c #B2B6BA",
"K  c #B6BABD",
"L  c #BCBCBC",
"P  c #ED8289",
"I  c #F0818D",
"U  c #EA8C93",
"Y  c #EA8E99",
"T  c #E99092",
"R  c #E6979F",
"E  c #EB949A",
"W  c #E8999E",
"Q  c #E599A0",
"!  c #EC9FA7",
"~  c #F19DA6",
"^  c #E5A4AA",
"/  c #ECA3AC",
"(  c #ECACB2",
")  c #EEB3B6",
"_  c #EDB6BB",
"`  c #F1B4B5",
"'  c #BABEC2",
"]  c #EEB9C0",
"[  c #F3BDC1",
"{  c #BDC1C4",
"}  c #C3C3C4",
"|  c #C1C5C8",
" . c #C5C9CC",
".. c #CBCCCC",
"X. c #CACED1",
"o. c #CDD1D4",
"O. c #D3D4D5",
"+. c #D2D7DA",
"@. c #D5DADE",
"#. c #DADCDD",
"$. c #F0C5C7",
"%. c #F4C6C8",
"&. c #F5CCCC",
"*. c #F9C8CC",
"=. c #F8D3CF",
"-. c #FAD5D6",
";. c #F7D9D7",
":. c #F5D6D8",
">. c #F5D9DA",
",. c #FCDCDF",
"<. c #F9E3DD",
"1. c #D7DCE0",
"2. c #DADEE1",
"3. c #E1DFE1",
"4. c #FCDEE0",
"5. c #DEE2E5",
"6. c #E1E1E1",
"7. c #E3E4E4",
"8. c #E2E5E7",
"9. c #E8E7E7",
"0. c #E1E6E8",
"q. c #E4E7E9",
"w. c #E6E9EB",
"e. c #E7EAED",
"r. c gray92",
"t. c #E8EBED",
"y. c #EBECEC",
"u. c #EDEEEE",
"i. c #FAE3E3",
"p. c #FAE9E5",
"a. c #FCE7E9",
"s. c #F0EEEF",
"d. c #FCEDEB",
"f. c #ECEFF0",
"g. c #FCEFF2",
"h. c #EEF1F2",
"j. c #EFF1F2",
"k. c #F0F3F3",
"l. c #F3F3F3",
"z. c #F1F3F4",
"x. c #F4F4F5",
"c. c #F6F7F7",
"v. c #FDF5F4",
"b. c #FBFAF6",
"n. c #F6F7F8",
"m. c #FCF7F9",
"M. c #F7F8F8",
"N. c #F8F8F8",
"B. c #FAFBFB",
"V. c #FBFBFB",
"C. c #FBFBFC",
"Z. c #FBFCFC",
"A. c #FDFEFE",
/* pixels */
"M.#.+.+.@.o.+.+.+.+.+.+.+.+.O.O.+.+.+.+.+.+.+.+.+.+.@.+.+.+.@.+.+.+.+.+.+.+.+.+.+.+.+.+.+.+.+.+.+.+.+.+.+.+.+.+.+.+.+.+.+.+.O.O.",
"c.@.+.+.+.+.+.+.+.+.+.+.+.+.+.+.+.+.+.+.+.+.+.+.+.+.+.+.+.+.+.+.+.+.+.+.+.+.@.+.+.+.+.+.+.+.+.+.+.+.+.+.@.@.@.+.+.@.+.+.+.+.@.#.",
"c.+.+.@.@.@.@.@.@.@.@.@.@.@.@.#.@.@.@.@.#.#.#.#.@.@.@.@.@.@.@.+.+.+.@.2.8.e.t.e.0.5.1.@.@.@.@.@.@.1.5.0.e.t.e.0.8.5.5.2.@.+.@.f.",
"h.+.@.f.k.k.k.k.k.k.k.k.k.z.B.B.B.B.B.B.B.B.B.B.B.B.B.B.B.B.n.0.@.5.c.B.B.A.A.A.B.B.B.c.z.k.k.z.c.B.B.B.A.A.A.C.B.B.B.B.c.@.@.h.",
"#.+.2.B.A.A.A.A.A.A.A.A.A.A.A.A.A.A.A.A.A.A.A.A.A.A.A.A.A.A.A.e.@.8.B.A.A.A.A.A.A.A.A.A.A.A.A.A.A.A.A.A.A.A.A.A.A.A.A.A.B.@.@.h.",
"+.+.8.B.A.A.A.A.A.A.A.A.A.A.A.A.A.A.A.A.A.A.A.A.A.A.A.A.A.A.A.e.@.0.C.A.A.A.A.A.A.A.A.A.A.A.A.A.A.A.A.A.A.A.A.A.A.A.A.A.B.@.@.k.",
"+.+.q.Z.A.A.A.A.A.A.A.A.A.A.A.A.A.A.A.A.A.A.A.A.A.A.A.A.A.A.Z.w.@.t.A.A.A.A.A.A.A.A.A.A.A.A.A.A.A.A.A.A.A.A.A.A.A.A.A.A.B.@.@.h.",
"+.+.5.B.A.A.A.A.A.A.A.A.A.A.A.A.A.A.A.A.A.A.A.A.A.A.A.A.A.A.C.0.@.t.A.A.A.A.A.A.A.A.A.A.A.A.A.A.A.A.A.A.A.A.A.A.A.A.A.A.B.@.@.k.",
"+.+.5.B.A.A.A.A.A.A.A.A.A.A.A.A.A.A.A.A.A.A.A.A.A.A.A.A.A.A.A.e.@.t.A.A.A.A.A.A.A.A.A.A.A.A.A.A.A.A.A.A.A.A.A.A.A.A.A.A.B.@.@.k.",
"+.+.1.B.A.A.A.A.A.A.A.A.A.A.A.A.A.A.A.A.A.A.A.A.A.A.A.A.A.A.A.t.@.e.A.A.A.A.A.A.A.A.A.A.A.A.A.A.A.A.A.A.A.A.A.A.A.A.A.A.B.@.@.k.",
"+.+.@.n.A.A.A.A.A.A.A.A.A.A.A.A.A.A.A.A.A.A.A.A.A.A.A.B.c.k.r.#. .O.u.k.B.A.A.A.A.A.A.A.A.A.A.A.A.A.A.A.A.A.A.A.A.A.A.A.B.@.@.k.",
"+.+.@.z.A.A.A.A.A.A.A.A.A.A.A.A.A.A.A.A.A.A.A.B.c.u.8.o.H c < ; & ; l n L #.u.k.A.A.A.A.A.A.A.A.A.A.A.A.A.A.A.A.A.A.A.A.B.@.@.k.",
"+.+.@.z.A.A.A.A.A.A.A.A.A.A.A.A.A.A.A.A.A.B.r...V , O o o o o o o o o . . @ 1 B O.k.A.A.A.A.A.A.A.A.A.A.A.A.A.A.A.A.A.A.B.#.@.k.",
"+.+.@.c.A.A.A.A.A.A.A.A.A.A.A.A.A.A.A.A.k...< o o o o @ : c Z L L H c : O o . . @ c 6.B.A.A.A.A.A.A.A.A.A.A.A.A.A.A.A.A.B.#.@.h.",
"+.+.1.B.A.A.A.A.A.A.A.A.A.A.A.A.A.A.B.9.Z @ o O : n ..8.r.k.c.B.B.c.k.r.6.L l @ . o , ..k.A.A.A.A.A.A.A.A.A.A.A.A.A.A.A.B.#.@.h.",
"+.+.5.B.A.A.A.A.A.A.A.A.A.A.A.A.A.B.O.1 o O n #.r.k.B.A.B.c.c.c.B.B.A.A.A.B.u.3.Z : O @ n 6.c.A.A.A.A.A.A.A.A.A.A.A.A.A.B.#.@.h.",
"+.+.8.B.A.A.A.A.A.A.A.A.A.A.A.A.A.6., o * L u.A.A.A.A.c.#.| { | +.5.r.c.M.B.B.A.c.6.n @ o * H k.A.A.A.A.A.A.A.A.A.A.A.A.B.@.@.f.",
"+.@.t.A.A.A.A.A.A.A.A.A.A.A.A.A.8.h o * } c.A.A.B.c.q.X.' ' K K K ' ' {  .X.2.h.A.A.k.} ; . O H c.A.A.A.A.A.A.A.A.A.A.A.z.@.2.y.",
"+.@.t.A.A.A.A.A.A.A.A.A.A.A.B.8.c O ; O.c.A.B.c.5. .' K J Z C c z z x N F K '  .u.B.A.B.O.< . @ ..B.A.A.A.A.A.A.A.A.A.A.h.@.5.w.",
"#.@.t.A.A.A.A.A.A.A.A.A.A.B.#.l o # O.B.A.c.5. .' K S b l , 1 l l l h ; : l B J | 8.c.A.B.6.h o , 8.A.A.A.A.A.A.A.A.A.A.t.@.q.8.",
"t.@.0.B.A.A.A.A.A.A.A.A.A.r.h . o H c.A.c...K N n v , l O.u.c.B.A.A.B.#.n * @ h C ' o.k.A.A.#.; o Z c.A.A.A.A.A.A.A.A.C.0.@.e.8.",
"k.+.2.B.A.A.A.A.A.A.A.A.c.Z o   1 r.A.c.+.K b = k Z ..k.B.B.B.B.B.B.B.C.B.8.S - # n K O.M.A.c.H O @ O.A.A.A.A.A.A.A.A.B.5.@.y.5.",
"c.+.@.B.A.A.A.A.A.A.A.A.6.#   # O.B.c.+.' C ; A u.B.A.v.a.i.i.4.a.g.v.m.B.C.B.+.; O n ' 8.A.A.r.1 o c k.A.A.A.A.A.A.A.B.5.@.y.2.",
"k.+.2.B.A.A.A.A.A.A.A.c.Z . . H c.B.5.{ K 1 c u.B.b.v.%.Y s f I U Q ^ [ p.b.B.B.O.$ % C  .c.A.B.L o @ #.A.A.A.A.A.A.A.B.5.@.y.5.",
"w.@.0.C.A.A.A.A.A.A.A.u.<   # 6.B.5.{ ' B < 8.B.b.d.) i 5 0 q 7 7 3 5 w W <.b.M.B.X.% k K @.B.A.8.* o V c.A.A.A.A.A.A.C.0.@.t.q.",
"5.@.e.A.A.A.A.A.A.A.A.r.#   h u.u.| K L < ' B.B.v.` y 0 8 6 8 8 8 8 6 8 w T -.b.B.C.D * F { u.A.c.Z o * 8.A.A.A.A.A.A.A.t.@.q.8.",
"0.+.0.B.A.A.A.A.A.A.A.8.O . V k.2.K ' n 1 h.C.B.&.p 0 6 8 8 8 7 8 8 8 8 8 r P %.v.C.8.* c ' +.B.A.8.; o L c.A.A.A.A.A.A.t.@.q.8.",
"y.+.2.c.A.A.A.A.A.A.A.r.* o L c.#.' S ; } B.B.p.U e 7 8 6 6 8 7 8 8 8 6 6 6 0 a :.C.B.l ; J X.M.A.c.A O < r.A.A.A.A.A.A.y.@.8.q.",
"c.+.@.y.A.A.A.A.A.A.A.6.@ o ..B.y.' v < c.B.B._ w q 8 7 6 9 6 7 8 7 8 6 6 8 q w / v.B.} @ v  .c.A.A.8.; O #.A.A.A.A.A.A.k.@.2.t.",
"M.@.+.w.A.A.A.A.A.A.c.H o @ 6.A.c.' b c B.B.d.E 4 6 6 8 q 6 6 7 8 6 q q 6 8 8 0 s i.B.u.1 < { c.A.A.r.1 O } B.A.A.A.A.A.n.2.@.w.",
"M.@.+.5.c.n.z.k.k.z.q., . h u.A.c.' b n B.B.,.f q 6 8 8 q q 6 8 8 6 0 0 6 8 8 q u >.M.k.l < ' k.A.B.O.O + O.n.B.B.B.B.B.c.5.@.w.",
"c.+.+.+.@.@.@.@.@.@...o o ..B.A.w.' N n B.B.-.d q 8 7 8 q 6 8 2 8 8 0 0 6 8 8 q u >.M.k.c B ' w.A.B.} o % | @.@.@.@.@.@.@.+.@.w.",
"5.+.+.@.#.#.2.#.@.@.| X o 6.A.B.#.' V c A.B.-.d q 8 8 6 6 6 8 2 8 8 0 0 7 7 8 q s i.M.k.v F ' 2.B.B.O.O o Z +.@.@.@.@.@.@.+.@.w.",
"@.+.@.c.B.B.B.B.B.c.+.o o 6.A.B.#.' C h M.A.,.s 0 8 8 6 6 8 8 8 8 6 q 0 8 8 8 0 E d.M.k.c J ' #.B.A.8.* . B f.B.B.B.B.B.n.0.@.0.",
"+.+.2.B.A.A.A.A.A.A.8.@ o } B.A.q.' N ; 8.B.v.R 3 7 8 8 q q 8 8 8 6 6 q 8 8 6 e ( b.B.8.< S ' 2.B.B...O o L B.A.A.A.A.A.Z.w.@.0.",
"+.+.e.A.A.A.A.A.A.A.u., o n k.A.k.' F h ..B.v.) w 7 8 8 8 8 8 8 8 q 6 6 7 8 8 y $.B.B.Z h K { t.C.6.:   * 8.A.A.A.A.A.A.n.5.1.f.",
"+.@.h.A.A.A.A.A.A.A.c.Z o * r.A.c. .J l B B.B.*.u 8 6 8 8 8 8 8 7 8 6 6 8 8 e E p.A.r.1 Z ' O.M.c.Z o O { B.A.A.A.A.A.A.y.@.5.c.",
"+.@.h.A.A.A.A.A.A.A.A.O.o o O.A.B.2.K N 1 8.B.p.Y 0 8 8 8 8 8 8 r 8 8 8 6 0 U ;.B.c.Z l K ' u.A.r., . c u.A.A.A.A.A.A.C.0.@.e.n.",
"+.@.y.A.A.A.A.A.A.A.A.r.* . V c.A.k.{ G c H c.M.,.~ y e q 6 8 7 8 6 8 0 5 p =.v.B.X.g K ' O.B.A.8.@ o ..B.A.A.A.A.A.A.C.0.@.e.n.",
"+.+.0.C.A.A.A.A.A.A.A.k.n . # 6.A.B.o.K C > } M.b.a.[ U u t w w e 5 w y U &.v.b.3.k b K | u.A.A.6.o o 6.A.A.A.A.A.A.A.A.t.@.0.c.",
"+.+.5.B.A.A.A.A.A.A.A.A.O.@ X V k.A.q.' J j ; ..B.B.v.i.%._ ( / ! ~ / ] p.b.M.s.M h G ' 5.B.A.B...o @ 8.A.A.A.A.A.A.A.A.z.@.2.h.",
"@.+.2.B.A.A.A.A.A.A.A.A.k.c o @ O.B.c.X.K J k , ..n.B.B.A.A.B.v.v.v.v.B.C.C.u.L B K J o.c.A.A.k.B o , r.A.A.A.A.A.A.A.A.B.1.1.h.",
"0.+.@.c.A.A.A.A.A.A.A.A.A.6.1 o 1 r.A.r.| J J n - Z k.Z.B.B.B.B.B.B.A.A.B.O.c L #.K { u.A.A.c...# o Z c.A.A.A.A.A.A.A.A.B.@.@.h.",
"n.@.@.z.A.A.A.A.A.A.A.A.A.A.#.& O H c.B.w. .' J m h n O.k.k.k.k.k.k.9...n c } #.| ' o.M.A.c.} *   * 6.A.A.A.A.A.A.A.A.A.B.@.@.h.",
"n.+.@.k.A.A.A.A.A.A.A.A.A.A.c.Z o * 6.A.C.f.@.| K F n h l c c l h h < : Z O.o.{ { +.k.A.k.L @   * } B.A.A.A.A.A.A.A.A.A.c.@.2.h.",
"n.@.@.k.A.A.A.A.A.A.A.A.A.A.A.8.; o Z k.A.A.B.h.+.' K J L K V z k B L ..#.| '  .8.M.A.u.V @ . , O.b.A.A.A.A.A.A.A.A.A.A.y.@.0.z.",
"n.+.@.k.A.A.A.A.A.A.A.A.A.A.A.B.L O @ ..c.A.A.A.c.#.{ ' ' ' ' K K ' ' ' ' { o.t.B.A.u.V o . h 6.B.A.A.A.A.A.A.A.A.A.A.A.t.@.w.z.",
"n.@.@.k.A.A.A.A.A.A.A.A.A.A.A.A.u.n o : ..c.A.A.A.B.k.2.X.X.X.X.X.X.X.X.@.8.c.A.B.r.Z O . h 6.A.A.A.A.A.A.A.A.A.A.A.A.A.y.@.5.z.",
"n.+.@.k.A.A.A.A.A.A.A.A.A.A.A.A.A.8., . # L r.c.A.A.A.B.B.B.B.B.B.B.B.b.B.B.c.u.O.c O o h 6.A.A.A.A.A.A.A.A.A.A.A.A.A.A.c.@.2.h.",
"n.+.@.f.A.A.A.A.A.A.A.A.A.A.A.A.A.B...#   o 1 H O.6.8.r.r.r.r.u.k.k.k.k.r.O.H h @ o # V 8.A.A.A.A.A.A.A.A.A.A.A.A.A.A.A.B.2.@.e.",
"M.@.+.w.Z.A.A.A.A.A.A.A.A.A.A.A.A.A.B.O.< o . o o o O ; : : , h c c c l : o o o O h O.k.A.A.A.A.A.A.A.A.A.A.A.A.A.A.A.A.B.5.@.0.",
"B.@.+.5.B.A.A.A.A.A.A.A.A.A.A.A.A.A.A.B.r.L l ; O o o o o o o o o o o o o o * l ..u.B.A.A.A.A.A.A.A.A.A.A.A.A.A.A.A.A.A.B.5.@.0.",
"B.@.+.8.B.A.A.A.A.A.A.A.A.A.A.A.A.A.A.A.A.B.k.r.8.8.3.} L L Z k h l c v Z ..8.k.B.A.A.A.A.A.A.A.A.A.A.A.A.A.A.A.A.A.A.A.B.5.@.0.",
"B.@.+.q.C.A.A.A.A.A.A.A.A.A.A.A.A.A.A.A.A.A.A.A.A.A.A.B.B.B.k.o.o.u.k.k.c.B.A.A.A.A.A.A.A.A.A.A.A.A.A.A.A.A.A.A.A.A.A.A.B.1.@.0.",
"M.@.@.t.A.A.A.A.A.A.A.A.A.A.A.A.A.A.A.A.A.A.A.A.A.A.A.A.A.A.B.@.2.B.A.A.A.A.A.A.A.A.A.A.A.A.A.A.A.A.A.A.A.A.A.A.A.A.A.A.B.@.@.8.",
"M.@.@.t.A.A.A.A.A.A.A.A.A.A.A.A.A.A.A.A.A.A.A.A.A.A.A.A.A.A.z.@.5.B.A.A.A.A.A.A.A.A.A.A.A.A.A.A.A.A.A.A.A.A.A.A.A.A.A.A.z.@.2.8.",
"B.@.@.t.A.A.A.A.A.A.A.A.A.A.A.A.A.A.A.A.A.A.A.A.A.A.A.A.A.A.h.@.8.B.A.A.A.A.A.A.A.A.A.A.A.A.A.A.A.A.A.A.A.A.A.A.A.A.A.A.h.@.5.8.",
"B.@.@.e.A.A.A.A.A.A.A.A.A.A.A.A.A.A.A.A.A.A.A.A.A.A.A.A.A.A.f.@.q.Z.A.A.A.A.A.A.A.A.A.A.A.A.A.A.A.A.A.A.A.A.A.A.A.A.A.A.f.1.0.q.",
"B.@.+.0.C.A.A.A.A.A.A.A.A.A.A.A.A.A.A.A.A.A.A.A.A.A.A.A.A.A.f.@.5.B.A.A.A.A.A.A.A.A.A.A.A.A.A.A.A.A.A.A.A.A.A.A.A.A.A.A.f.@.5.y.",
"B.@.+.8.B.A.A.A.A.A.A.A.A.A.A.A.A.A.A.A.A.A.A.A.A.A.A.A.A.A.k.@.5.B.A.A.A.A.A.A.A.A.A.A.A.A.A.A.A.A.A.A.A.A.A.A.A.A.A.A.h.@.2.h.",
"M.@.+.0.M.Z.A.A.A.A.A.C.B.B.B.B.B.B.B.B.B.B.B.B.B.B.B.B.B.B.h.@.@.c.B.B.B.B.B.B.B.B.B.B.B.B.B.B.B.B.B.B.B.B.z.k.k.k.k.k.f.@.@.k.",
"c.+.+.1.5.w.e.t.t.t.e.0.5.5.5.5.8.8.5.5.5.5.5.5.8.8.5.5.2.@.@.+.+.@.@.@.@.@.@.@.#.#.@.@.@.1.5.5.8.8.5.5.2.@.@.@.@.@.@.@.@.+.@.h.",
"c.@.+.+.+.@.@.@.@.@.@.@.@.@.@.@.@.@.@.@.@.@.@.@.@.@.@.@.@.+.+.+.@.@.+.+.+.+.+.+.@.@.@.+.+.+.+.@.@.@.@.@.+.@.@.1.@.@.@.@.+.+.@.0.",
"M.2.+.+.@.+.+.+.+.+.+.+.@.@.#.2.5.5.8.5.5.5.5.2.2.2.2.2.#.@.@.@.@.#.#.+.+.+.O.+.+.O.O.+.+.O.+.+.+.#.@.@.@.2.@.+.+.+.+.+.O.+.@.+."
};
