/* XPM */
static char *fb5daf30a1784787e81f41f93a12694dPXaCSM233qps7wyV[] = {
/* columns rows colors chars-per-pixel */
"64 64 145 2 ",
"   c #3C4441",
".  c #4B4949",
"X  c #555556",
"o  c #565A5B",
"O  c #656565",
"+  c #6C6C6C",
"@  c #706E6E",
"#  c #706F70",
"$  c #6E7072",
"%  c #747474",
"&  c #7B7D7C",
"*  c #F65C5F",
"=  c #FB5D5E",
"-  c #EF5E66",
";  c #EF5D6C",
":  c #FE5763",
">  c #F65D65",
",  c #FB5B64",
"<  c #FE576A",
"1  c #F55D6B",
"2  c #FB5B69",
"3  c #DF6A73",
"4  c #EC616D",
"5  c #F0606C",
"6  c #E46671",
"7  c #EA6471",
"8  c #E36D75",
"9  c #EB6A75",
"0  c #E46F7B",
"q  c #E86F78",
"w  c #E5727C",
"e  c #7C817F",
"r  c #7F7E81",
"t  c #837F81",
"y  c #EB7381",
"u  c #E47A83",
"i  c #E97D84",
"p  c #EC7C8A",
"a  c #848484",
"s  c #8B8B8B",
"d  c #939393",
"f  c #969598",
"g  c #969698",
"h  c #9A9698",
"j  c #9A9A9B",
"k  c #9FA3A4",
"l  c #A3A3A3",
"z  c #A7A6A8",
"x  c #A6ADAE",
"c  c #ADADAD",
"v  c #AFAFB1",
"b  c #B3B4B4",
"n  c #B7B8B7",
"m  c #B6B7B9",
"M  c #B5B8B9",
"N  c #BBBBBC",
"B  c #E68085",
"V  c #E5858C",
"C  c #EE818F",
"Z  c #E68A8E",
"A  c #E68D94",
"S  c #E98E98",
"D  c #F28393",
"F  c #F08D99",
"G  c #EA949A",
"H  c #F2949E",
"J  c #EF9EA9",
"K  c #F396A1",
"L  c #F29FAA",
"P  c #EFA6AE",
"I  c #EDA9AA",
"U  c #EDABB3",
"Y  c #F1A9B2",
"T  c #EDB3B5",
"R  c #EFB9BD",
"E  c #F0B2B1",
"W  c #F0B4B8",
"Q  c #F3BCBC",
"!  c #EDB7C0",
"~  c #E9BEC3",
"^  c #C3C4C4",
"/  c #C7C9CB",
"(  c #CBCBCC",
")  c #CDCFD1",
"_  c #D3CFD3",
"`  c #CED2D5",
"'  c #D3D4D6",
"]  c #D8D7D7",
"[  c #D4D6D9",
"{  c #D6D9DC",
"}  c #DADCDD",
"|  c #EDC3C7",
" . c #EFC6C8",
".. c #F3C2C3",
"X. c #F8C6C4",
"o. c #F2C7CC",
"O. c #F4C9CF",
"+. c #F7D3CD",
"@. c #F4CFD1",
"#. c #F7D5D7",
"$. c #FAD2D4",
"%. c #F7DCDE",
"&. c #F7E0DE",
"*. c #DCDEE1",
"=. c #E2DFE2",
"-. c #DEE1E3",
";. c #E2E3E4",
":. c #E6E8E7",
">. c #E4E6E9",
",. c #E8E7E8",
"<. c #E6E9EB",
"1. c #EAECED",
"2. c #F7E0E1",
"3. c #FBE4E5",
"4. c #FCEEE7",
"5. c #FCE6E8",
"6. c #FDECEB",
"7. c #EEF0EF",
"8. c #FDF2EE",
"9. c #EAEEF1",
"0. c #EEEEF0",
"q. c #F0EFF0",
"w. c #EDF1F2",
"e. c #EEF2F4",
"r. c #F1F1F2",
"t. c #F2F3F5",
"y. c #F3F4F4",
"u. c #F4F5F6",
"i. c #F6F7F7",
"p. c #FDF5F4",
"a. c #F6F8F7",
"s. c #FCFAF6",
"d. c #F3F6F8",
"f. c #F6F7F8",
"g. c #FCF7F9",
"h. c #F7F8F9",
"j. c #F7FBFC",
"k. c #F8F9F9",
"l. c #FAFAF9",
"z. c #FBFBFB",
"x. c #FEFDFB",
"c. c #F9FBFC",
"v. c #FDFBFC",
"b. c #F9FDFE",
"n. c #FDFFFF",
/* pixels */
"h.*.[ [ { ` [ [ [ [ [ [ [ [ ' ' ' [ [ [ [ [ [ [ [ [ { [ ' [ { { [ { { [ [ [ [ [ [ [ [ [ [ [ [ [ [ [ [ [ { { { { { [ ' [ ' [ ' ' ",
"k.{ { -.{ -.*.{ *.*.*.} } } } *.-.*.*.*.*.*.*.*.*.*.} } *.} } *.} } *.*.} { } { { { { *.*.*.*.*.*.*.-.} -.>.>.;.>.;.} } } } *.*.",
"k.} ' 9.y.d.e.y.f.d.y.t.t.y.u.k.b.n.b.b.n.n.n.n.b.b.k.k.c.k.k.b.b.b.b.k.d.e.e.9.1.1.1.9.e.y.d.h.j.b.j.j.j.b.b.h.k.c.f.t.f.f.t.e.",
"y.} } d.b.b.b.b.b.n.n.n.n.n.n.n.n.n.n.n.n.n.n.n.n.n.n.n.k.n.n.n.n.n.n.n.n.b.b.b.b.b.b.n.n.n.n.n.n.b.b.n.b.b.b.b.n.n.n.n.n.b.h.y.",
"} { { y.b.b.b.b.b.n.n.n.n.n.n.n.n.n.n.n.n.n.n.n.n.k.n.n.n.n.n.n.n.n.c.k.n.n.n.n.n.n.n.n.n.n.n.n.n.n.n.n.b.b.c.n.n.n.n.n.n.n.n.u.",
"[ [ -.d.b.n.n.b.c.c.n.n.n.n.n.n.n.n.n.n.n.n.n.n.n.n.n.k.k.n.k.n.n.k.q.,.r.n.n.n.n.n.n.n.n.n.n.n.n.n.n.n.b.b.n.n.n.k.n.n.n.n.c.f.",
"[ { <.h.b.b.b.t.1.t.n.n.n.n.n.n.n.n.n.n.n.n.n.n.n.n.n.n.n.k.n.n.n.k.<.{ 1.n.n.n.n.n.n.n.n.n.n.n.n.n.n.n.c.b.c.n.n.n.n.k.k.n.n.u.",
"[ { 9.b.n.n.b.>.{ 1.c.n.n.n.n.n.n.n.n.n.n.n.n.n.n.n.n.n.n.n.n.n.n.k.>.] ,.n.n.n.n.n.n.n.n.n.n.n.n.n.n.1.>.r.n.n.n.n.n.n.n.n.n.u.",
"[ { 1.c.n.n.k.*.[ 1.n.n.n.n.n.n.n.n.x.x.n.n.n.n.n.n.n.n.n.n.n.n.n.k.<.} 1.n.n.n.n.n.n.n.n.n.n.n.n.n.n.>.{ 1.c.n.v.v.n.n.n.n.n.u.",
"[ { >.k.n.n.f.} [ 0.n.n.n.n.n.n.n.n.n.n.n.n.n.n.n.n.n.n.n.n.n.n.n.n.u.r.u.n.n.n.n.n.n.n.n.n.n.n.n.n.n.<.} >.k.n.n.n.n.n.n.n.n.u.",
"[ [ ;.h.n.n.f.*.' <.b.n.n.n.n.n.n.n.n.n.n.n.n.n.n.n.n.n.n.n.n.n.n.n.n.n.n.n.n.n.n.n.n.n.n.n.n.k.k.n.n.<.} :.k.n.n.n.n.n.n.n.n.u.",
"[ [ ;.h.n.n.k.<.} <.k.n.n.n.n.n.n.n.n.n.n.n.n.n.n.n.n.n.n.n.n.n.n.n.n.n.n.n.n.n.n.n.n.n.n.n.n.1.0.k.n.;.' <.n.n.n.n.n.n.n.n.n.u.",
"[ [ -.k.n.n.n.u.1.y.n.n.n.n.n.n.n.n.n.n.n.n.n.n.n.n.n.n.n.n.n.n.n.n.n.n.n.n.n.n.n.n.n.n.n.n.k.;.;.f.n.-.[ 7.n.n.n.x.x.x.n.n.n.u.",
"[ [ *.h.n.n.n.n.k.n.n.n.n.n.n.n.n.n.n.n.n.n.n.n.n.n.n.n.n.n.n.n.n.n.n.n.n.n.n.n.n.n.n.n.n.n.k.*.} r.b.e.1.u.n.n.n.n.x.x.n.n.n.u.",
"[ { *.h.n.n.n.n.n.n.n.n.n.n.n.n.n.n.n.n.k.u.u.k.n.n.n.n.n.n.n.n.n.n.n.n.n.n.n.n.n.n.n.n.n.n.c.;.} 0.b.b.h.b.n.n.n.x.x.x.n.n.n.u.",
"[ { ;.h.n.n.n.n.n.n.n.n.n.n.n.n.n.n.n.n.k.>.>.u.n.n.n.n.n.n.n.n.n.n.n.n.n.n.n.n.n.n.n.n.n.n.n.>.{ 1.n.n.n.n.n.n.n.x.n.n.n.n.n.u.",
"[ [ ;.f.n.n.n.n.n.n.n.n.n.n.n.n.n.n.n.n.k.} } 0.b.n.n.n.n.k.k.k.k.u.u.k.n.n.n.n.n.n.n.n.n.n.k.;.{ r.n.n.n.n.n.n.n.n.n.n.n.n.n.t.",
"{ [ *.f.n.n.n.n.n.n.n.n.n.n.n.n.n.n.n.n.h.*.{ 1.k.b.b.r.( b n n c l l n ' 1.k.n.n.n.n.n.n.n.k.;.} u.n.n.n.n.n.n.n.n.n.n.n.n.n.0.",
"{ [ *.f.n.n.n.n.n.n.n.n.n.n.n.n.n.n.n.n.y.} { 1.k.r.^ j a % a d d d s % O % j ' k.n.n.n.n.n.k.r.r.k.n.n.n.n.n.n.n.n.n.n.n.n.k.1.",
";.{ { r.n.n.n.n.n.n.n.n.n.n.n.n.h.t.b.b.1.[ / M b r # b ;.1.r.u.u.k.u.,.^ a X X l ,.n.n.n.n.n.n.n.n.n.n.n.n.n.n.n.n.n.n.n.n.k.>.",
"k.*.[ 1.n.n.n.n.n.n.n.n.n.n.n.k.7.;.y.h.;.^ % + d z { u.k.k.k.x.k.k.k.k.k.r.' s X % } k.n.n.n.n.n.n.n.n.n.n.n.n.n.n.n.n.n.n.f.;.",
"k.*.[ 1.k.n.n.n.n.n.n.n.n.n.n.k.<.{ 1.d.-.s & ;.k.k.k.p.6.6.6.6.8.g.g.k.k.k.c.u.m . @ } n.n.n.n.n.n.n.n.n.n.n.n.n.n.n.n.n.n.u.-.",
"k.*.} >.u.x.n.n.n.x.n.n.n.n.n.k.<.[ :.h.M + ] k.k.k.p.o.J K K K L U ~ o.5.k.k.v.u.b   e 1.n.n.n.n.n.n.n.n.n.n.n.n.n.n.n.n.n.f.*.",
"k.} [ >.k.k.n.n.x.n.n.n.n.n.n.k.:.{ 1.) $ N k.k.s.8.T u 7 1 1 5 4 6 3 0 A %.s.s.k.y.x o c n.n.n.n.n.n.n.n.n.n.n.n.n.n.n.n.n.k.;.",
"k.} [ :.k.n.n.n.n.n.n.n.n.n.n.r.{ } 1.s j u.g.s.6.I q ; > 2 , > > > > 1 4 Z +.8.s.b.u.l O =.n.n.n.n.n.n.n.n.n.n.n.n.n.n.n.n.k.>.",
"k.} [ <.k.n.n.n.n.x.n.n.n.n.n.q.{ *.b O { c.k.p...9 , 2 : : > * : : : : 2 4 i X.8.k.g.=.O c k.n.n.n.n.n.n.n.n.n.n.n.n.n.n.x.k.>.",
"k.} [ 1.k.n.n.n.x.x.n.n.n.n.n.u.>.} & l u.c.x.$.B 4 , : : : > > , , > , : , > y W p.g.q.a % <.n.n.n.n.n.n.n.n.n.n.n.n.n.n.n.k.>.",
"k.} [ 1.n.n.n.n.x.x.n.n.n.n.n.x.u.N O } k.k.6.G 4 > > , : 2 2 > > > > , 2 : 2 1 u @.g.k.N X n k.n.n.n.n.n.n.n.n.n.n.n.n.n.n.k.<.",
"k.} [ 0.n.n.n.n.n.n.n.n.n.n.n.n.k.M s r.k.k.| 0 > 2 > > < 2 2 > > > 2 2 2 : , > 6 P 8.k.;.O d u.n.n.n.n.n.n.n.n.n.n.n.n.n.n.n.0.",
"k.} [ 0.n.n.n.n.n.n.n.n.n.n.n.n.k.n j k.k.p.U 4 2 2 2 2 2 2 2 > > 2 2 > 2 2 > > 1 C 3.k.k.j & 1.n.n.n.n.n.n.n.n.n.n.n.x.k.n.n.0.",
"k.} [ r.c.n.n.n.n.n.n.n.n.n.n.n.k.N l k.k.6.H 1 2 , : 2 2 2 2 : : 2 2 > 2 : > , 1 y %.k.k.l a q.n.n.n.n.n.n.n.n.n.n.n.n.n.k.c.y.",
"k.} [ r.c.n.n.n.n.n.n.n.n.n.n.n.k.N l k.k.5.D 1 > > > , 2 2 : : : > > > , : > 2 2 y 2.s.k.l c k.n.n.n.n.n.n.n.n.n.n.n.n.n.n.n.y.",
"-.{ ' y.n.n.n.n.n.n.n.n.n.n.n.n.k.n j k.k.5.D 1 , > , 2 2 2 , = : > > > > > > , 1 p 3.s.k.l N k.n.n.n.n.n.n.n.n.n.n.n.n.n.n.n.h.",
"{ { { u.n.n.n.n.n.n.n.n.n.n.n.n.k.n s u.k.6.F 1 > * : 2 , > > > , 2 2 > > > , 2 1 H 6.s.k.l N k.n.n.n.n.n.n.n.n.n.n.n.n.n.n.n.h.",
"[ { -.h.n.n.n.n.n.n.n.n.n.n.n.n.k.n % 1.x.p.U 4 > > , 2 2 2 > > , 2 < 2 > > : 2 4 T p.x.u.d n h.n.n.n.n.n.n.n.n.n.n.n.n.n.n.n.k.",
"[ { <.j.n.n.n.n.n.n.n.n.n.n.n.n.n.' % { k.g.| 8 - > > , 2 2 > > , 2 2 2 > > : 2 8  .s.k.{ % ^ 1.a.n.n.n.n.n.n.n.n.n.n.n.n.n.n.k.",
"[ { e.b.n.n.n.n.n.n.n.n.n.n.n.n.n.r.f ^ k.g.#.i 1 : > > > > > 2 > > 2 2 , > , 5 Z &.k.u.c d } } 1.b.n.n.n.n.n.n.k.k.n.n.n.n.n.k.",
"[ { e.b.n.n.n.n.n.n.n.n.n.n.n.n.n.u.l j r.k.6.S 1 2 , > > > : , > > : : : , 1 i ..s.k.;.& ( >.{ <.k.n.n.n.n.n.k.1.r.n.n.n.n.n.k.",
"[ { 1.b.n.n.n.n.n.n.n.n.n.n.n.n.n.n.{ % [ k.s.O.p 1 > , : : : > > > : : 2 2 9 Q p.k.k.k j r.<.} <.k.n.b.n.n.n.r.;.;.u.n.n.n.n.h.",
"[ { :.h.n.n.n.n.n.n.n.n.n.n.n.n.n.n.k.b j q.k.p.$.G 8 4 2 , > > > , , > 4 8 E 4.s.k.M f 1.k.1.{ :.k.n.n.n.n.n.r.} } y.n.n.n.n.h.",
"[ { ;.h.n.n.n.n.n.n.n.n.n.n.n.n.n.n.n.1.t h r.k.g.6.Q A w 9 6 6 7 4 7 8 V R 6.s.g._ t ' b.k.<.{ :.k.n.k.r.t.k.r.;.} r.n.n.n.b.f.",
"{ { } y.k.n.n.n.n.n.n.n.n.n.n.n.n.n.n.k.( + l r.k.k.g.3.@...R U U Y Y ! %.s.k.k.<.f b r.n.n.>.{ <.k.n.r.*.;.f.r.} } r.n.n.n.b.u.",
">.{ ' t.k.n.n.k.n.x.n.n.n.n.n.n.n.n.n.n.u.( @ l r.b.k.x.k.g.g.g.p.p.p.g.k.k.k.q.v N r.k.n.b.1.>.e.k.n.r.} ;.u.1.} } r.n.n.n.n.u.",
"k.} { e.b.n.k.n.n.n.n.n.n.n.n.n.n.n.n.n.n.u.) + d >.k.b.b.x.x.x.k.k.b.k.k.t.( f N u.b.n.n.n.k.u.b.n.n.e.} ;.u.r.;.>.u.n.k.n.n.u.",
"k.{ ' e.n.n.n.n.n.n.n.n.k.k.n.n.n.n.n.n.n.n.k.' s a ( 1.k.k.k.k.k.k.u.<.' z d N k.n.n.n.x.n.n.n.n.n.n.0.} ;.u.u.1.r.n.n.k.n.n.u.",
"k.} { 1.k.n.n.n.n.n.n.u.1.7.k.n.n.n.n.n.n.n.n.n.u.N d s j l l l l f s % a c <.n.n.n.n.n.n.n.n.n.n.b.b.e.} ;.u.n.k.k.n.n.n.n.n.u.",
"k.} { e.n.n.n.n.n.n.n.r.} ;.h.n.n.n.n.n.n.n.n.n.n.k.,.^ N c j j j j c n } k.n.n.n.n.n.n.n.n.n.n.n.n.n.e.*.;.u.n.n.n.n.n.n.n.n.u.",
"k.} { 1.k.n.n.n.n.x.n.1.{ -.a.n.n.n.n.n.n.n.n.n.n.n.n.k.k.k.u.u.u.u.k.k.n.n.n.n.n.n.n.n.n.n.n.n.n.n.n.h.1.1.k.n.n.n.n.n.n.n.k.u.",
"k.{ { e.b.n.n.n.n.k.n.r.} ;.h.n.n.n.n.n.n.n.n.n.n.n.n.n.n.n.n.n.n.n.n.n.n.n.n.n.n.n.n.n.n.n.n.n.n.n.n.n.n.n.n.n.n.n.n.n.n.n.n.y.",
"k.{ { e.b.b.n.b.r.0.h.0.} ;.k.n.n.n.k.k.n.n.n.n.n.n.n.n.n.n.n.n.n.n.n.n.n.n.n.n.n.n.n.n.n.n.n.n.n.n.n.n.n.n.n.n.n.n.n.n.n.n.b.e.",
"k.{ { 1.c.b.n.k.>.*.r.1.} ;.h.n.n.h.;.;.k.n.n.n.n.n.n.n.n.n.n.n.n.n.n.n.n.n.n.n.n.n.n.n.n.n.n.n.n.n.n.n.n.n.n.n.n.n.n.n.n.n.b.e.",
"k.{ [ ;.k.n.n.f.*.} 1.r.;.>.f.n.n.u.[ } k.n.n.n.n.n.n.n.n.n.n.n.n.n.n.n.k.k.n.n.n.n.n.n.n.n.n.n.n.n.n.n.n.n.n.n.n.n.n.n.n.n.b.0.",
"k.{ [ -.h.n.n.f.-.} r.k.r.r.n.n.n.u.{ ;.k.k.n.n.n.n.n.n.n.n.n.n.n.n.n.u.1.<.k.n.n.n.n.n.n.n.n.n.n.n.n.n.n.n.n.n.n.n.n.n.n.n.b.1.",
"k.} [ -.h.n.n.h.;.} r.n.n.x.n.n.n.u.' } k.n.n.n.n.n.n.n.n.n.n.n.n.n.n.r.;.} r.n.n.n.n.n.n.n.n.n.n.n.n.n.n.n.n.n.n.n.n.n.n.n.k.:.",
"k.} [ ;.k.n.n.b.1.<.u.n.n.n.x.x.n.u.{ } k.n.n.n.n.n.n.n.n.n.n.n.n.n.n.u.;.{ 1.n.n.n.n.n.n.n.n.n.n.n.n.n.n.n.n.n.n.n.n.n.n.n.k.>.",
"k.*.[ ;.k.n.n.n.k.k.n.n.x.x.n.x.n.k.1.r.n.n.n.n.n.n.n.n.n.n.n.n.n.n.n.k.<.} 1.n.n.n.n.n.n.n.n.n.n.n.n.n.n.n.n.n.n.n.n.n.n.n.k.>.",
"k.*.[ >.k.n.n.n.n.n.n.n.n.n.x.x.n.n.k.n.n.n.n.n.n.n.n.n.n.n.n.n.n.n.n.c.<.{ <.n.n.n.n.n.n.n.n.n.n.n.n.n.n.n.n.n.n.n.n.n.n.n.k.;.",
"k.*.[ >.k.n.n.n.n.n.n.x.x.n.x.x.n.n.n.n.n.n.n.n.n.n.n.n.n.n.n.n.n.n.n.u.-.} 1.n.n.n.n.n.n.n.n.n.n.n.n.n.n.n.n.x.x.n.x.x.k.n.k.:.",
"k.} [ >.k.n.n.n.n.n.n.x.x.x.n.x.x.n.n.n.n.n.n.n.n.n.n.n.n.n.n.n.n.n.n.k.1.:.h.n.n.n.n.n.b.n.n.n.n.n.n.n.n.n.n.n.x.x.x.x.x.n.k.0.",
"c.} [ >.h.b.n.n.n.n.n.n.n.n.n.n.n.n.n.n.n.n.n.n.n.n.n.n.n.n.n.n.n.n.n.n.h.f.n.n.n.b.n.n.c.n.n.n.n.n.n.n.n.n.n.n.x.x.x.x.n.n.k.y.",
"c.} [ ;.d.b.n.n.n.n.n.n.b.n.n.n.n.n.n.n.n.n.n.n.n.n.n.n.n.n.n.n.n.n.n.b.b.b.n.n.n.b.n.n.n.n.n.n.c.n.n.n.n.n.n.k.k.n.n.n.b.n.b.u.",
"k.} [ >.d.b.n.b.b.b.c.c.b.b.n.n.n.n.n.n.n.n.n.n.n.n.n.n.n.n.n.n.n.n.n.n.n.c.n.b.b.n.n.n.n.n.n.n.n.n.n.n.b.b.b.b.h.h.k.h.h.b.h.y.",
"k.*.[ -.1.w.9.1.1.1.1.1.0.r.r.y.f.k.k.j.h.j.h.d.d.y.y.t.e.e.e.e.e.e.e.1.1.1.1.1.1.1.1.1.1.1.1.1.1.0.0.e.e.e.e.1.:.:.>.>.:.<.1.>.",
"k.*.[ [ } } { [ [ [ [ [ { *.*.;.>.<.<.<.<.:.>.>.;.;.-.-.*.*.} } } } } ' ' [ ' [ [ ' ' ' { ' ' { ' } } *.*.*.} [ [ { [ [ ' [ { [ "
};
