/* XPM */
static char *_8c087949d7b495df4885aa91d30a3aeCvnzFEP04nH35LTR[] = {
/* columns rows colors chars-per-pixel */
"64 64 66 1 ",
"  c #616364",
". c #2A2A2A",
"X c #222222",
"o c #363637",
"O c #2A2A2A",
"+ c None",
"@ c #4A4A4D",
"# c #8E9194",
"$ c #393939",
"% c gray16",
"& c #2A2A2A",
"* c gray16",
"= c #414242",
"- c #D4D9DE",
"; c #D1D6DB",
": c #D0D6DA",
"> c #D1D8DA",
", c #D0D7DA",
"< c #D0D6DB",
"1 c #D0D6DB",
"2 c #7C8183",
"3 c #DDDDDD",
"4 c #D6D6DE",
"5 c #D1D7DC",
"6 c #D2D8DB",
"7 c #D0D7DA",
"8 c gray16",
"9 c #D0D7DB",
"0 c #D1D7DB",
"q c #D2D7DB",
"w c black",
"e c #A7ABAE",
"r c #AFB3B5",
"t c #737577",
"y c #D7D7D7",
"u c #5E6061",
"i c #BCBCBC",
"p c #F1F1F1",
"a c #515151",
"s c #E4E4E4",
"d c gray63",
"f c #F9FAFA",
"g c #444444",
"h c #494A4B",
"j c #D6DCDF",
"k c #D3D9DD",
"l c #EDF0F1",
"z c #F0F2F3",
"x c #535556",
"c c #E5E8EA",
"v c #7D8082",
"b c #F6F7F8",
"n c gray99",
"m c #D9DEE1",
"M c #DFE3E6",
"N c gray58",
"B c #EAEDEF",
"V c #E2E6E8",
"C c #5F5F5F",
"Z c #E8EBED",
"A c #F3F5F6",
"S c gray79",
"D c #DCE1E4",
"F c #2A2A2A",
"G c #D1D7DB",
"H c white",
/* pixels */
"wwwwwwwwwwwwwwwwwwwwwwwwwwwwwXwwwww4>000>q3wwwww3#22222@qqqwwwww",
"w&888888888888FFFFFFFFFFFFFFFFFFFFhxtvvvvvx+8OFFFFFFFFFFFhxxxh$w",
"wFFFFFFFFFFFFFFFFFFFFFFFFFFFFFFFFFFFFFFFFFFFFFFFFgCCCCCFFFFFFFFw",
"wFFSSSSSSSSSSSHHHHHHHHHHHHHHHHHHHHySdNNNNNSSSyHHHHHHHHHHSSSSSFFw",
"4FFHHHHHHHHHHHHHHHHHHHHHHHHHHHHHHHHHHHHHHHHHHHHHHHHHHHHHHHHHHFFw",
"6FFHHHHHHHHHHHHHHHHHHHHHHHHHHHHHHHHHHHHHHHHHHHHHHHHHHHHHHHHHHFFw",
">hFSHHHHHHHHHHHHHHHHHHHHHHHHHHHHHHHHHHHHHHHHHHHHHHHHHHHHHHHHHFFw",
"quFdHHHHHHHHHHHHHHHHHHHHHHHHHHHHHHHHHHHHHHHHHHHHHHHHHHHHHHHHHFFw",
"qvFNHHHHHHHHHHHHHHHHHHHHHHHHHHHHHHHHHHHHHHHHHHHHHHHHHHHHHHHHHFFw",
"3tFNHHHHHHHHHHHHHHHHHHHHHHHHHHHHHHHHHHHHHHHHHHHHHHHHHHHHHHHHHFFw",
"wxFSHHHHHHHHHHHHHHHHHHHHHHHHHHHHHHHHHHHHHHHHHHHHHHHHHHHHHHHHHFFw",
"woFSHHHHHHHHHHHHHHHHHHHHHHHHHHHHHHHHHHHHHHHHHHHHHHHHHHHHHHHHHFFw",
"w8FSHHHHHHHHHHHHHHHHHHHHHHHHHHHHHHHHHHHHHHHHHHHHHHHHHHHHHHHHHFFw",
"w=FSHHHHHHHHHHHHHHHHHHHHHHHHHHHHHHHHHHHHHHHHHHHHHHHHHHHHHHHHHFFw",
"wxFSHHHHHHHHHHHHHHHHHHHHHHHHHHHHHHHHHHHHHHHHHHHHHHHHHHHHHHHHHFFw",
"-uFiHHHHHHHHHHHHHHHHHHHHHHHHHHHHHHHHHHHHHHHHHHHHHHHHHHHHHHHHHFFw",
"5vFNHHHHHHHHHHHHHHHHHHHHHHHHHHHHHHHHHHHHHHHHHHHHHHHHHHHHHHHHpFFw",
"0vFNHHHHHHHHHHHHHHHHHHHHHHHHHHHHHHHHHHHHHHHHHHHHHHHHHHHHHHHHdF=w",
"0vFNHHHHHHHHHHHHHHHHHHHHHHHHHHHHHHHHHHHHHHHHHHHHHHHHHHHHHHHHNF w",
"0xFNHHHHHHHHHHHHHHHHHHHHHHHHHHHHHHHHHHHHHHHHHHHHHHHHHHHHHHHHdF.w",
"5hFSHHsSSSsHHHHHHHHHHHHHHHHHHHHHHHHHHiSSSSHHHHHHHHHHHHHHHHHHSF8w",
"4FFFFFFFFFFFgCCCCCFFFFaCCCCCCCFFFFFFFFFFFFFFFFFFFFFFFFaCCCCCaF%w",
"whFFFFgCCCFFFFFFFFFFFFFFFFFFFFFFFFFFFgCCCgFFFFFFFFFFFFFFFFFFFF*w",
"4GGHHHHHHHHHSSSSSSsHHpSSSSSSSSBGMHHHHHHHHHHHHHHHHHHHHpSSSSSSreqw",
">GVHHHHHHHHHHHHHHHHHHHHHHHHHHHcGZHHHHHHHHHHHHHHHHHHHHHHHHHHHVG5w",
"9GZHHHHHHHHHHHHHHHHHHHHHHHHHHHDGzHHHHHHHHHHHHHHHHHHHHHHHHHHHZG0w",
"0GVHHHHHHHHHHHHHHHHHHHHHHHHHHHDGAHHHHHHHHHHHHHHHHHHHHHHHHHHHZG0w",
"6GknHHHHHHHHHHHHHHHHHHHHHHHHHHDGAHHHHHHHHHHHHHHHHHHHHHHHHHHHBG<w",
"w1GBHHHHHHHHHHHHHHHHHHHHHHHHHHBGVHHHHHHHHHHHHHHHHHHHHHHHHHHHAG7w",
"w,GVHHHHHHHHHHHHHHHHHHHHHHHHHHfGGHHHHHHHHHHHHHHHHHHHHHHHHHHHnkG-",
"w,GMHHHHHHHHHHHHHHHHHHHHHHHHnHHGGHHHHHHHHHHHHHHHHHHHHHHHHHnHHDGq",
"w7GGGGGGGGGGGGGGDZzAAzVGGGGGGGGGGGGGGGGGGGGGGGDZzAAzVGGGGGGGGGGq",
"wGGGGGGGGGGGGGGGGGGGGGGGmDDDGGGGGGGGGGGGGGGGGGGGGGGGGGmDDDGGGGG5",
"w:GHHHHHHHHHHHHflZDDDDcBnHHHHHHVGZHHHHHHHHHHHflZDDDDcBnHHHHHHVG0",
"6GkHHHHHHHHHHHHHHHHHHHHHHHHHHHHZGZHHHHHHHHHHHHHHHHHHHHHHHHHHHZG0",
"9GZHHHHHHHHHHHHHHHHHHHHHHHHHHHnmGAHHHHHHHHHHHHHHHHHHHHHHHHHHnmGq",
"9GAHHHHHHHHHHHHHHHHHHHHHHHHHHHBGDHHHHHHHHHHHHHHHHHHHHHHHHHHHBG9w",
"9GAHHHHHHHHHHHHHHHHHHHHHHHHHHHMGZHHHHHHHHHHHHHHHHHHHHHHHHHHHMG0w",
"<GBHHHHHHHHHHHHHHHHHHHHHHHHHHHMGZHHHHHHHHHHHHHHHHHHHHHHHHHHHMG0w",
"0GVHHHHHHHHHHHHHHHHHHHHHHHHHHHZGMHHHHHHHHHHHHHHHHHHHHHHHHHHHZG<w",
"6GmHHHHHHHHHHHHHHHHHHHHHHHHHHHAGjHHHHHHHHHHHHHHHHHHHHHHHHHHHAG7w",
"3GGHHHHHHHHHHHHHHHHHHHHHHHHHHHHGGHHHHHHHHHHHHHHHHHHHHHHHHHHHHGGw",
"w1GbHHHHHHHHHHHHHHHHHHHHHHHHHHHGGHHHHHHHHHHHHHHHHHHHHHHHHHHHHGGw",
"w9GAHHHHHHHHHHHHHHHHHHHHHHHHHHHGGHHHHHHHHHHHHHHHHHHHHHHHHHHHHGGw",
"w9GAHHHHHHHHHHHHHHHHHHHHHHHHHHbGjHHHHHHHHHHHHHHHHHHHHHHHHHHHbG7w",
"w9GAHHHHHHHHHHHHHHHHHHHHHHHHHHBGVHHHHHHHHHHHHHHHHHHHHHHHHHHHBG,w",
"w9GAHHHHHHHHHHHHHHHHHHHHHHHHHHZGZHHHHHHHHHHHHHHHHHHHHHHHHHHHZG0w",
"w9GAHHHHHHHHHHHHHHHHHHHHHHHHHHZGVHHHHHHHHHHHHHHHHHHHHHHHHHHHZG,w",
"w9GAHHHHHHHHHHHHHHHHHHHHHHHHHHbGkHHHHHHHHHHHHHHHHHHHHHHHHHHHbG1w",
"w9GzHHHHHHHHHHHHHHHHHHHHHHHHHHHkGbHHHHHHHHHHHHHHHHHHHHHHHHHHHkG-",
"w;GcHHHHHHHHHHHHHHHHHHHHHHHHHHHDGAHHHHHHHHHHHHHHHHHHHHHHHHHHHDGq",
"wqGDHHHHHHHHHHHHHHHHHHHHHHHHHHHDGAHHHHHHHHHHHHHHHHHHHHHHHHHHHDGq",
"wqGDHHHHHHHHHHHHHHHHHHHHHHHHHHHmGAHHHHHHHHHHHHHHHHHHHHHHHHHHHmGq",
"w0GVHHHHHHHHHHHHHHHHHHHHHHHHHHHGGHHHHHHHHHHHHHHHHHHHHHHHHHHHHGGw",
"w;GZHHHHHHHHHHHHHHHHHHHHHHHHHHHGGHHHHHHHHHHHHHHHHHHHHHHHHHHHHGGw",
"w<GZHHHHHHHHHHHHHHHHHHHHHHHHHHAGmHHHHHHHHHHHHHHHHHHHHHHHHHHHAG:w",
"w0GZHHHHHHHHHHHHHHHHHHHHHHHHHHAGDHHHHHHHHHHHHHHHHHHHHHHHHHHHAG9w",
"w0GZHHHHHHHHHHHHHHHHHHHHHHHHHHlGcHHHHHHHHHHHHHHHHHHHHHHHHHHHlG;w",
"w5GMHHHHHHHHHHHHHHHHHHHHHHHHHHlGDHHHHHHHHHHHHHHHHHHHHHHHHHHHlG9w",
"wqGDHHHHHHHHHHHHHHHHHHHHHHHHHHAGjHHHHHHHHHHHHHHHHHHHHHHHHHHHAG7w",
"w0GcHHHHHHHHHHHHHHHHHHHHHHHHHHbGGHHHHHHHHHHHHHHHHHHHHHAAAAAAbGGw",
"w7GjDcZZZZZMDDDDDDDDDDDDDDDDGGGGGGGGGGGGGGGGGGjDDDDDGGGGGGGGGGGw",
"w:GGGGGGGGGGGGGGGGGGGGGGGGGGGGGGGGGGGGGGGGGGGGGGGGGGGG799999GG1w",
"wwqq60000006qqqqqqqqqqqqqqqqwwwwwwwwwwwwwwwwww4qqqqqq3wwwwwwwwww"
};
