/* XPM */
static char *fe83e2837a204c09f452b0408926508dGilFYgV6CzZU17w7[] = {
/* columns rows colors chars-per-pixel */
"64 64 78 1 ",
"  c #2B2B2B",
". c #333333",
"X c #3B3B3B",
"o c #444444",
"O c #4B4B4B",
"+ c #4F4F50",
"@ c #545454",
"# c #575859",
"$ c #5B5C5C",
"% c #5F6061",
"& c #626263",
"* c #666768",
"= c #666869",
"- c #6A6A6B",
"; c #6D6F70",
": c #737374",
"> c #757778",
", c #7A7A7B",
"< c #7D7F81",
"1 c #7E8082",
"2 c #838484",
"3 c #858788",
"4 c #858889",
"5 c #8C8C8C",
"6 c #8E8F91",
"7 c #939394",
"8 c #949799",
"9 c #96999B",
"0 c #9A9B9B",
"q c #9A9EA1",
"w c #9EA1A3",
"e c #A3A4A4",
"r c #A3A7A9",
"t c #A7A9AA",
"y c #ACACAD",
"u c #ABAEB1",
"i c #ADB1B3",
"p c #B4B4B5",
"a c #B5B8B9",
"s c #BBBCBD",
"d c #BDBFC0",
"f c #BFC3C6",
"g c #C2C3C3",
"h c #C3C6C9",
"j c #C7C9CA",
"k c #CBCBCB",
"l c #CCCFD1",
"z c #CDD1D2",
"x c gray82",
"c c gray83",
"v c #D6DCDF",
"b c #DADADB",
"n c gray86",
"m c gray87",
"M c #DADEE1",
"N c #DEDFE0",
"B c #DFE0E0",
"V c #DFE4E7",
"C c #E0E1E1",
"Z c gray89",
"A c #E0E5E7",
"S c #E6E6E6",
"D c #E2E6E9",
"F c #E5E8EA",
"G c #EAEAEA",
"H c #E9EDEE",
"J c #EEEFEF",
"K c #EEEFF0",
"L c #EFF1F3",
"P c #F1F1F2",
"I c #F1F3F4",
"U c #F3F5F5",
"Y c #F5F6F6",
"T c #F6F7F8",
"R c #FAFBFB",
"E c #FBFBFC",
"W c #FBFCFC",
"Q c #FEFEFE",
/* pixels */
"QkO         .oO&-,37eygjbCGRRRRRRRRNgy7-+                      3",
"W$                            .oX                              O",
"G.                                           .O&>39wrssuw94-    ",
"y                                      X*3rgBPPIYRRRQQQERRRB    ",
",  XShy7,:&&Oooo.        oooo@$X  o0sxPQQQQQQQQQQQQQQQQQQQQS    ",
"@  3QQQQQQQQQQQQQQQQQQQQQQQQQQY.  :QQQQQQQQQQQQQQQQQQQQQQQQY    ",
".  hQQQQQQQQQQQQQQQQQQQQQQQQQQs   3QQQQQQQQQQQQQQQQQQQQQQQQQ    ",
"   PQQQQQQQQQQQQQQQQQQQQQQQQQQ3   eQQQQQQQQQQQQQQQQQQQQQQQQQ    ",
"  XRQQQQQQQQQQQQQQQQQQQQQQQQQQ@   yQQQQQQQQQQQQQQQQQQQQQQQQQo   ",
"  oRQQQQQQQQQQQQQQQQQQQQQQQQQQ.   kQQQQQQQQQQQQQQQQQQQQQQQQQo   ",
"  #TQQQQQQQQQQQQQQQQQQQQQQQQQS    xQQQQQQQQQQQQQQQQQQQQQQQQQ&   ",
"  #IQQQQQQQQQQQQQQQQQQQQQQQQQk    CQQQQQQQQQQQQQQQQQQQQQQQQQ&   ",
"  #IQQQQQQQQQQQQQQQQQQQQQQQQQp    CQQQQQQQQQQQQQQQQQQQQQQQQQ,   ",
"  #UQQQQQQQQQQQQQQQQQQQQQQQQQy    CQQQQQQQQQQQQQQQQQQQQQQQQQ,   ",
"  #RQQQQQQQQQQQQQQQQQQQQQQQQQy    RQQQQQQQQQQQQQQQQQQQQQQQQQ,  o",
"  #RQQQQQQQQQQQQQQQQQQQQQQQQQs    SQQQQQQQQQQQQQQQQQQQQQQQQQ2  o",
"  #RQQQQQQQQQQQQQQQQQQQQQQQQQb    CQQQQQQQQQQQQQQQQQQQQQQQQQ,  &",
"  $QQQQQQQQQQQQQQQQQQQQQQQQQQR.   CQQQQQQQQQQQQQQQQQQQQQQQQQ:  -",
"  $QQQQQQQQQQQQQQQQQQQQQQQQQQQ$   cQQQQQQQQQQQQQQQQQQQQQQQQQ#  2",
"  +QQQQQQQQQQQQQQQQQQQQQQQQQQQ5   kQQQQQQQQQQQQQQQQQQQQQQQQQo  9",
"  oRQQQQQQQQQQQQQQQQQQQQQQQQQQg   yQQQQQQQQQQQQQQQQQQQQQQQQY   p",
"  oRQQQQQQQQQQQQQQQQQQQQQQQQQQK   9QQQQQQQQQQQQQQQQQQQQQQQQc   b",
"  oRQQQQQQQQQQQQQQQQQQQQQQQQQQI@  2QQQQQQQQQQQQQQQQQQQQQQQQp  .Q",
"  XRQQQQQQQQQQQQQQQQQQQQQQQQQQH,  *QQQQQQQQQQQQQQQQQQQQQQQQ5  @Q",
"   EQQQQQQQQQQQQQQQQQQQQQQQQQWFw  OQQQQQQQQQQQQQQQQQQQQQQQQ:  ,Q",
"   QQQQQQQQQQQQQQQQQQQQQQQQQQRVs   QQQQQQQQQQQQQQQQQQQQQQQQO  9Q",
"   RQQQQQQQQQQQQQQQQQQQQQQQQQRVz   SQQQQQQQQQQQQQQQQQQQQQQQX  yQ",
"   YQQQQQQQQQQQQQQQQQQQQQQQQQRAv   xQQQQQQQQQQQQQQQQQQQQQQQ   aR",
"   dGRQQQQQQQQQQQQQQQQQQQRmkyytu   kQQQQQQQQQQQQQQQQQQQQQQJ   pR",
"      O,ekYQQQQQQQQQQYg7#          &20pxGRQQQQRCg9,-&&-27ep   iU",
"           O*3ephgy3#.                    .oo.                rP",
"                                                              *L",
"                       .$<8uhh9   *$O.                        OH",
"   lky73>*@o.       O2sPRRRRRR-  OTRRRGzp052>>59sbCPRRRPCkpO  -F",
"   CQQQQQQQQRJcppkbYQQQQQQQQQJ.  7QQQQQQQQRRRQQQQQQQQQQQQQQ>  @F",
"   CQQQQQQQQQQQQQQQQQQQQQQQQQp   bQQQQQQQQQQQQQQQQQQQQQQQQQ7  XL",
"   CQQQQQQQQQQQQQQQQQQQQQQQQQ3  oRQQQQQQQQQQQQQQQQQQQQQQQQQp   P",
"   CQQQQQQQQQQQQQQQQQQQQQQQQQ,  -QQQQQQQQQQQQQQQQQQQQQQQQQQk   C",
"   CQQQQQQQQQQQQQQQQQQQQQQQQQ,  2QQQQQQQQQQQQQQQQQQQQQQQQQQb   k",
"   CQQQQQQQQQQQQQQQQQQQQQQQQQ3  8RQQQQQQQQQQQQQQQQQQQQQQQQQC   j",
"   CQQQQQQQQQQQQQQQQQQQQQQQQQ9  0RQQQQQQQQQQQQQQQQQQQQQQQQQC   j",
"   BQQQQQQQQQQQQQQQQQQQQQQQQQp  iRQQQQQQQQQQQQQQQQQQQQQQQQQx   h",
"   kQQQQQQQQQQQQQQQQQQQQQQQQQx  iRQQQQQQQQQQQQQQQQQQQQQQQQQg   b",
"   gQQQQQQQQQQQQQQQQQQQQQQQQQS  hRQQQQQQQQQQQQQQQQQQQQQQQQQy   P",
"   gQQQQQQQQQQQQQQQQQQQQQQQQQR  jRQQQQQQQQQQQQQQQQQQQQQQQQQ7  .R",
"   gQQQQQQQQQQQQQQQQQQQQQQQQQQ  lEQQQQQQQQQQQQQQQQQQQQQQQQQ2  OE",
"   sQQQQQQQQQQQQQQQQQQQQQQQQQH  MQQQQQQQQQQQQQQQQQQQQQQQQQQ,  $Q",
"   yQQQQQQQQQQQQQQQQQQQQQQQQQb  DEQQQQQQQQQQQQQQQQQQQQQQQQQ&  *E",
"   eQQQQQQQQQQQQQQQQQQQQQQQQQs  MRQQQQQQQQQQQQQQQQQQQQQQQQQ&  *R",
"   6QQQQQQQQQQQQQQQQQQQQQQQQQ7  vUQQQQQQQQQQQQQQQQQQQQQQQQQ:  OU",
"   >WQQQQQQQQQQQQQQQQQQQQQQQQ-  lIQQQQQQQQQQQQQQQQQQQQQQQQQ9   S",
"o  %RQQQQQQQQQQQQQQQQQQQQQQQQX  hPQQQQQQQQQQQQQQQQQQQQQQQQQx   y",
"*  XRQQQQQQQQQQQQQQQQQQQQQQQR   hIQQQQQQQQQQQQQQQQQQQQQQQQQQo  -",
"7   mQQQQQQQQQQQQQQQQQQQQQQQS   iRQQQQQQQQQQQQQQQQQQQQQQQQQQ7  .",
"b   9QQQQQQQQQQQQQQQQQQQQQQQG   wRQQQQQQQQQQQQQQQQQQQQQQQQQQb   ",
"EO  $QQQQQQQQQQQQQQQQQQQQQQQQ.  <RQQQQQQQQQQQQQQQQQQQQQQQQQQIO  ",
"Q2  .QQQQQQQQQQQQQQQQQQQQQQQQ$  XYQQQQQQQQQQQQQQQQQQQQQQQQQQL3  ",
"Q3   QQQQQQQQQQQQQQQQQQQQQQQQ3   yQQQQQQQQQQQQQQQQQQQQQQQQQQKi  ",
"Q-   QQQQQQQQQQQQQQQQQQQQS9#     OsPQQQQQQQQQQQQQQQQQQQQQQQQKh  ",
"Q.   o@-3ykGQQQQQQQQQQYp&           @,ehCYQQQQQQQQQQQQQQQQQQLw  ",
"b           X@:39yyy5&.                   X@:5ygbYRRRRIPPPPPsX  ",
"x                         .=6uuq,O                XO#-;;;;#X    ",
"R*+2r1X                .*rvvvvvvvvf5#.                         5",
"QRPLKFFs3-@o        o:yFLLLPRRRRRRRRRYbse3:&o.              o:sQ"
};
