/* XPM */
static char *_64dda61cf7d4a0df3fc201973419249wEMNALprIWGydi5x[] = {
/* columns rows colors chars-per-pixel */
"64 64 33 1 ",
"  c #D1D7DC",
". c #D2D8DB",
"X c #D1D6DB",
"o c #DDDDDD",
"O c #D0D6DB",
"+ c #D4D9DE",
"@ c #D0D6DA",
"# c #D1D8DA",
"$ c #D0D7DA",
"% c None",
"& c #D6D6DE",
"* c #D0D7DA",
"= c #D1D7DB",
"- c #D0D7DB",
"; c #D2D7DB",
": c black",
"> c #D6DCDF",
", c #F0F2F3",
"< c #E2E6E8",
"1 c #EAEDEF",
"2 c #E5E8EA",
"3 c gray99",
"4 c #F9FAFA",
"5 c #F6F7F8",
"6 c #DFE3E6",
"7 c #D3D9DD",
"8 c #EDF0F1",
"9 c #D9DEE1",
"0 c #E8EBED",
"q c #F3F5F6",
"w c #DCE1E4",
"e c #D1D7DB",
"r c white",
/* pixels */
":::::::::::::::o;;;:::::::::&;;::::&#==#&::::::::::::::::;;;::::",
":*----*=*---eeeeeeeeee------%eeeeeeeeeeeeeeeee$O*--$eeeeeeeeee*:",
":eeeeeeeeeeeeee7wwweeeeeeeeee>w7eeee6006eeeeeeeeeeeeeeeeeww9eee:",
":eeqqq0001qeerrrrrrrreeqqqqq4rr<e6rrrrrrreerrrq001q2e6rrrrrrree:",
":@eqrrrrrrqe9rrrrrrrreerrrrrrrr0ewrrrrrrreerrrrrrrr4e7rrrrrrree:",
":-eqrrrrrrqewrrrrrrrreerrrrrrrr0e6rrrrrrr>e5rrrrrrrreerrrrrrree:",
":-e8rrrrrr5e7rrrrrrrreerrrrrrrr2e0rrrrrrrwe8rrrrrrrreerrrrrrree:",
":#ewrrrrrrreerrrrrrrr7errrrrrrr6e0rrrrrrr0e0rrrrrrr5e9rrrrrrree:",
":.ewrrrrrrreerrrrrrrr9eqrrrrrrr0e0rrrrrrr2e0rrrrrrr8e6rrrrrrree:",
":=e<rrrrrrreerrrrrrrreerrrrrrrr0e0rrrrrrr9e8rrrrrrrwe8rrrrrrree:",
":=e0rrrrrrreerrrrrrrreerrrrrrrr8ewrrrrrr4ee4rrrrrr3ee3rrrrrrree:",
":*e1rrrrrrreerrrrrrrreerrrrrrrrqewrrrrrr,e9rrrrrrrqe9rrrrrrrree:",
":-eqrrrrrrqewrrrrrrrreerrrrrrrrqewrrrrrr0e<rrrrrrrqewrrrrrrrree:",
":-eqrrrrrrqewrrrrrrrr9eqrrrrrrr,ewrrrrrr6e0rrrrrrrqewrrrrrrrree:",
":-eqrrrrrrqewrrrrrrrr6e1rrrrrrr<e0rrrrrrweqrrrrrrrqe9rrrrrrrree:",
":-eqrrrrrrqewrrrrrrrr0e2rrrrrrrwe,rrrrrrweqrrrrrrr5eerrrrrrrree:",
":-eqrrrrrr8ewrrrrrrrrqewrrrrrrr7e3rrrrrr9eqrrrrrrrreerrrrrrr3ee:",
":-eqrrrrrr0e0rrrrrrrrqewrrrrrrr7e5rrrrrree5rrrrrrrqeerrrrrrr1e-:",
":-eqrrrrrr0e0rrrrrrrr8e<rrrrrrreerrrrrrr9e5rrrrrrrqewrrrrrrr0e=:",
":-e8rrrrrrqewrrrrrrrr0e0rrrrrrreerrrrrrr<e8rrrrrrrqewrrrrrrr1e=:",
":-e0rrrrrrqewrrrrr4qqwe,rrrrrrreerrrrrrr1e<rrrrrrrqewrrrrrrrqe-:",
":*e0rrrrrr3eewwwww7eeee4rrrrrrreewwwwwww9e7rrrrrrrreeeee>ww>ee$:",
":=e0rrrrrrreeeeeeee>wee5rrrrrrreeeeeeeeeeee4rrrrrrreeeeeeeeeeee+",
":;ewrrrrrrreeqqqqq4rr9e8rrrrrrreeqqqqqqqq9eqrrrrrrreerrr4qqqrwe;",
":;ewrrrrrrreerrrrrrrrwe0rrrrrrreerrrrrrrrweqrrrrrrr9eqrrrrrrrwe;",
":;ewrrrrrrreerrrrrrrr0e0rrrrrrreerrrrrrrrweqrrrrrrr6e8rrrrrrrwe;",
":;ewrrrrrrreerrrrrrrr0e0rrrrrrreerrrrrrrrweqrrrrrrr0e0rrrrrrrwe;",
":;ewrrrrrrr7errrrrrrr0e0rrrrrrreerrrrrrrr9eqrrrrrrr0e0rrrrrrr9e+",
":=e<rrrrrrr9eqrrrrrrrweqrrrrrrreerrrrrrrreerrrrrrrr0e0rrrrrrree:",
":Oe1rrrrrrreerrrrrrrrweqrrrrrrreerrrrrrrreerrrrrrrr9e,rrrrrrree:",
":ee4rrrrrrreerrrrrrrrweqrrrrrrreerrrrrrrreerrrrrrr,ee3rrrrrrree:",
":eerrrrrrrreerrrrrrrrweqrrrrrrreerrrrrrrreerrrrrrr<ewrrrrrrr3e%:",
":eerrrrrrrreerrrrrrrrweqrrrrrrreerrrrrrrr9errrrrrrwe0rrrrrrr5e@:",
":eerrrrrrrr9eqrrrrrrrweqrrrrrrreerrrrrrrrwe3rrrrrrwe0rrrrrrrree:",
":eerrrrrrrr6e1rrrrrrrwe8rrrrrrreerrrrrrrr6e8rrrrrr2e2rrrrrrrree:",
":%errrrrrrr0e2rrrrrrr2e0rrrrrrreerrrrrrrr1e6rrrrrrqewrrrrrrrree:",
":@eqrrrrrrrqewrrrrrrr<e0rrrrrrreerrrrrrrr4e7rrrrrr3eerrrrrrrree:",
":eerrrrrrrrqewrrrrrrr7e8rrrrrr5e7rrrrrrrrreerrrrrrreerrrrrrrree:",
":eerrrrrrrr8e<rrrrrrree3rrrrrrqewrrrrrrrr5e9rrrrrrreerrrrrrrree:",
":eerrrrrrrr0e0rrrrrrreerrrrrrrqewrrrrrrrr1e2rrrrrrreerrrrrrrree:",
":eerrqqq4rrwe,rrrrrrreer3rrrrr4e>rrrrrrrr6e15qqqqqqeerrrrrrrr9e+",
":eeeeeeeeeeee4rrrrrrreeeeeeeeeeeerrrrrrrr7eeeeeeeeeeerrrrrrrrwe;",
":eeee>ww>eeee5rrrrrrreeeeeeeeeeee4rrrrrrreeee9wwwww7e5rrrrrrrwe;",
":%e3rrrrrrr9e8rrrrrrreerrrrrrrrweqrrrrrrreerrrrrrrrweqrrrrrrr6e.",
":-eqrrrrrrrwe0rrrrrrreerrrrrrrrweqrrrrrrr9eqrrrrrrrweqrrrrrrr2e#",
":-eqrrrrrrr0e0rrrrrrreerrrrrrrrweqrrrrrrr6e8rrrrrrrweqrrrrrrrwe;",
":-eqrrrrrrr0e0rrrrrrreerrrrrrrrweqrrrrrrr0e0rrrrrrrweqrrrrrrrwe;",
":-eqrrrrrrr0e0rrrrrrreerrrrrrrr9eqrrrrrrr0e0rrrrrrr9e5rrrrrrrwe;",
":-eqrrrrrrrweqrrrrrrreerrrrrrrreerrrrrrrr0e0rrrrrrreerrrrrrrree:",
":-e,rrrrrrrweqrrrrrrreerrrrrrrreerrrrrrrr9e,rrrrrrreerrrrrrrree:",
":Xe2rrrrrrrweqrrrrrrreerrrrrrrreerrrrrrr,ee3rrrrrrreerrrrrrrree:",
":;ewrrrrrrrweqrrrrrrreerrrrrrrreerrrrrrr<ewrrrrrrr3e7rrrrrrrree:",
":;ewrrrrrrrweqrrrrrrreerrrrrrrr9errrrrrrwe0rrrrrrr5e9rrrrrrrree:",
":=e<rrrrrrrweqrrrrrrreerrrrrrrrwe3rrrrrrwe0rrrrrrrreerrrrrrrree:",
":Xe0rrrrrrrwe8rrrrrrreerrrrrrrr6e8rrrrrr2e2rrrrrrrreerrrrrrrree:",
":Oe0rrrrrrr2e0rrrrrrreerrrrrrrr1e6rrrrrrqewrrrrrrrreerrrrrrrr>e+",
":=e0rrrrrrr<e0rrrrrrreerrrrrrrr4e7rrrrrr3eerrrrrrrreerrrrrrrr7eo",
":=e0rrrrrrr7e8rrrrrr5e7rrrrrrrrreerrrrrrreerrrrrrrreerrrrrrrree:",
": e6rrrrrrree3rrrrrrqewrrrrrrrr5e9rrrrrrreerrrrrrrreerrrrrrrree:",
":;ewrrrrrrreerrrrrrrqewrrrrrrrr1e2rrrrrrreerrrrrrrreerrrrrrrree:",
":=e2rrrrrrree4q,qqqr4e>rrrrrrrr6e1rrrrrrreerrrrrrrreerrqqqqqree:",
":$e>wwwweeeeeeeeeeeeeeewwwwweeeeeeeeee9wweewwww9eeeeeeeeeeeeeee:",
":@eeeeeeeeeeee-----eeeeeeeeeeeeeeeeeeeeeeeeeeeeeeeeeeee$----ee%:",
"::;;;;;;&:::::::::::::;;;;;;::::::::&;;;;;;;;;;;o:::::::::::::::"
};
